<svg width="20" height="20" viewBox="0 0 20 20" fill="none" xmlns="http://www.w3.org/2000/svg">
<path d="M14.3528 11.966V14.03C14.3528 14.1669 14.2984 14.2981 14.2017 14.3949C14.1049 14.4916 13.9737 14.546 13.8368 14.546C13.7 14.546 13.5687 14.4916 13.4719 14.3949C13.3752 14.2981 13.3208 14.1669 13.3208 14.03V11.966C13.3208 11.8292 13.3752 11.6979 13.4719 11.6011C13.5687 11.5044 13.7 11.45 13.8368 11.45C13.9737 11.45 14.1049 11.5044 14.2017 11.6011C14.2984 11.6979 14.3528 11.8292 14.3528 11.966Z" fill="#2152FF"/>
<path d="M8.72842 1.92639C4.83282 1.87759 1.65682 5.07079 1.73322 8.97239C1.80722 12.7268 4.90442 15.7524 8.65962 15.742C8.72509 15.7417 8.78928 15.7238 8.84555 15.6904C8.90181 15.6569 8.9481 15.609 8.97962 15.5516C9.12642 15.2848 9.37962 14.8256 9.37562 14.8172C9.33562 14.6708 9.07962 14.798 9.07962 14.646V10.7848C9.07935 10.7416 9.0927 10.6994 9.11775 10.6642C9.14281 10.6291 9.17831 10.6027 9.21922 10.5888C9.6694 10.44 10.0452 10.1239 10.2689 9.70592C10.4926 9.2879 10.5472 8.79989 10.4212 8.3428C10.409 8.29861 10.4119 8.25163 10.4292 8.20922C10.4466 8.1668 10.4775 8.13135 10.5172 8.1084L13.762 6.23519C13.7939 6.2168 13.8293 6.20529 13.8659 6.20141C13.9026 6.19753 13.9396 6.20136 13.9746 6.21267C14.0097 6.22397 14.042 6.2425 14.0694 6.26705C14.0969 6.29159 14.1189 6.32162 14.134 6.35519C14.451 7.05511 14.6303 7.8095 14.662 8.57719C14.664 8.62576 14.6777 8.67312 14.702 8.7152L14.9864 9.20359C15.0191 9.25976 15.0693 9.30374 15.1292 9.32889C15.1891 9.35404 15.2556 9.35899 15.3186 9.34299C15.3816 9.32699 15.4377 9.29092 15.4783 9.24022C15.519 9.18952 15.5421 9.12696 15.544 9.062C15.5464 8.9876 15.5476 8.9128 15.5476 8.838C15.5496 5.11999 12.4472 1.97319 8.72842 1.92639ZM8.20002 14.5552C8.19997 14.5926 8.19196 14.6296 8.17655 14.6637C8.16113 14.6978 8.13866 14.7282 8.1106 14.753C8.08255 14.7778 8.04955 14.7963 8.0138 14.8074C7.97805 14.8184 7.94036 14.8218 7.90322 14.8172C4.92562 14.4528 2.61202 11.9084 2.61202 8.834C2.61154 8.16912 2.72158 7.50879 2.93762 6.87999C2.94909 6.8457 2.96749 6.81412 2.99168 6.78724C3.01587 6.76035 3.04533 6.73874 3.07824 6.72373C3.11114 6.70872 3.14678 6.70065 3.18294 6.7C3.2191 6.69936 3.25501 6.70617 3.28842 6.71999L6.64842 8.1144C6.69092 8.13206 6.72721 8.16194 6.7527 8.20025C6.7782 8.23856 6.79174 8.28358 6.79162 8.3296V8.83439C6.79204 9.22302 6.91478 9.60166 7.14244 9.91663C7.3701 10.2316 7.69114 10.4669 8.06002 10.5892C8.10093 10.6031 8.13643 10.6295 8.16149 10.6646C8.18655 10.6998 8.19989 10.742 8.19962 10.7852L8.20002 14.5552ZM13.2924 5.49039L10.0024 7.39C9.96727 7.41061 9.92677 7.42028 9.88609 7.41779C9.84541 7.41529 9.8064 7.40074 9.77402 7.37599C9.44696 7.12079 9.04336 6.98338 8.62852 6.98599C8.21368 6.98861 7.81185 7.13109 7.48802 7.39039C7.45884 7.41404 7.42385 7.42941 7.38669 7.4349C7.34954 7.44039 7.31159 7.43579 7.27682 7.42159L3.70562 5.94159C3.66987 5.92673 3.63783 5.90418 3.61177 5.87555C3.5857 5.84691 3.56626 5.8129 3.55481 5.77591C3.54336 5.73892 3.54018 5.69987 3.54551 5.66152C3.55083 5.62317 3.56453 5.58646 3.58562 5.55399C4.10636 4.75066 4.81108 4.08302 5.64136 3.60642C6.47165 3.12983 7.40358 2.85802 8.35989 2.81352C9.31621 2.76902 10.2694 2.95312 11.1403 3.35054C12.0113 3.74797 12.7749 4.34729 13.368 5.09879C13.3914 5.12852 13.4082 5.16293 13.4171 5.1997C13.426 5.23647 13.427 5.27473 13.4198 5.31188C13.4126 5.34904 13.3975 5.38421 13.3755 5.41501C13.3536 5.44581 13.3252 5.47152 13.2924 5.49039Z" fill="#2152FF"/>
<path d="M18.98 16.8524L15.3248 10.578L14.64 9.40398L14.18 8.61238C14.1413 8.54595 14.0858 8.49082 14.0191 8.4525C13.9525 8.41418 13.8769 8.394 13.8 8.39398C13.7228 8.39422 13.6469 8.41478 13.5802 8.45361C13.5134 8.49244 13.458 8.54817 13.4196 8.61518L9.92001 14.7256L9.36001 15.7052L8.70121 16.8552C8.66298 16.9219 8.64289 16.9974 8.64294 17.0743C8.643 17.1512 8.66319 17.2267 8.7015 17.2933C8.73982 17.36 8.79493 17.4154 8.86134 17.4541C8.92775 17.4928 9.00314 17.5135 9.08001 17.514H18.6C18.6774 17.514 18.7534 17.4935 18.8204 17.4548C18.8873 17.416 18.9429 17.3602 18.9814 17.2931C19.02 17.226 19.0401 17.1499 19.0399 17.0726C19.0396 16.9952 19.019 16.9192 18.98 16.8524ZM9.84001 16.634L10.4956 15.4892L11.1756 14.3028L13.8044 9.71358L14.3756 10.694L14.9416 11.666L17.8356 16.634H9.84001Z" fill="#2152FF"/>
<path d="M18.98 16.8524L15.3248 10.578L14.64 9.40398L14.18 8.61238C14.1413 8.54595 14.0858 8.49082 14.0191 8.4525C13.9525 8.41418 13.8769 8.394 13.8 8.39398C13.7228 8.39422 13.6469 8.41478 13.5802 8.45361C13.5134 8.49244 13.458 8.54817 13.4196 8.61518L9.92001 14.7256L9.36001 15.7052L8.70121 16.8552C8.66298 16.9219 8.64289 16.9974 8.64294 17.0743C8.643 17.1512 8.66319 17.2267 8.7015 17.2933C8.73982 17.36 8.79493 17.4154 8.86134 17.4541C8.92775 17.4928 9.00314 17.5135 9.08001 17.514H18.6C18.6774 17.514 18.7534 17.4935 18.8204 17.4548C18.8873 17.416 18.9429 17.3602 18.9814 17.2931C19.02 17.226 19.0401 17.1499 19.0399 17.0726C19.0396 16.9952 19.019 16.9192 18.98 16.8524ZM9.84001 16.634L10.4956 15.4892L11.1756 14.3028L13.8044 9.71358L14.3756 10.694L14.9416 11.666L17.8356 16.634H9.84001Z" fill="#2152FF"/>
<path d="M14.3528 15.7C14.3529 15.7339 14.3495 15.7676 14.3428 15.8008C14.3359 15.8339 14.326 15.8663 14.3132 15.8976C14.3002 15.9288 14.2843 15.9587 14.2656 15.9868C14.2468 16.0148 14.2254 16.0409 14.2016 16.0648C14.1773 16.0891 14.1505 16.1107 14.1216 16.1292C14.0937 16.1478 14.0641 16.1636 14.0332 16.1764C14.0019 16.1892 13.9695 16.199 13.9364 16.2056C13.9033 16.2127 13.8695 16.2161 13.8356 16.216C13.6989 16.2155 13.5678 16.1612 13.4708 16.0648C13.4468 16.0411 13.4252 16.0149 13.4064 15.9868C13.3688 15.9305 13.3427 15.8673 13.3296 15.8008C13.3165 15.7348 13.3165 15.6668 13.3296 15.6008C13.3427 15.5344 13.3688 15.4711 13.4064 15.4148C13.4444 15.3587 13.4927 15.3104 13.5488 15.2724C13.6051 15.2348 13.6683 15.2087 13.7348 15.1956C13.8008 15.1827 13.8688 15.1827 13.9348 15.1956C13.9678 15.2026 14.0002 15.2124 14.0316 15.2248C14.0625 15.238 14.092 15.2539 14.12 15.2724C14.1489 15.2909 14.1757 15.3125 14.2 15.3368C14.2238 15.3607 14.2452 15.3868 14.264 15.4148C14.2827 15.443 14.2986 15.4728 14.3116 15.504C14.3244 15.5353 14.3343 15.5677 14.3412 15.6008C14.3483 15.6334 14.3522 15.6666 14.3528 15.7Z" fill="#2152FF"/>
</svg>
