<svg width="19" height="17" viewBox="0 0 19 17" fill="none" xmlns="http://www.w3.org/2000/svg">
<path d="M1.88889 2.64305H4.72222L6.61111 0.914917H12.2778L14.1667 2.64305H17C17.501 2.64305 17.9814 2.82512 18.3356 3.14921C18.6899 3.4733 18.8889 3.91285 18.8889 4.37118V14.74C18.8889 15.1983 18.6899 15.6379 18.3356 15.9619C17.9814 16.286 17.501 16.4681 17 16.4681H1.88889C1.38792 16.4681 0.907478 16.286 0.553243 15.9619C0.199007 15.6379 0 15.1983 0 14.74V4.37118C0 3.91285 0.199007 3.4733 0.553243 3.14921C0.907478 2.82512 1.38792 2.64305 1.88889 2.64305ZM9.44444 5.23525C8.19203 5.23525 6.99092 5.69042 6.10533 6.50064C5.21974 7.31086 4.72222 8.40976 4.72222 9.55558C4.72222 10.7014 5.21974 11.8003 6.10533 12.6105C6.99092 13.4207 8.19203 13.8759 9.44444 13.8759C10.6969 13.8759 11.898 13.4207 12.7836 12.6105C13.6691 11.8003 14.1667 10.7014 14.1667 9.55558C14.1667 8.40976 13.6691 7.31086 12.7836 6.50064C11.898 5.69042 10.6969 5.23525 9.44444 5.23525ZM9.44444 6.96338C10.1959 6.96338 10.9166 7.23649 11.4479 7.72262C11.9793 8.20875 12.2778 8.86808 12.2778 9.55558C12.2778 10.2431 11.9793 10.9024 11.4479 11.3885C10.9166 11.8747 10.1959 12.1478 9.44444 12.1478C8.693 12.1478 7.97233 11.8747 7.44098 11.3885C6.90962 10.9024 6.61111 10.2431 6.61111 9.55558C6.61111 8.86808 6.90962 8.20875 7.44098 7.72262C7.97233 7.23649 8.693 6.96338 9.44444 6.96338Z" fill="#2152FF"/>
</svg>
