<svg width="242" height="105" viewBox="0 0 242 105" fill="none" xmlns="http://www.w3.org/2000/svg">
<mask id="mask0_170_10" style="mask-type:alpha" maskUnits="userSpaceOnUse" x="6" y="5" width="236" height="93">
<rect x="6" y="5" width="236" height="93" rx="9" fill="#F5F5F5"/>
<rect x="6.5" y="5.5" width="235" height="92" rx="8.5" stroke="#344767" stroke-opacity="0.04"/>
</mask>
<g mask="url(#mask0_170_10)">
<path d="M75.5635 40.7446H65.8002C65.0959 40.7446 64.4205 41.0244 63.9225 41.5224C63.4245 42.0204 63.1447 42.6958 63.1447 43.4001C63.1447 44.1044 63.4245 44.7798 63.9225 45.2778C64.4205 45.7758 65.0959 46.0556 65.8002 46.0556H75.5635V44.6334C75.5659 43.493 75.9318 42.383 76.608 41.4646C76.6947 41.3433 76.7883 41.227 76.8883 41.1164C76.4877 40.8765 76.0303 40.7482 75.5635 40.7446ZM55.1783 40.7446H51.8147C51.918 40.9777 52.0154 41.2138 52.1098 41.4498C52.3665 42.0901 52.6025 42.7392 52.812 43.4001C53.0215 44.061 53.1956 44.6895 53.3549 45.3504C53.411 45.5835 53.467 45.8195 53.5142 46.0556H55.1783C55.8826 46.0556 56.558 45.7758 57.056 45.2778C57.554 44.7798 57.8338 44.1044 57.8338 43.4001C57.8338 42.6958 57.554 42.0204 57.056 41.5224C56.558 41.0244 55.8826 40.7446 55.1783 40.7446ZM63.7348 71.7841H48.9822C48.3276 71.7872 47.6971 72.0321 47.2119 72.4716C46.8153 72.8321 46.5371 73.3041 46.4138 73.8256C46.2905 74.3471 46.3278 74.8937 46.521 75.3936C46.7141 75.8935 47.0539 76.3233 47.4959 76.6264C47.9378 76.9296 48.4611 77.0919 48.997 77.0921H63.7496C64.4539 77.0921 65.1293 76.8123 65.6273 76.3144C66.1253 75.8164 66.4051 75.1409 66.4051 74.4366C66.4051 73.7324 66.1253 73.0569 65.6273 72.559C65.1293 72.061 64.4539 71.7812 63.7496 71.7812L63.7348 71.7841ZM89.1093 71.7841H74.3567C73.6524 71.7841 72.977 72.0639 72.479 72.5619C71.981 73.0599 71.7013 73.7353 71.7013 74.4396C71.7013 75.1439 71.981 75.8193 72.479 76.3173C72.977 76.8153 73.6524 77.0951 74.3567 77.0951H89.1093C89.8136 77.0951 90.489 76.8153 90.987 76.3173C91.485 75.8193 91.7648 75.1439 91.7648 74.4396C91.7648 73.7353 91.485 73.0599 90.987 72.5619C90.489 72.0639 89.8136 71.7841 89.1093 71.7841ZM115.325 73.9469C111.088 72.0467 106.694 71.7635 104.452 71.7635C104.004 71.7635 103.685 71.7635 103.531 71.7841H99.7194C99.0151 71.7841 98.3397 72.0639 97.8417 72.5619C97.3437 73.0599 97.0639 73.7353 97.0639 74.4396C97.0639 75.1439 97.3437 75.8193 97.8417 76.3173C98.3397 76.8153 99.0151 77.0951 99.7194 77.0951H103.591H103.753C103.753 77.0951 104.007 77.0803 104.44 77.0803C105.916 77.0803 109.68 77.2485 113.138 78.8005C113.48 78.953 113.85 79.0324 114.224 79.0336C114.833 79.0353 115.424 78.8277 115.898 78.4455C116.372 78.0634 116.701 77.5299 116.828 76.9345C116.956 76.3391 116.875 75.718 116.599 75.1751C116.323 74.6323 115.869 74.2007 115.313 73.9528L115.325 73.9469ZM125.218 89.1568C125.188 86.9606 124.774 84.7866 123.993 82.7335C123.736 82.0778 123.229 81.551 122.584 81.2691C121.938 80.9871 121.207 80.9732 120.552 81.2302C119.896 81.4873 119.369 81.9943 119.087 82.6398C118.805 83.2852 118.791 84.0163 119.048 84.672C119.602 86.1483 119.894 87.71 119.91 89.2866C119.91 89.5168 119.91 89.741 119.91 89.9623C119.91 92.7328 119.461 95.0815 118.579 96.9462C118.43 97.2614 118.344 97.6029 118.327 97.9513C118.309 98.2997 118.361 98.6481 118.478 98.9766C118.595 99.3051 118.776 99.6073 119.01 99.8659C119.244 100.125 119.527 100.334 119.842 100.484C120.157 100.633 120.499 100.719 120.847 100.736C121.195 100.754 121.544 100.702 121.872 100.585C122.201 100.468 122.503 100.287 122.762 100.053C123.02 99.8189 123.23 99.5362 123.38 99.221C124.601 96.6393 125.221 93.5265 125.221 89.9623C125.218 89.6997 125.215 89.4312 125.206 89.1568H125.218ZM62.475 103.281H47.9879C48.041 103.381 48.0941 103.485 48.1443 103.576C48.5066 104.321 48.7534 105.117 48.876 105.936C48.9389 106.35 48.9705 106.769 48.9704 107.187V108.592H62.475C63.1792 108.592 63.8547 108.312 64.3527 107.814C64.8507 107.316 65.1304 106.641 65.1304 105.936C65.1304 105.232 64.8507 104.557 64.3527 104.059C63.8547 103.561 63.1792 103.281 62.475 103.281ZM87.8495 103.281H73.0969C72.3926 103.281 71.7171 103.561 71.2191 104.059C70.7211 104.557 70.4414 105.232 70.4414 105.936C70.4414 106.641 70.7211 107.316 71.2191 107.814C71.7171 108.312 72.3926 108.592 73.0969 108.592H87.8495C88.5537 108.592 89.2292 108.312 89.7272 107.814C90.2252 107.316 90.5049 106.641 90.5049 105.936C90.5049 105.232 90.2252 104.557 89.7272 104.059C89.2292 103.561 88.5537 103.281 87.8495 103.281ZM115.637 103.912C115.416 103.244 114.939 102.69 114.31 102.374C113.681 102.057 112.951 102.004 112.283 102.225C109.444 103.16 106.252 103.281 103.788 103.281H98.4772C97.773 103.281 97.0975 103.561 96.5996 104.059C96.1016 104.557 95.8218 105.232 95.8218 105.936C95.8218 106.641 96.1016 107.316 96.5996 107.814C97.0975 108.312 97.773 108.592 98.4772 108.592H103.788C106.65 108.592 110.391 108.441 113.947 107.267C114.278 107.158 114.585 106.985 114.849 106.757C115.113 106.529 115.33 106.252 115.487 105.94C115.644 105.629 115.738 105.289 115.764 104.941C115.79 104.593 115.747 104.244 115.637 103.912Z" fill="#3A79D8"/>
<path d="M46.3831 73.8436C46.6348 73.4247 46.8817 73.0037 47.1236 72.5808C47.1465 72.5467 47.1672 72.5113 47.1856 72.4746C46.7848 72.8385 46.5048 73.3162 46.3831 73.8436Z" fill="#3A79D8"/>
<path d="M53.6678 46.8138C53.6206 46.5601 53.5704 46.3063 53.5143 46.0555C53.4583 45.8047 53.4111 45.5834 53.355 45.3504C53.1957 44.6894 53.0147 44.0393 52.8121 43.4001C52.6026 42.7391 52.3666 42.09 52.1099 41.4498C52.0155 41.2137 51.9181 40.9777 51.8148 40.7446C51.4092 39.803 50.9512 38.885 50.4428 37.9947C47.5478 32.8893 43.1514 28.7988 37.8509 26.2788C32.5503 23.7588 26.6025 22.9315 20.8155 23.9093C15.0284 24.887 9.68255 27.6225 5.50413 31.744C1.32572 35.8656 -1.48272 41.1735 -2.5397 46.9466C-2.84794 48.6425 -3.00199 50.3627 -2.99998 52.0864C-2.96932 54.5413 -2.61212 56.9811 -1.93779 59.3417C-0.872536 63.0391 0.589595 66.6103 2.42308 69.9931C8.13234 80.8569 16.9751 91.2546 21.9172 96.6658C22.7138 97.5362 23.4072 98.2798 23.9826 98.8728H27.1632C27.715 98.2827 28.3936 97.5362 29.1725 96.6658C29.6269 96.1584 30.1187 95.6096 30.6478 95.0195C31.6303 93.8953 32.7131 92.6236 33.8727 91.2369C37.7258 86.6245 41.305 81.7902 44.592 76.7587C44.7159 76.5698 44.8368 76.3781 44.9578 76.1892C45.3276 75.5991 45.6915 75.0149 46.0495 74.4366L46.4095 73.8465C46.5312 73.319 46.8112 72.8413 47.212 72.4775C47.6625 71.6907 48.1001 70.9038 48.525 70.117C50.4428 66.5381 52.0243 62.9296 53.0245 59.4539C53.746 57.07 54.1323 54.5974 54.1723 52.1071C54.1708 50.3307 54.0018 48.5585 53.6678 46.8138ZM40.2311 54.0573C40.1039 55.0185 39.8805 55.9645 39.5643 56.881C38.4789 60.0504 36.3496 62.7573 33.5249 64.5585C30.7003 66.3597 27.3478 67.1485 24.0164 66.7956C20.685 66.4428 17.5721 64.9693 15.1874 62.6163C12.8028 60.2634 11.2877 57.1705 10.8903 53.8441C10.4929 50.5177 11.2367 47.155 12.9999 44.3065C14.7631 41.458 17.4413 39.2926 20.5958 38.1649C23.7504 37.0372 27.1943 37.014 30.3638 38.0991C33.5332 39.1841 36.2403 41.3132 38.0418 44.1377C39.5588 46.5112 40.3646 49.2695 40.3639 52.0864C40.3646 52.7456 40.3202 53.4042 40.2311 54.0573Z" fill="#3A79D8"/>
<path d="M109.179 5.21149C108.805 3.18855 108.093 1.24274 107.075 -0.544975C105.184 -3.87779 102.313 -6.54788 98.8522 -8.19273C95.3912 -9.83758 91.5078 -10.3775 87.7294 -9.73915C83.9509 -9.10082 80.4605 -7.31517 77.7319 -4.62465C75.0033 -1.93413 73.1688 1.53091 72.4775 5.30001C72.2788 6.40616 72.18 7.52795 72.1824 8.6518C72.2008 10.255 72.433 11.8486 72.8728 13.3903C73.5681 15.8049 74.5217 18.1375 75.7171 20.3477C79.4495 27.4289 85.2237 34.2299 88.4487 37.7558C88.9679 38.3252 89.4253 38.8091 89.7941 39.1927H91.8595C92.2194 38.8091 92.6679 38.3252 93.1754 37.7558C96.3501 34.2151 102.056 27.4142 105.81 20.4067C107.033 18.1946 108.021 15.8608 108.76 13.4435C109.229 11.8864 109.481 10.2719 109.507 8.6459C109.505 7.49337 109.395 6.34352 109.179 5.21149ZM90.8386 18.3118C88.9285 18.3124 87.0611 17.7465 85.4726 16.6857C83.8841 15.625 82.6459 14.1169 81.9145 12.3524C81.1831 10.5879 80.9915 8.64604 81.3638 6.77256C81.736 4.89908 82.6556 3.17808 84.006 1.82722C85.3564 0.476365 87.0772 -0.443674 88.9505 -0.816533C90.8239 -1.18939 92.7658 -0.998322 94.5305 -0.267488C96.2953 0.463345 97.8037 1.70111 98.865 3.28927C99.9262 4.87743 100.493 6.74464 100.493 8.65475C100.49 11.2147 99.4726 13.6692 97.6626 15.4797C95.8527 17.2902 93.3985 18.3087 90.8386 18.3118Z" fill="#3A79D8"/>
<path d="M106.113 44.6335V48.4278H75.5637V44.6335C75.5662 43.493 75.932 42.383 76.6082 41.4646C76.6949 41.3433 76.7885 41.2271 76.8885 41.1164C77.3939 40.521 78.0227 40.0427 78.7314 39.7146C79.4401 39.3865 80.2117 39.2165 80.9927 39.2163H100.699C102.137 39.2233 103.515 39.7979 104.531 40.8152C105.548 41.8324 106.122 43.21 106.128 44.6482L106.113 44.6335Z" fill="#3A79D8"/>
</g>
</svg>
