<svg width="98" height="130" viewBox="0 0 98 130" fill="none" xmlns="http://www.w3.org/2000/svg">
<path d="M85.2778 40.6085H12.1825C5.45423 40.6085 0 46.0627 0 52.791V109.643C0 116.371 5.45423 121.825 12.1825 121.825H16.2434V125.886C16.2434 128.13 18.0606 129.947 20.3042 129.947H28.4259C30.6696 129.947 32.4868 128.13 32.4868 125.886V121.825H64.9736V125.886C64.9736 128.13 66.7908 129.947 69.0344 129.947H77.1561C79.3997 129.947 81.217 128.13 81.217 125.886V121.825H85.2778C92.0061 121.825 97.4603 116.371 97.4603 109.643V52.791C97.4603 46.0627 92.0061 40.6085 85.2778 40.6085ZM81.217 95.4299C81.217 96.5517 80.3083 97.4603 79.1865 97.4603H18.2738C17.152 97.4603 16.2434 96.5517 16.2434 95.4299V91.3691C16.2434 90.2473 17.152 89.3387 18.2738 89.3387H79.1865C80.3083 89.3387 81.217 90.2473 81.217 91.3691V95.4299ZM81.217 71.0648C81.217 72.1866 80.3083 73.0953 79.1865 73.0953H18.2738C17.152 73.0953 16.2434 72.1866 16.2434 71.0648V67.004C16.2434 65.8822 17.152 64.9736 18.2738 64.9736H79.1865C80.3083 64.9736 81.217 65.8822 81.217 67.004V71.0648ZM36.5476 12.1825H60.9127V32.4868H73.0953V12.1825C73.0953 5.45423 67.641 0 60.9127 0H36.5476C29.8193 0 24.3651 5.45423 24.3651 12.1825V32.4868H36.5476V12.1825Z" fill="#4F8DE9" fill-opacity="0.5"/>
</svg>
