<svg width="25" height="25" viewBox="0 0 25 25" fill="none" xmlns="http://www.w3.org/2000/svg">
<path d="M24.4709 4.96419L19.5184 0.0130209V5.33854H24.8439L24.4709 4.96419ZM19.1929 5.66406V0H7.98324C7.3789 0 6.79932 0.240071 6.37199 0.6674C5.94466 1.09473 5.70459 1.67431 5.70459 2.27865V11.5397C6.69488 11.417 7.70002 11.5117 8.64992 11.8173C9.59983 12.123 10.4717 12.6321 11.2046 13.3092H20.7502C20.9501 13.3092 21.1419 13.3887 21.2833 13.5301C21.4246 13.6714 21.5041 13.8632 21.5041 14.0632C21.5041 14.2631 21.4246 14.4549 21.2833 14.5962C21.1419 14.7376 20.9501 14.8171 20.7502 14.8171H12.4357C12.9675 15.6953 13.294 16.6823 13.3908 17.7044H20.7476C20.8485 17.7015 20.9489 17.7188 21.043 17.7553C21.1371 17.7919 21.223 17.847 21.2954 17.9173C21.3678 17.9877 21.4254 18.0718 21.4647 18.1648C21.504 18.2578 21.5243 18.3577 21.5243 18.4587C21.5243 18.5596 21.504 18.6595 21.4647 18.7525C21.4254 18.8455 21.3678 18.9297 21.2954 19C21.223 19.0703 21.1371 19.1254 21.043 19.162C20.9489 19.1985 20.8485 19.2159 20.7476 19.2129H13.37C13.199 20.5671 12.6298 21.8401 11.7344 22.8704C10.839 23.9007 9.65785 24.6419 8.34066 25H22.5666C23.1709 25 23.7505 24.7599 24.1778 24.3326C24.6051 23.9053 24.8452 23.3257 24.8452 22.7214V5.66406H19.1929ZM21.2821 10.2012C21.2121 10.2712 21.1289 10.3267 21.0374 10.3646C20.9459 10.4025 20.8479 10.4219 20.7489 10.4219H9.78857C9.58863 10.4219 9.39687 10.3424 9.25548 10.2011C9.1141 10.0597 9.03467 9.86792 9.03467 9.66797C9.03467 9.46802 9.1141 9.27626 9.25548 9.13488C9.39687 8.99349 9.58863 8.91406 9.78857 8.91406H20.7502C20.8993 8.91402 21.0451 8.95821 21.1691 9.04105C21.2931 9.12389 21.3898 9.24165 21.4469 9.37943C21.504 9.51722 21.5189 9.66884 21.4898 9.81511C21.4607 9.96138 21.3888 10.0957 21.2834 10.2012H21.2821Z" fill="white"/>
<path d="M24.8455 5.33854H19.52V0L24.4712 4.96419L24.8455 5.33854Z" fill="#009600"/>
<path d="M24.8455 5.33854H19.52V0L24.4712 4.96419L24.8455 5.33854Z" fill="white"/>
<path d="M13.0644 17.7043C12.8963 16.0413 12.0987 14.5055 10.8349 13.4116C9.57114 12.3177 7.93692 11.7484 6.26701 11.8203C4.5971 11.8922 3.0179 12.5999 1.85288 13.7985C0.687868 14.997 0.0252303 16.5957 0.000705753 18.267C-0.0238188 19.9382 0.591626 21.5556 1.72097 22.7878C2.85031 24.0201 4.40808 24.7738 6.07516 24.8947C7.74224 25.0156 9.39245 24.4945 10.6878 23.4381C11.9831 22.3817 12.8254 20.8701 13.0423 19.2127C13.0787 18.9308 13.0969 18.6468 13.097 18.3625C13.097 18.1402 13.0861 17.9208 13.0644 17.7043ZM9.43358 19.5031H6.37368C6.15785 19.5031 5.95086 19.4173 5.79824 19.2647C5.64562 19.1121 5.55988 18.9051 5.55988 18.6893V15.2655C5.55988 15.0496 5.64562 14.8426 5.79824 14.69C5.95086 14.5374 6.15785 14.4517 6.37368 14.4517C6.58952 14.4517 6.79651 14.5374 6.94913 14.69C7.10174 14.8426 7.18749 15.0496 7.18749 15.2655V17.8755H9.43358C9.64941 17.8755 9.85641 17.9612 10.009 18.1138C10.1616 18.2665 10.2474 18.4735 10.2474 18.6893C10.2474 18.9051 10.1616 19.1121 10.009 19.2647C9.85641 19.4173 9.64941 19.5031 9.43358 19.5031Z" fill="white"/>
</svg>
