<svg width="22" height="20" viewBox="0 0 22 20" fill="none" xmlns="http://www.w3.org/2000/svg">
<path d="M21.3125 15.125H6.875V14.4375C6.875 14.0594 6.56563 13.75 6.1875 13.75H4.8125C4.43438 13.75 4.125 14.0594 4.125 14.4375V15.125H0.6875C0.309375 15.125 0 15.4344 0 15.8125V17.1875C0 17.5656 0.309375 17.875 0.6875 17.875H4.125V18.5625C4.125 18.9406 4.43438 19.25 4.8125 19.25H6.1875C6.56563 19.25 6.875 18.9406 6.875 18.5625V17.875H21.3125C21.6906 17.875 22 17.5656 22 17.1875V15.8125C22 15.4344 21.6906 15.125 21.3125 15.125ZM21.3125 8.25H17.875V7.5625C17.875 7.18438 17.5656 6.875 17.1875 6.875H15.8125C15.4344 6.875 15.125 7.18438 15.125 7.5625V8.25H0.6875C0.309375 8.25 0 8.55937 0 8.9375V10.3125C0 10.6906 0.309375 11 0.6875 11H15.125V11.6875C15.125 12.0656 15.4344 12.375 15.8125 12.375H17.1875C17.5656 12.375 17.875 12.0656 17.875 11.6875V11H21.3125C21.6906 11 22 10.6906 22 10.3125V8.9375C22 8.55937 21.6906 8.25 21.3125 8.25ZM21.3125 1.375H12.375V0.6875C12.375 0.309375 12.0656 0 11.6875 0H10.3125C9.93437 0 9.625 0.309375 9.625 0.6875V1.375H0.6875C0.309375 1.375 0 1.68438 0 2.0625V3.4375C0 3.81562 0.309375 4.125 0.6875 4.125H9.625V4.8125C9.625 5.19063 9.93437 5.5 10.3125 5.5H11.6875C12.0656 5.5 12.375 5.19063 12.375 4.8125V4.125H21.3125C21.6906 4.125 22 3.81562 22 3.4375V2.0625C22 1.68438 21.6906 1.375 21.3125 1.375Z" fill="white"/>
</svg>
