<svg width="25" height="25" viewBox="0 0 25 25" fill="none" xmlns="http://www.w3.org/2000/svg">
<path d="M24.4733 4.96419L19.5221 0.016276V5.33854H24.8477L24.4733 4.96419ZM19.1966 5.66406V0H7.98568C7.38134 0 6.80176 0.240071 6.37443 0.6674C5.9471 1.09473 5.70703 1.67431 5.70703 2.27865V11.5397C6.69732 11.417 7.70246 11.5117 8.65237 11.8173C9.60228 12.123 10.4741 12.6321 11.207 13.3092H20.7526C20.9526 13.3092 21.1443 13.3887 21.2857 13.5301C21.4271 13.6714 21.5065 13.8632 21.5065 14.0632C21.5065 14.2631 21.4271 14.4549 21.2857 14.5962C21.1443 14.7376 20.9526 14.8171 20.7526 14.8171H12.4382C12.97 15.6953 13.2965 16.6823 13.3932 17.7044H20.75C20.8509 17.7015 20.9514 17.7188 21.0455 17.7553C21.1396 17.7919 21.2254 17.847 21.2978 17.9173C21.3702 17.9877 21.4278 18.0718 21.4671 18.1648C21.5065 18.2578 21.5267 18.3577 21.5267 18.4587C21.5267 18.5596 21.5065 18.6595 21.4671 18.7525C21.4278 18.8455 21.3702 18.9297 21.2978 19C21.2254 19.0703 21.1396 19.1254 21.0455 19.162C20.9514 19.1985 20.8509 19.2159 20.75 19.2129H13.375C13.2039 20.5675 12.6343 21.8407 11.7384 22.871C10.8425 23.9014 9.66078 24.6424 8.3431 25H22.569C23.1733 25 23.7529 24.7599 24.1803 24.3326C24.6076 23.9053 24.8477 23.3257 24.8477 22.7214V5.66406H19.1966ZM21.2858 10.2012C21.2158 10.2712 21.1327 10.3267 21.0412 10.3646C20.9497 10.4025 20.8516 10.4219 20.7526 10.4219H9.79427C9.59432 10.4219 9.40256 10.3424 9.26118 10.2011C9.11979 10.0597 9.04036 9.86792 9.04036 9.66797C9.04036 9.46802 9.11979 9.27626 9.26118 9.13488C9.40256 8.99349 9.59432 8.91406 9.79427 8.91406H20.7526C20.9017 8.91402 21.0475 8.95821 21.1716 9.04105C21.2956 9.12389 21.3923 9.24165 21.4493 9.37943C21.5064 9.51722 21.5213 9.66884 21.4922 9.81511C21.4631 9.96138 21.3913 10.0957 21.2858 10.2012Z" fill="white"/>
<path d="M24.8482 5.33854H19.5227V0L24.4739 4.96419L24.8482 5.33854Z" fill="#009600"/>
<path d="M24.8482 5.33854H19.5227V0L24.4739 4.96419L24.8482 5.33854Z" fill="white"/>
<mask id="mask0_179_287" style="mask-type:alpha" maskUnits="userSpaceOnUse" x="0" y="11" width="14" height="14">
<path d="M13.0996 18.3627C13.0996 18.647 13.0813 18.931 13.0449 19.2129C12.828 20.8706 11.9855 22.3826 10.69 23.4393C9.39441 24.4959 7.74387 25.0171 6.07644 24.8962C4.40901 24.7753 2.85092 24.0214 1.72134 22.789C0.591753 21.5565 -0.0238238 19.9388 0.000705894 18.2671C0.0252355 16.5955 0.688015 14.9965 1.85328 13.7977C3.01854 12.599 4.59808 11.8911 6.26833 11.8192C7.93859 11.7473 9.57313 12.3167 10.8371 13.4109C12.1011 14.5051 12.8989 16.0412 13.0671 17.7045C13.0888 17.9211 13.0996 18.1405 13.0996 18.3627Z" fill="white"/>
</mask>
<g mask="url(#mask0_179_287)">
<path d="M5.48055 15.2279H4.00464C3.65191 15.2279 3.36597 15.5138 3.36597 15.8666V17.3425C3.36597 17.6952 3.65191 17.9812 4.00464 17.9812H5.48055C5.83328 17.9812 6.11922 17.6952 6.11922 17.3425V15.8666C6.11922 15.5138 5.83328 15.2279 5.48055 15.2279Z" fill="white"/>
<path d="M9.09627 15.2279H7.62036C7.26763 15.2279 6.98169 15.5138 6.98169 15.8666V17.3425C6.98169 17.6952 7.26763 17.9812 7.62036 17.9812H9.09627C9.449 17.9812 9.73494 17.6952 9.73494 17.3425V15.8666C9.73494 15.5138 9.449 15.2279 9.09627 15.2279Z" fill="white"/>
<path d="M5.48055 18.7441H4.00464C3.65191 18.7441 3.36597 19.0301 3.36597 19.3828V20.8587C3.36597 21.2115 3.65191 21.4974 4.00464 21.4974H5.48055C5.83328 21.4974 6.11922 21.2115 6.11922 20.8587V19.3828C6.11922 19.0301 5.83328 18.7441 5.48055 18.7441Z" fill="white"/>
<path d="M9.09627 18.7441H7.62036C7.26763 18.7441 6.98169 19.0301 6.98169 19.3828V20.8587C6.98169 21.2115 7.26763 21.4974 7.62036 21.4974H9.09627C9.449 21.4974 9.73494 21.2115 9.73494 20.8587V19.3828C9.73494 19.0301 9.449 18.7441 9.09627 18.7441Z" fill="white"/>
</g>
</svg>
