<svg width="25" height="25" viewBox="0 0 25 25" fill="none" xmlns="http://www.w3.org/2000/svg">
<path d="M24.4733 4.96419L19.5202 0.0130209V5.33854H24.8457L24.4733 4.96419ZM19.1947 5.66406V0H7.98568C7.38134 0 6.80176 0.240071 6.37443 0.6674C5.9471 1.09473 5.70703 1.67431 5.70703 2.27865V11.5397C6.69722 11.417 7.70225 11.5117 8.65206 11.8174C9.60186 12.123 10.4736 12.6321 11.2064 13.3092H20.752C20.9519 13.3092 21.1437 13.3887 21.285 13.5301C21.4264 13.6714 21.5059 13.8632 21.5059 14.0632C21.5059 14.2631 21.4264 14.4549 21.285 14.5962C21.1437 14.7376 20.9519 14.8171 20.752 14.8171H12.4382C12.9697 15.6954 13.2962 16.6824 13.3932 17.7044H20.75C20.8509 17.7015 20.9514 17.7188 21.0455 17.7553C21.1396 17.7919 21.2254 17.847 21.2978 17.9173C21.3702 17.9877 21.4278 18.0718 21.4671 18.1648C21.5065 18.2578 21.5267 18.3577 21.5267 18.4587C21.5267 18.5596 21.5065 18.6595 21.4671 18.7525C21.4278 18.8455 21.3702 18.9297 21.2978 19C21.2254 19.0703 21.1396 19.1254 21.0455 19.162C20.9514 19.1985 20.8509 19.2159 20.75 19.2129H13.3724C13.2015 20.5671 12.6322 21.8401 11.7369 22.8704C10.8415 23.9007 9.6603 24.6419 8.3431 25H22.569C23.1733 25 23.7529 24.7599 24.1803 24.3326C24.6076 23.9053 24.8477 23.3257 24.8477 22.7214V5.66406H19.1947ZM21.2832 10.2012C21.2132 10.2712 21.1301 10.3268 21.0386 10.3647C20.9471 10.4025 20.849 10.422 20.75 10.4219H9.79036C9.59042 10.4219 9.39866 10.3424 9.25727 10.2011C9.11589 10.0597 9.03646 9.86792 9.03646 9.66797C9.03646 9.46802 9.11589 9.27626 9.25727 9.13488C9.39866 8.99349 9.59042 8.91406 9.79036 8.91406H20.752C20.9011 8.91402 21.0469 8.95821 21.1709 9.04105C21.2949 9.12389 21.3916 9.24165 21.4487 9.37943C21.5058 9.51722 21.5207 9.66884 21.4916 9.81511C21.4625 9.96138 21.3906 10.0957 21.2852 10.2012H21.2832Z" fill="white"/>
<path d="M24.847 5.33854H19.5215V0L24.4727 4.96419L24.847 5.33854Z" fill="#009600"/>
<path d="M24.847 5.33854H19.5215V0L24.4727 4.96419L24.847 5.33854Z" fill="white"/>
<path d="M13.0672 17.7045C12.9399 16.4434 12.4496 15.2463 11.6555 14.2584C10.8615 13.2705 9.79785 12.5342 8.59365 12.1388C7.38945 11.7434 6.09638 11.7058 4.87126 12.0307C3.64614 12.3556 2.54158 13.0289 1.69153 13.969C0.841484 14.9092 0.282458 16.0758 0.0822429 17.3273C-0.117972 18.5789 0.0492242 19.8616 0.563558 21.02C1.07789 22.1785 1.91727 23.1628 2.9799 23.8536C4.04254 24.5445 5.28279 24.9122 6.55025 24.9122C7.41036 24.9122 8.26207 24.7429 9.05673 24.4138C9.85139 24.0847 10.5734 23.6022 11.1816 22.994C11.7898 22.3859 12.2722 21.6638 12.6014 20.8692C12.9305 20.0745 13.0998 19.2228 13.0997 18.3627C13.0997 18.1404 13.0889 17.921 13.0672 17.7045ZM9.19348 20.03C9.32298 20.1595 9.39573 20.3351 9.39573 20.5183C9.39573 20.7014 9.32298 20.8771 9.19348 21.0066C9.06398 21.1361 8.88834 21.2088 8.7052 21.2088C8.52206 21.2088 8.34642 21.1361 8.21692 21.0066L6.55025 19.336L5.70715 20.1823L4.88228 21.0066C4.75278 21.1361 4.57714 21.2088 4.394 21.2088C4.21086 21.2088 4.03522 21.1361 3.90572 21.0066C3.77622 20.8771 3.70346 20.7014 3.70346 20.5183C3.70346 20.3351 3.77622 20.1595 3.90572 20.03L5.57304 18.3627L3.90572 16.6954C3.8416 16.6312 3.79073 16.5551 3.75603 16.4713C3.72133 16.3875 3.70346 16.2978 3.70346 16.2071C3.70346 16.1164 3.72133 16.0266 3.75603 15.9428C3.79073 15.859 3.8416 15.7829 3.90572 15.7188C3.96984 15.6547 4.04596 15.6038 4.12974 15.5691C4.21352 15.5344 4.30332 15.5165 4.394 15.5165C4.48468 15.5165 4.57447 15.5344 4.65825 15.5691C4.74203 15.6038 4.81816 15.6547 4.88228 15.7188L6.55025 17.3861L8.21757 15.7188C8.34707 15.5893 8.52271 15.5165 8.70585 15.5165C8.88899 15.5165 9.06463 15.5893 9.19413 15.7188C9.32363 15.8483 9.39638 16.0239 9.39638 16.2071C9.39638 16.3902 9.32363 16.5659 9.19413 16.6954L7.52681 18.3627L9.19348 20.03Z" fill="white"/>
</svg>
