<svg width="13" height="13" viewBox="0 0 13 13" fill="none" xmlns="http://www.w3.org/2000/svg">
<g clip-path="url(#clip0_302_228)">
<path d="M6.5 8.66667V6.5M6.5 4.33334H6.50542M1.625 4.30162V8.69839C1.625 8.88399 1.625 8.97679 1.65235 9.05955C1.67654 9.13277 1.71609 9.19998 1.76834 9.25669C1.82741 9.32079 1.90853 9.36586 2.07078 9.45599L6.07911 11.6828C6.23273 11.7682 6.30954 11.8109 6.39088 11.8276C6.46287 11.8424 6.53713 11.8424 6.60912 11.8276C6.69046 11.8109 6.76727 11.7682 6.92089 11.6828L10.9292 9.45599C11.0915 9.36586 11.1726 9.32079 11.2317 9.25669C11.2839 9.19998 11.3235 9.13277 11.3477 9.05955C11.375 8.97679 11.375 8.88399 11.375 8.69839V4.30162C11.375 4.11602 11.375 4.02322 11.3477 3.94046C11.3235 3.86724 11.2839 3.80003 11.2317 3.74332C11.1726 3.67922 11.0915 3.63415 10.9292 3.54402L6.92089 1.31717C6.76727 1.23182 6.69046 1.18915 6.60912 1.17242C6.53713 1.15761 6.46287 1.15761 6.39088 1.17242C6.30954 1.18915 6.23273 1.23182 6.07911 1.31717L2.07078 3.54402C1.90853 3.63415 1.82741 3.67922 1.76834 3.74332C1.71609 3.80003 1.67654 3.86724 1.65235 3.94046C1.625 4.02322 1.625 4.11602 1.625 4.30162Z" stroke="#2152FF" stroke-width="1.3" stroke-linecap="round" stroke-linejoin="round"/>
</g>
<defs>
<clipPath id="clip0_302_228">
<rect width="13" height="13" fill="white"/>
</clipPath>
</defs>
</svg>
