<svg width="30" height="35" viewBox="0 0 30 35" fill="none" xmlns="http://www.w3.org/2000/svg">
<path d="M24.3345 24.3345C22.4815 26.1876 18.287 30.382 16.0828 32.5862C15.3018 33.3673 14.0366 33.3676 13.2556 32.5865C11.0873 30.4183 6.9838 26.3148 5.00357 24.3345C-0.334524 18.9964 -0.334524 10.3417 5.00357 5.00357C10.3417 -0.334524 18.9964 -0.334524 24.3345 5.00357C29.6726 10.3417 29.6726 18.9964 24.3345 24.3345Z" stroke="#2152FF" stroke-width="2" stroke-linecap="round" stroke-linejoin="round"/>
<path d="M19.7949 14.669C19.7949 17.5 17.5 19.7949 14.669 19.7949C11.8381 19.7949 9.54316 17.5 9.54316 14.669C9.54316 11.8381 11.8381 9.54316 14.669 9.54316C17.5 9.54316 19.7949 11.8381 19.7949 14.669Z" stroke="#2152FF" stroke-width="2" stroke-linecap="round" stroke-linejoin="round"/>
</svg>
