<svg width="36" height="35" viewBox="0 0 36 35" fill="none" xmlns="http://www.w3.org/2000/svg">
<path d="M27.4798 24.0999C28.7847 22.2291 29.55 19.9539 29.55 17.5C29.55 16.6504 29.4583 15.8223 29.2842 15.0249M8.52024 24.1C7.21529 22.2292 6.45 19.954 6.45 17.5C6.45 11.1211 11.6211 5.95 18 5.95C18.6965 5.95 19.3786 6.01165 20.0412 6.1298M25.4248 10.075L17.9998 17.5M34.5 17.5C34.5 26.6127 27.1127 34 18 34C8.8873 34 1.5 26.6127 1.5 17.5C1.5 8.3873 8.8873 1 18 1C27.1127 1 34.5 8.3873 34.5 17.5ZM19.65 17.5C19.65 18.4113 18.9113 19.15 18 19.15C17.0887 19.15 16.35 18.4113 16.35 17.5C16.35 16.5887 17.0887 15.85 18 15.85C18.9113 15.85 19.65 16.5887 19.65 17.5Z" stroke="#2152FF" stroke-width="2" stroke-linecap="round" stroke-linejoin="round"/>
</svg>
