<svg width="103" height="104" viewBox="0 0 103 104" fill="none" xmlns="http://www.w3.org/2000/svg">
<rect y="0.766968" width="80" height="80" rx="4" fill="#436CFF"/>
<mask id="path-2-outside-1_953_23" maskUnits="userSpaceOnUse" x="11" y="11.767" width="92" height="92" fill="black">
<rect fill="white" x="11" y="11.767" width="92" height="92"/>
<path fill-rule="evenodd" clip-rule="evenodd" d="M50.2738 13.1036C50.0038 13.3222 49.409 14.602 48.5752 16.7589C47.8697 18.5843 47.1699 20.1412 47.0202 20.2183C46.8705 20.2956 45.7725 20.6688 44.5802 21.0479C43.3877 21.4267 41.2647 22.3111 39.8624 23.013L37.3125 24.2891L33.9215 22.7858C31.5028 21.7136 30.4066 21.3137 30.0982 21.3912C29.5032 21.5405 20.7579 30.3333 20.6287 30.9121C20.5564 31.2371 20.9525 32.3129 22.0248 34.7039L23.5222 38.0419L22.2901 40.5104C21.6126 41.868 20.671 44.1202 20.198 45.5155L19.3377 48.0524L16.0054 49.3387C13.8363 50.1761 12.5556 50.7702 12.3366 51.0407C12.0232 51.4278 12 51.8916 12 57.767C12 63.6424 12.0232 64.1062 12.3366 64.4932C12.5556 64.7637 13.8363 65.3578 16.0054 66.1952L19.3377 67.4815L20.1893 69.9914C20.6578 71.3718 21.5788 73.5937 22.2362 74.929C22.8936 76.2641 23.4315 77.4296 23.4315 77.5187C23.4315 77.608 22.7731 79.1627 21.9688 80.9734C20.9231 83.3266 20.54 84.3812 20.6255 84.6706C20.7915 85.2331 29.5667 94.0094 30.0958 94.1422C30.4008 94.2188 31.4796 93.8265 33.8059 92.7928C35.6099 91.9913 37.1565 91.3355 37.2425 91.3355C37.3286 91.3355 38.5636 91.9022 39.9869 92.5948C41.41 93.2872 43.5136 94.1516 44.6613 94.5156C45.809 94.8796 46.8705 95.24 47.0202 95.3167C47.1699 95.3933 47.8697 96.9496 48.5752 98.775C49.409 100.932 50.0038 102.212 50.2738 102.43C50.6608 102.744 51.1246 102.767 57 102.767C62.8754 102.767 63.3392 102.744 63.7262 102.43C63.9968 102.211 64.5908 100.931 65.4282 98.7616L66.7146 95.4292L69.2244 94.5777C70.6049 94.1092 72.8268 93.1881 74.1621 92.5307C75.4972 91.8733 76.6626 91.3355 76.7517 91.3355C76.841 91.3355 78.3901 91.9913 80.1941 92.7928C82.5204 93.8265 83.5992 94.2188 83.9042 94.1422C84.4346 94.009 93.2087 85.2324 93.3752 84.6684C93.4618 84.3754 93.0702 83.3074 91.9777 80.8563L90.4599 77.4516L91.2374 76.0014C92.2566 74.1002 93.0098 72.3161 93.9134 69.6622L94.6512 67.495L97.9908 66.1996C100.147 65.3633 101.449 64.7578 101.665 64.4908C101.976 64.1069 102 63.63 102 57.767C102 51.9039 101.976 51.4271 101.665 51.0431C101.449 50.7764 100.146 50.1694 97.9939 49.3336L94.6572 48.0377L93.8082 45.5351C93.3411 44.1588 92.4212 41.9402 91.7638 40.6049C91.1064 39.2698 90.5686 38.1043 90.5686 38.0152C90.5686 37.926 91.2243 36.3769 92.0258 34.5729C93.0595 32.2465 93.4518 31.1678 93.3752 30.8628C93.2263 30.2694 84.4322 21.5245 83.8548 21.3957C83.5299 21.3233 82.454 21.7194 80.063 22.7918L76.7251 24.2891L74.2566 23.0571C72.899 22.3795 70.6468 21.438 69.2514 20.965L66.7146 20.1047L65.4282 16.7723C64.5908 14.6033 63.9968 13.3226 63.7262 13.1036C63.3392 12.7902 62.8754 12.767 57 12.767C51.1246 12.767 50.6608 12.7902 50.2738 13.1036ZM62.5559 17.394C64.5838 22.6702 64.4549 22.3986 65.0536 22.6561C65.3646 22.7896 66.7175 23.2453 68.0602 23.6684C69.6537 24.1707 71.5517 24.9647 73.5261 25.9554C76.2783 27.3364 76.5977 27.4553 77.0727 27.2753C77.3598 27.1666 78.892 26.5025 80.4775 25.7995L83.3602 24.5216L86.8029 27.9641L90.2454 31.4068L88.9674 34.2895C88.2645 35.875 87.6004 37.4072 87.4917 37.6942C87.3117 38.1693 87.4305 38.4886 88.8116 41.2409C89.8023 43.2153 90.5963 45.1133 91.0986 46.7068C91.5217 48.0495 91.9773 49.4024 92.1109 49.7134C92.3684 50.312 92.0946 50.1821 97.373 52.2111L99.0061 52.8389V57.7768V62.7146L97.373 63.3326C92.3375 65.2384 92.3673 65.2243 92.1109 65.8205C91.9773 66.1315 91.5217 67.4844 91.0986 68.8272C90.5963 70.4207 89.8023 72.3187 88.8116 74.293C87.4305 77.0453 87.3117 77.3647 87.4917 77.8397C87.6004 78.1267 88.2645 79.6589 88.9674 81.2444L90.2454 84.1272L86.8029 87.5699L83.3602 91.0124L80.4775 89.7344C78.892 89.0314 77.3598 88.3673 77.0727 88.2586C76.5977 88.0786 76.2783 88.1975 73.5261 89.5785C71.5517 90.5692 69.6537 91.3633 68.0602 91.8655C66.7175 92.2887 65.3646 92.7443 65.0536 92.8779C64.4549 93.1353 64.5849 92.8615 62.5559 98.14L61.928 99.773H57H52.072L51.4441 98.14C49.4151 92.8615 49.5451 93.1353 48.9465 92.8779C48.6354 92.7443 47.2787 92.2874 45.9315 91.8628C44.3122 91.3524 42.4683 90.579 40.4915 89.5811C38.4266 88.5388 37.3876 88.1068 37.1347 88.1855C36.9331 88.2483 35.3893 88.9099 33.7038 89.6558L30.6396 91.0122L27.1971 87.5697L23.7546 84.1272L25.0326 81.2444C25.7355 79.6589 26.3996 78.1267 26.5083 77.8397C26.6883 77.3647 26.5695 77.0453 25.1884 74.293C24.1977 72.3187 23.4037 70.4207 22.9014 68.8272C22.4783 67.4844 22.0227 66.1315 21.8891 65.8205C21.6316 65.2219 21.9054 65.3518 16.627 63.3228L14.994 62.695V57.767V52.8389L16.627 52.2111C21.9054 50.1821 21.6316 50.312 21.8891 49.7134C22.0227 49.4024 22.4783 48.0495 22.9014 46.7068C23.4037 45.1133 24.1977 43.2153 25.1884 41.2409C26.5695 38.4886 26.6883 38.1693 26.5083 37.6942C26.3996 37.4072 25.7355 35.875 25.0326 34.2895L23.7546 31.4068L27.1971 27.9643L30.6396 24.5218L33.7038 25.8781C35.3893 26.6241 36.9331 27.2856 37.1347 27.3484C37.3876 27.4272 38.4266 26.9951 40.4915 25.9529C42.4512 24.9634 44.3262 24.1757 45.9315 23.6675C49.1807 22.6385 49.3672 22.5641 49.5483 22.223C49.6753 21.9834 51.1436 18.2132 51.9068 16.1663L52.0941 15.6644L57.0111 15.7127L61.9282 15.7609L62.5559 17.394ZM53.0257 34.2893C49.6811 34.8498 45.7351 36.538 42.9529 38.5986C40.8889 40.1275 39.5603 41.4396 38.0586 43.4323C31.6095 51.9895 31.6095 63.5444 38.0586 72.1016C41.5229 76.6984 46.4936 79.8445 52.2823 81.1047C54.4573 81.5783 59.5427 81.5783 61.7177 81.1047C71.1545 79.0503 78.2834 71.9215 80.3378 62.4847C80.8113 60.3097 80.8113 55.2243 80.3378 53.0492C79.3322 48.4298 76.751 43.7132 73.5781 40.6969C70.0583 37.3509 65.423 35.026 60.7655 34.2706C58.7091 33.9369 55.0752 33.9458 53.0257 34.2893ZM60.5481 37.1789C63.4288 37.6814 66.3498 38.869 68.8047 40.5361C70.2795 41.5376 72.5676 43.7282 73.7153 45.2376C75.0024 46.93 76.6728 50.418 77.2393 52.5956C77.8671 55.0091 78.0275 58.5617 77.6202 61.0347C76.1502 69.9592 69.2189 76.9145 60.3389 78.3757C57.8193 78.7903 54.2626 78.6417 51.9194 78.0239C47.9196 76.9691 44.7328 75.097 41.9128 72.1456C35.0574 64.9701 34.195 54.2466 39.802 45.9022C40.7608 44.4753 43.7083 41.5278 45.1352 40.569C47.5747 38.9298 50.6026 37.6839 53.371 37.1802C55.229 36.8421 58.6131 36.8416 60.5481 37.1789ZM55.73 42.1168C55.2459 42.5909 53.0881 45.0133 50.935 47.4999C47.501 51.4659 47.0202 52.0964 47.0202 52.6342C47.0202 53.0431 47.1684 53.3954 47.4656 53.6925C47.8646 54.0917 48.0628 54.1379 49.3709 54.1379H50.8306V60.9563V67.7747L51.369 68.3131L51.9074 68.8515L57.1007 68.7981L62.294 68.7448L62.7317 68.2356L63.1694 67.7265V60.9322V54.1379H64.6291C65.9372 54.1379 66.1354 54.0917 66.5344 53.6925C66.8316 53.3954 66.9798 53.0431 66.9798 52.6342C66.9798 52.0964 66.499 51.4659 63.065 47.4999C58.5717 42.3106 57.5465 41.2549 57 41.2549C56.7794 41.2549 56.2279 41.629 55.73 42.1168ZM59.7105 48.0902C61.1139 49.7038 62.2621 51.0716 62.2621 51.1295C62.2621 51.1874 62.0135 51.2347 61.7096 51.2347C61.3646 51.2347 60.9894 51.4022 60.7116 51.6802L60.2661 52.1255V59.029V65.9323H57H53.7339V59.029V52.1255L53.2884 51.6802C53.0106 51.4022 52.6354 51.2347 52.2904 51.2347C51.9865 51.2347 51.7379 51.1883 51.7379 51.1313C51.7379 50.9422 56.9071 45.0675 57.0341 45.1122C57.1029 45.1363 58.3072 46.4763 59.7105 48.0902ZM51.2761 71.8213C50.6741 72.4232 50.7063 73.094 51.369 73.7567L51.9074 74.295L57.1007 74.2417L62.294 74.1883L62.7317 73.6792C63.2906 73.029 63.288 72.3853 62.7239 71.8213L62.2786 71.3758H57H51.7214L51.2761 71.8213Z"/>
</mask>
<path fill-rule="evenodd" clip-rule="evenodd" d="M50.2738 13.1036C50.0038 13.3222 49.409 14.602 48.5752 16.7589C47.8697 18.5843 47.1699 20.1412 47.0202 20.2183C46.8705 20.2956 45.7725 20.6688 44.5802 21.0479C43.3877 21.4267 41.2647 22.3111 39.8624 23.013L37.3125 24.2891L33.9215 22.7858C31.5028 21.7136 30.4066 21.3137 30.0982 21.3912C29.5032 21.5405 20.7579 30.3333 20.6287 30.9121C20.5564 31.2371 20.9525 32.3129 22.0248 34.7039L23.5222 38.0419L22.2901 40.5104C21.6126 41.868 20.671 44.1202 20.198 45.5155L19.3377 48.0524L16.0054 49.3387C13.8363 50.1761 12.5556 50.7702 12.3366 51.0407C12.0232 51.4278 12 51.8916 12 57.767C12 63.6424 12.0232 64.1062 12.3366 64.4932C12.5556 64.7637 13.8363 65.3578 16.0054 66.1952L19.3377 67.4815L20.1893 69.9914C20.6578 71.3718 21.5788 73.5937 22.2362 74.929C22.8936 76.2641 23.4315 77.4296 23.4315 77.5187C23.4315 77.608 22.7731 79.1627 21.9688 80.9734C20.9231 83.3266 20.54 84.3812 20.6255 84.6706C20.7915 85.2331 29.5667 94.0094 30.0958 94.1422C30.4008 94.2188 31.4796 93.8265 33.8059 92.7928C35.6099 91.9913 37.1565 91.3355 37.2425 91.3355C37.3286 91.3355 38.5636 91.9022 39.9869 92.5948C41.41 93.2872 43.5136 94.1516 44.6613 94.5156C45.809 94.8796 46.8705 95.24 47.0202 95.3167C47.1699 95.3933 47.8697 96.9496 48.5752 98.775C49.409 100.932 50.0038 102.212 50.2738 102.43C50.6608 102.744 51.1246 102.767 57 102.767C62.8754 102.767 63.3392 102.744 63.7262 102.43C63.9968 102.211 64.5908 100.931 65.4282 98.7616L66.7146 95.4292L69.2244 94.5777C70.6049 94.1092 72.8268 93.1881 74.1621 92.5307C75.4972 91.8733 76.6626 91.3355 76.7517 91.3355C76.841 91.3355 78.3901 91.9913 80.1941 92.7928C82.5204 93.8265 83.5992 94.2188 83.9042 94.1422C84.4346 94.009 93.2087 85.2324 93.3752 84.6684C93.4618 84.3754 93.0702 83.3074 91.9777 80.8563L90.4599 77.4516L91.2374 76.0014C92.2566 74.1002 93.0098 72.3161 93.9134 69.6622L94.6512 67.495L97.9908 66.1996C100.147 65.3633 101.449 64.7578 101.665 64.4908C101.976 64.1069 102 63.63 102 57.767C102 51.9039 101.976 51.4271 101.665 51.0431C101.449 50.7764 100.146 50.1694 97.9939 49.3336L94.6572 48.0377L93.8082 45.5351C93.3411 44.1588 92.4212 41.9402 91.7638 40.6049C91.1064 39.2698 90.5686 38.1043 90.5686 38.0152C90.5686 37.926 91.2243 36.3769 92.0258 34.5729C93.0595 32.2465 93.4518 31.1678 93.3752 30.8628C93.2263 30.2694 84.4322 21.5245 83.8548 21.3957C83.5299 21.3233 82.454 21.7194 80.063 22.7918L76.7251 24.2891L74.2566 23.0571C72.899 22.3795 70.6468 21.438 69.2514 20.965L66.7146 20.1047L65.4282 16.7723C64.5908 14.6033 63.9968 13.3226 63.7262 13.1036C63.3392 12.7902 62.8754 12.767 57 12.767C51.1246 12.767 50.6608 12.7902 50.2738 13.1036ZM62.5559 17.394C64.5838 22.6702 64.4549 22.3986 65.0536 22.6561C65.3646 22.7896 66.7175 23.2453 68.0602 23.6684C69.6537 24.1707 71.5517 24.9647 73.5261 25.9554C76.2783 27.3364 76.5977 27.4553 77.0727 27.2753C77.3598 27.1666 78.892 26.5025 80.4775 25.7995L83.3602 24.5216L86.8029 27.9641L90.2454 31.4068L88.9674 34.2895C88.2645 35.875 87.6004 37.4072 87.4917 37.6942C87.3117 38.1693 87.4305 38.4886 88.8116 41.2409C89.8023 43.2153 90.5963 45.1133 91.0986 46.7068C91.5217 48.0495 91.9773 49.4024 92.1109 49.7134C92.3684 50.312 92.0946 50.1821 97.373 52.2111L99.0061 52.8389V57.7768V62.7146L97.373 63.3326C92.3375 65.2384 92.3673 65.2243 92.1109 65.8205C91.9773 66.1315 91.5217 67.4844 91.0986 68.8272C90.5963 70.4207 89.8023 72.3187 88.8116 74.293C87.4305 77.0453 87.3117 77.3647 87.4917 77.8397C87.6004 78.1267 88.2645 79.6589 88.9674 81.2444L90.2454 84.1272L86.8029 87.5699L83.3602 91.0124L80.4775 89.7344C78.892 89.0314 77.3598 88.3673 77.0727 88.2586C76.5977 88.0786 76.2783 88.1975 73.5261 89.5785C71.5517 90.5692 69.6537 91.3633 68.0602 91.8655C66.7175 92.2887 65.3646 92.7443 65.0536 92.8779C64.4549 93.1353 64.5849 92.8615 62.5559 98.14L61.928 99.773H57H52.072L51.4441 98.14C49.4151 92.8615 49.5451 93.1353 48.9465 92.8779C48.6354 92.7443 47.2787 92.2874 45.9315 91.8628C44.3122 91.3524 42.4683 90.579 40.4915 89.5811C38.4266 88.5388 37.3876 88.1068 37.1347 88.1855C36.9331 88.2483 35.3893 88.9099 33.7038 89.6558L30.6396 91.0122L27.1971 87.5697L23.7546 84.1272L25.0326 81.2444C25.7355 79.6589 26.3996 78.1267 26.5083 77.8397C26.6883 77.3647 26.5695 77.0453 25.1884 74.293C24.1977 72.3187 23.4037 70.4207 22.9014 68.8272C22.4783 67.4844 22.0227 66.1315 21.8891 65.8205C21.6316 65.2219 21.9054 65.3518 16.627 63.3228L14.994 62.695V57.767V52.8389L16.627 52.2111C21.9054 50.1821 21.6316 50.312 21.8891 49.7134C22.0227 49.4024 22.4783 48.0495 22.9014 46.7068C23.4037 45.1133 24.1977 43.2153 25.1884 41.2409C26.5695 38.4886 26.6883 38.1693 26.5083 37.6942C26.3996 37.4072 25.7355 35.875 25.0326 34.2895L23.7546 31.4068L27.1971 27.9643L30.6396 24.5218L33.7038 25.8781C35.3893 26.6241 36.9331 27.2856 37.1347 27.3484C37.3876 27.4272 38.4266 26.9951 40.4915 25.9529C42.4512 24.9634 44.3262 24.1757 45.9315 23.6675C49.1807 22.6385 49.3672 22.5641 49.5483 22.223C49.6753 21.9834 51.1436 18.2132 51.9068 16.1663L52.0941 15.6644L57.0111 15.7127L61.9282 15.7609L62.5559 17.394ZM53.0257 34.2893C49.6811 34.8498 45.7351 36.538 42.9529 38.5986C40.8889 40.1275 39.5603 41.4396 38.0586 43.4323C31.6095 51.9895 31.6095 63.5444 38.0586 72.1016C41.5229 76.6984 46.4936 79.8445 52.2823 81.1047C54.4573 81.5783 59.5427 81.5783 61.7177 81.1047C71.1545 79.0503 78.2834 71.9215 80.3378 62.4847C80.8113 60.3097 80.8113 55.2243 80.3378 53.0492C79.3322 48.4298 76.751 43.7132 73.5781 40.6969C70.0583 37.3509 65.423 35.026 60.7655 34.2706C58.7091 33.9369 55.0752 33.9458 53.0257 34.2893ZM60.5481 37.1789C63.4288 37.6814 66.3498 38.869 68.8047 40.5361C70.2795 41.5376 72.5676 43.7282 73.7153 45.2376C75.0024 46.93 76.6728 50.418 77.2393 52.5956C77.8671 55.0091 78.0275 58.5617 77.6202 61.0347C76.1502 69.9592 69.2189 76.9145 60.3389 78.3757C57.8193 78.7903 54.2626 78.6417 51.9194 78.0239C47.9196 76.9691 44.7328 75.097 41.9128 72.1456C35.0574 64.9701 34.195 54.2466 39.802 45.9022C40.7608 44.4753 43.7083 41.5278 45.1352 40.569C47.5747 38.9298 50.6026 37.6839 53.371 37.1802C55.229 36.8421 58.6131 36.8416 60.5481 37.1789ZM55.73 42.1168C55.2459 42.5909 53.0881 45.0133 50.935 47.4999C47.501 51.4659 47.0202 52.0964 47.0202 52.6342C47.0202 53.0431 47.1684 53.3954 47.4656 53.6925C47.8646 54.0917 48.0628 54.1379 49.3709 54.1379H50.8306V60.9563V67.7747L51.369 68.3131L51.9074 68.8515L57.1007 68.7981L62.294 68.7448L62.7317 68.2356L63.1694 67.7265V60.9322V54.1379H64.6291C65.9372 54.1379 66.1354 54.0917 66.5344 53.6925C66.8316 53.3954 66.9798 53.0431 66.9798 52.6342C66.9798 52.0964 66.499 51.4659 63.065 47.4999C58.5717 42.3106 57.5465 41.2549 57 41.2549C56.7794 41.2549 56.2279 41.629 55.73 42.1168ZM59.7105 48.0902C61.1139 49.7038 62.2621 51.0716 62.2621 51.1295C62.2621 51.1874 62.0135 51.2347 61.7096 51.2347C61.3646 51.2347 60.9894 51.4022 60.7116 51.6802L60.2661 52.1255V59.029V65.9323H57H53.7339V59.029V52.1255L53.2884 51.6802C53.0106 51.4022 52.6354 51.2347 52.2904 51.2347C51.9865 51.2347 51.7379 51.1883 51.7379 51.1313C51.7379 50.9422 56.9071 45.0675 57.0341 45.1122C57.1029 45.1363 58.3072 46.4763 59.7105 48.0902ZM51.2761 71.8213C50.6741 72.4232 50.7063 73.094 51.369 73.7567L51.9074 74.295L57.1007 74.2417L62.294 74.1883L62.7317 73.6792C63.2906 73.029 63.288 72.3853 62.7239 71.8213L62.2786 71.3758H57H51.7214L51.2761 71.8213Z" fill="white"/>
<path fill-rule="evenodd" clip-rule="evenodd" d="M50.2738 13.1036C50.0038 13.3222 49.409 14.602 48.5752 16.7589C47.8697 18.5843 47.1699 20.1412 47.0202 20.2183C46.8705 20.2956 45.7725 20.6688 44.5802 21.0479C43.3877 21.4267 41.2647 22.3111 39.8624 23.013L37.3125 24.2891L33.9215 22.7858C31.5028 21.7136 30.4066 21.3137 30.0982 21.3912C29.5032 21.5405 20.7579 30.3333 20.6287 30.9121C20.5564 31.2371 20.9525 32.3129 22.0248 34.7039L23.5222 38.0419L22.2901 40.5104C21.6126 41.868 20.671 44.1202 20.198 45.5155L19.3377 48.0524L16.0054 49.3387C13.8363 50.1761 12.5556 50.7702 12.3366 51.0407C12.0232 51.4278 12 51.8916 12 57.767C12 63.6424 12.0232 64.1062 12.3366 64.4932C12.5556 64.7637 13.8363 65.3578 16.0054 66.1952L19.3377 67.4815L20.1893 69.9914C20.6578 71.3718 21.5788 73.5937 22.2362 74.929C22.8936 76.2641 23.4315 77.4296 23.4315 77.5187C23.4315 77.608 22.7731 79.1627 21.9688 80.9734C20.9231 83.3266 20.54 84.3812 20.6255 84.6706C20.7915 85.2331 29.5667 94.0094 30.0958 94.1422C30.4008 94.2188 31.4796 93.8265 33.8059 92.7928C35.6099 91.9913 37.1565 91.3355 37.2425 91.3355C37.3286 91.3355 38.5636 91.9022 39.9869 92.5948C41.41 93.2872 43.5136 94.1516 44.6613 94.5156C45.809 94.8796 46.8705 95.24 47.0202 95.3167C47.1699 95.3933 47.8697 96.9496 48.5752 98.775C49.409 100.932 50.0038 102.212 50.2738 102.43C50.6608 102.744 51.1246 102.767 57 102.767C62.8754 102.767 63.3392 102.744 63.7262 102.43C63.9968 102.211 64.5908 100.931 65.4282 98.7616L66.7146 95.4292L69.2244 94.5777C70.6049 94.1092 72.8268 93.1881 74.1621 92.5307C75.4972 91.8733 76.6626 91.3355 76.7517 91.3355C76.841 91.3355 78.3901 91.9913 80.1941 92.7928C82.5204 93.8265 83.5992 94.2188 83.9042 94.1422C84.4346 94.009 93.2087 85.2324 93.3752 84.6684C93.4618 84.3754 93.0702 83.3074 91.9777 80.8563L90.4599 77.4516L91.2374 76.0014C92.2566 74.1002 93.0098 72.3161 93.9134 69.6622L94.6512 67.495L97.9908 66.1996C100.147 65.3633 101.449 64.7578 101.665 64.4908C101.976 64.1069 102 63.63 102 57.767C102 51.9039 101.976 51.4271 101.665 51.0431C101.449 50.7764 100.146 50.1694 97.9939 49.3336L94.6572 48.0377L93.8082 45.5351C93.3411 44.1588 92.4212 41.9402 91.7638 40.6049C91.1064 39.2698 90.5686 38.1043 90.5686 38.0152C90.5686 37.926 91.2243 36.3769 92.0258 34.5729C93.0595 32.2465 93.4518 31.1678 93.3752 30.8628C93.2263 30.2694 84.4322 21.5245 83.8548 21.3957C83.5299 21.3233 82.454 21.7194 80.063 22.7918L76.7251 24.2891L74.2566 23.0571C72.899 22.3795 70.6468 21.438 69.2514 20.965L66.7146 20.1047L65.4282 16.7723C64.5908 14.6033 63.9968 13.3226 63.7262 13.1036C63.3392 12.7902 62.8754 12.767 57 12.767C51.1246 12.767 50.6608 12.7902 50.2738 13.1036ZM62.5559 17.394C64.5838 22.6702 64.4549 22.3986 65.0536 22.6561C65.3646 22.7896 66.7175 23.2453 68.0602 23.6684C69.6537 24.1707 71.5517 24.9647 73.5261 25.9554C76.2783 27.3364 76.5977 27.4553 77.0727 27.2753C77.3598 27.1666 78.892 26.5025 80.4775 25.7995L83.3602 24.5216L86.8029 27.9641L90.2454 31.4068L88.9674 34.2895C88.2645 35.875 87.6004 37.4072 87.4917 37.6942C87.3117 38.1693 87.4305 38.4886 88.8116 41.2409C89.8023 43.2153 90.5963 45.1133 91.0986 46.7068C91.5217 48.0495 91.9773 49.4024 92.1109 49.7134C92.3684 50.312 92.0946 50.1821 97.373 52.2111L99.0061 52.8389V57.7768V62.7146L97.373 63.3326C92.3375 65.2384 92.3673 65.2243 92.1109 65.8205C91.9773 66.1315 91.5217 67.4844 91.0986 68.8272C90.5963 70.4207 89.8023 72.3187 88.8116 74.293C87.4305 77.0453 87.3117 77.3647 87.4917 77.8397C87.6004 78.1267 88.2645 79.6589 88.9674 81.2444L90.2454 84.1272L86.8029 87.5699L83.3602 91.0124L80.4775 89.7344C78.892 89.0314 77.3598 88.3673 77.0727 88.2586C76.5977 88.0786 76.2783 88.1975 73.5261 89.5785C71.5517 90.5692 69.6537 91.3633 68.0602 91.8655C66.7175 92.2887 65.3646 92.7443 65.0536 92.8779C64.4549 93.1353 64.5849 92.8615 62.5559 98.14L61.928 99.773H57H52.072L51.4441 98.14C49.4151 92.8615 49.5451 93.1353 48.9465 92.8779C48.6354 92.7443 47.2787 92.2874 45.9315 91.8628C44.3122 91.3524 42.4683 90.579 40.4915 89.5811C38.4266 88.5388 37.3876 88.1068 37.1347 88.1855C36.9331 88.2483 35.3893 88.9099 33.7038 89.6558L30.6396 91.0122L27.1971 87.5697L23.7546 84.1272L25.0326 81.2444C25.7355 79.6589 26.3996 78.1267 26.5083 77.8397C26.6883 77.3647 26.5695 77.0453 25.1884 74.293C24.1977 72.3187 23.4037 70.4207 22.9014 68.8272C22.4783 67.4844 22.0227 66.1315 21.8891 65.8205C21.6316 65.2219 21.9054 65.3518 16.627 63.3228L14.994 62.695V57.767V52.8389L16.627 52.2111C21.9054 50.1821 21.6316 50.312 21.8891 49.7134C22.0227 49.4024 22.4783 48.0495 22.9014 46.7068C23.4037 45.1133 24.1977 43.2153 25.1884 41.2409C26.5695 38.4886 26.6883 38.1693 26.5083 37.6942C26.3996 37.4072 25.7355 35.875 25.0326 34.2895L23.7546 31.4068L27.1971 27.9643L30.6396 24.5218L33.7038 25.8781C35.3893 26.6241 36.9331 27.2856 37.1347 27.3484C37.3876 27.4272 38.4266 26.9951 40.4915 25.9529C42.4512 24.9634 44.3262 24.1757 45.9315 23.6675C49.1807 22.6385 49.3672 22.5641 49.5483 22.223C49.6753 21.9834 51.1436 18.2132 51.9068 16.1663L52.0941 15.6644L57.0111 15.7127L61.9282 15.7609L62.5559 17.394ZM53.0257 34.2893C49.6811 34.8498 45.7351 36.538 42.9529 38.5986C40.8889 40.1275 39.5603 41.4396 38.0586 43.4323C31.6095 51.9895 31.6095 63.5444 38.0586 72.1016C41.5229 76.6984 46.4936 79.8445 52.2823 81.1047C54.4573 81.5783 59.5427 81.5783 61.7177 81.1047C71.1545 79.0503 78.2834 71.9215 80.3378 62.4847C80.8113 60.3097 80.8113 55.2243 80.3378 53.0492C79.3322 48.4298 76.751 43.7132 73.5781 40.6969C70.0583 37.3509 65.423 35.026 60.7655 34.2706C58.7091 33.9369 55.0752 33.9458 53.0257 34.2893ZM60.5481 37.1789C63.4288 37.6814 66.3498 38.869 68.8047 40.5361C70.2795 41.5376 72.5676 43.7282 73.7153 45.2376C75.0024 46.93 76.6728 50.418 77.2393 52.5956C77.8671 55.0091 78.0275 58.5617 77.6202 61.0347C76.1502 69.9592 69.2189 76.9145 60.3389 78.3757C57.8193 78.7903 54.2626 78.6417 51.9194 78.0239C47.9196 76.9691 44.7328 75.097 41.9128 72.1456C35.0574 64.9701 34.195 54.2466 39.802 45.9022C40.7608 44.4753 43.7083 41.5278 45.1352 40.569C47.5747 38.9298 50.6026 37.6839 53.371 37.1802C55.229 36.8421 58.6131 36.8416 60.5481 37.1789ZM55.73 42.1168C55.2459 42.5909 53.0881 45.0133 50.935 47.4999C47.501 51.4659 47.0202 52.0964 47.0202 52.6342C47.0202 53.0431 47.1684 53.3954 47.4656 53.6925C47.8646 54.0917 48.0628 54.1379 49.3709 54.1379H50.8306V60.9563V67.7747L51.369 68.3131L51.9074 68.8515L57.1007 68.7981L62.294 68.7448L62.7317 68.2356L63.1694 67.7265V60.9322V54.1379H64.6291C65.9372 54.1379 66.1354 54.0917 66.5344 53.6925C66.8316 53.3954 66.9798 53.0431 66.9798 52.6342C66.9798 52.0964 66.499 51.4659 63.065 47.4999C58.5717 42.3106 57.5465 41.2549 57 41.2549C56.7794 41.2549 56.2279 41.629 55.73 42.1168ZM59.7105 48.0902C61.1139 49.7038 62.2621 51.0716 62.2621 51.1295C62.2621 51.1874 62.0135 51.2347 61.7096 51.2347C61.3646 51.2347 60.9894 51.4022 60.7116 51.6802L60.2661 52.1255V59.029V65.9323H57H53.7339V59.029V52.1255L53.2884 51.6802C53.0106 51.4022 52.6354 51.2347 52.2904 51.2347C51.9865 51.2347 51.7379 51.1883 51.7379 51.1313C51.7379 50.9422 56.9071 45.0675 57.0341 45.1122C57.1029 45.1363 58.3072 46.4763 59.7105 48.0902ZM51.2761 71.8213C50.6741 72.4232 50.7063 73.094 51.369 73.7567L51.9074 74.295L57.1007 74.2417L62.294 74.1883L62.7317 73.6792C63.2906 73.029 63.288 72.3853 62.7239 71.8213L62.2786 71.3758H57H51.7214L51.2761 71.8213Z" stroke="white" stroke-width="1.3791" mask="url(#path-2-outside-1_953_23)"/>
</svg>
