<svg width="19" height="19" viewBox="0 0 19 19" fill="none" xmlns="http://www.w3.org/2000/svg">
<path d="M17 9.5C17 13.6421 13.6421 17 9.5 17V19C14.7467 19 19 14.7467 19 9.5H17ZM9.5 17C5.35786 17 2 13.6421 2 9.5H0C0 14.7467 4.25329 19 9.5 19V17ZM2 9.5C2 5.35786 5.35786 2 9.5 2V0C4.25329 0 0 4.25329 0 9.5H2ZM9.5 2C13.6421 2 17 5.35786 17 9.5H19C19 4.25329 14.7467 0 9.5 0V2ZM12.2778 9.5C12.2778 11.0341 11.0341 12.2778 9.5 12.2778V14.2778C12.1387 14.2778 14.2778 12.1387 14.2778 9.5H12.2778ZM9.5 12.2778C7.96588 12.2778 6.72222 11.0341 6.72222 9.5H4.72222C4.72222 12.1387 6.86131 14.2778 9.5 14.2778V12.2778ZM6.72222 9.5C6.72222 7.96588 7.96588 6.72222 9.5 6.72222V4.72222C6.86131 4.72222 4.72222 6.86131 4.72222 9.5H6.72222ZM9.5 6.72222C11.0341 6.72222 12.2778 7.96588 12.2778 9.5H14.2778C14.2778 6.86131 12.1387 4.72222 9.5 4.72222V6.72222ZM14.8033 2.78249L11.4642 6.1216L12.8784 7.53581L16.2175 4.1967L14.8033 2.78249ZM11.4642 12.8784L14.8033 16.2175L16.2175 14.8033L12.8784 11.4642L11.4642 12.8784ZM7.53581 6.1216L4.1967 2.78249L2.78249 4.1967L6.1216 7.53581L7.53581 6.1216ZM6.1216 11.4642L2.78249 14.8033L4.1967 16.2175L7.53581 12.8784L6.1216 11.4642Z" fill="white"/>
</svg>
