<svg width="23" height="17" viewBox="0 0 23 17" fill="none" xmlns="http://www.w3.org/2000/svg">
<path d="M10.3889 11.3333H12.2778V13.2222H10.3889V11.3333ZM10.3889 3.77778H12.2778V9.44444H10.3889V3.77778ZM11.3333 0C9.07899 0 6.91698 0.895533 5.32293 2.48959C3.72887 4.08365 2.83333 6.24566 2.83333 8.5C2.83333 10.7543 3.72887 12.9163 5.32293 14.5104C6.91698 16.1045 9.07899 17 11.3333 17C13.5877 17 15.7497 16.1045 17.3437 14.5104C18.9378 12.9163 19.8333 10.7543 19.8333 8.5C19.8333 6.24566 18.9378 4.08365 17.3437 2.48959C15.7497 0.895533 13.5877 0 11.3333 0ZM11.3333 15.1111C7.68778 15.1111 4.72222 12.1456 4.72222 8.5C4.72222 4.85444 7.68778 1.88889 11.3333 1.88889C14.9789 1.88889 17.9444 4.85444 17.9444 8.5C17.9444 12.1456 14.9789 15.1111 11.3333 15.1111ZM19.3611 16.5278C21.4011 14.4594 22.6667 11.6261 22.6667 8.5C22.6667 5.37389 21.4011 2.54056 19.3611 0.472222L18.3411 1.49222C20.1356 3.30556 21.25 5.77056 21.25 8.5C21.25 11.2389 20.1356 13.6944 18.3411 15.5078L19.3611 16.5278ZM4.32556 15.5078C2.53111 13.6944 1.41667 11.2389 1.41667 8.5C1.41667 5.77056 2.53111 3.30556 4.32556 1.49222L3.30556 0.472222C1.26556 2.54056 0 5.37389 0 8.5C0 11.6261 1.26556 14.4594 3.30556 16.5278L4.32556 15.5078Z" fill="white"/>
</svg>
