<svg width="132" height="105" viewBox="0 0 132 105" fill="none" xmlns="http://www.w3.org/2000/svg">
<path d="M97.2242 15.04C96.4324 10.7855 94.9341 6.69349 92.7913 2.93372C88.8139 -4.09079 82.7697 -9.71991 75.4804 -13.1882C68.1911 -16.6565 60.0104 -17.7957 52.0509 -16.4508C44.0913 -15.1059 36.7391 -11.3423 30.9939 -5.67168C25.2488 -0.00104904 21.3894 7.3014 19.9408 15.2427C19.5237 17.5687 19.3178 19.9276 19.3257 22.2906C19.3706 25.6626 19.8628 29.0136 20.7895 32.2561C22.0988 37.0669 24.2087 42.0187 26.7791 46.9018C34.6311 61.8361 46.7924 76.1313 53.5826 83.5676C54.6788 84.7668 55.6444 85.784 56.4073 86.6019H60.7714C61.5308 85.784 62.469 84.7668 63.5411 83.5676C70.2214 76.1107 82.2383 61.7914 90.1384 47.0426C92.7741 42.1252 94.9493 37.1597 96.3238 32.3866C97.316 29.1085 97.8468 25.7083 97.9011 22.2838C97.9012 19.8534 97.6745 17.4283 97.2242 15.04ZM58.6065 42.6166C54.5866 42.616 50.6571 41.4233 47.3149 39.1894C43.9728 36.9556 41.3681 33.7808 39.8302 30.0667C38.2923 26.3525 37.8903 22.2658 38.6749 18.3231C39.4596 14.3805 41.3958 10.7591 44.2385 7.9168C47.0813 5.0745 50.7031 3.13898 54.6458 2.35497C58.5886 1.57097 62.6753 1.97369 66.3892 3.51222C70.1031 5.05075 73.2773 7.65598 75.5106 10.9985C77.7439 14.341 78.9359 18.2707 78.9359 22.2906C78.9296 27.6801 76.7856 32.8469 72.9743 36.6575C69.1631 40.468 63.9959 42.6112 58.6065 42.6166Z" fill="#3C81E8" fill-opacity="0.9"/>
<path d="M90.767 98.0346V106.024H26.449V98.0346C26.458 95.0059 27.6657 92.1039 29.808 89.9629C31.9503 87.8219 34.853 86.616 37.8817 86.6088H79.3412C82.3687 86.6178 85.2697 87.8245 87.4105 89.9653C89.5513 92.1061 90.758 95.0071 90.767 98.0346Z" fill="#3C81E8" fill-opacity="0.9"/>
<path d="M132 24.239C132 38.328 114.867 58.3173 108.75 65.0078C107.417 66.458 106.609 67.2827 106.609 67.2827C106.609 67.2827 105.784 66.458 104.427 65.0078C99.9719 60.2484 95.8391 55.1973 92.0562 49.8879C94.8258 44.8708 97.1763 39.7575 98.7605 34.768C100.668 36.1921 102.927 37.0712 105.296 37.3115C107.665 37.5518 110.054 37.1442 112.209 36.1323C114.364 35.1203 116.204 33.542 117.532 31.566C118.86 29.5899 119.626 27.2903 119.749 24.9126C119.872 22.535 119.347 20.1686 118.229 18.0662C117.112 15.9638 115.445 14.2044 113.405 12.9758C111.366 11.7472 109.031 11.0956 106.65 11.0906C104.27 11.0855 101.932 11.7273 99.8876 12.9472C98.9766 8.90775 97.4712 5.02591 95.4203 1.42856C99.2931 -0.469368 103.585 -1.35 107.892 -1.13036C112.2 -0.910722 116.38 0.401961 120.039 2.68399C123.699 4.96601 126.717 8.14223 128.81 11.9133C130.902 15.6844 132 19.9262 132 24.239Z" fill="#3C81E8" fill-opacity="0.9"/>
<path d="M93.2072 64.9976H120.011C121.97 64.9976 123.849 65.776 125.235 67.1615C126.62 68.547 127.399 70.4262 127.399 72.3857V77.5402H85.8191V72.3857C85.8191 70.4262 86.5975 68.547 87.983 67.1615C89.3686 65.776 91.2478 64.9976 93.2072 64.9976Z" fill="#3C81E8" fill-opacity="0.9"/>
<path d="M24.8444 49.747C21.0625 55.0815 16.9515 60.1749 12.5354 64.9975C11.2056 66.4476 10.398 67.2724 10.398 67.2724C10.398 67.2724 9.56987 66.4476 8.21251 64.9975C2.04771 58.4031 -15 38.8228 -15 24.239C-15.0009 19.908 -13.8944 15.6487 -11.7856 11.8658C-9.67679 8.08284 -6.63578 4.90192 -2.95147 2.62522C0.732845 0.348522 4.9381 -0.948342 9.26476 -1.14215C13.5914 -1.33596 17.8958 -0.420286 21.7689 1.51788C19.7229 5.12666 18.2233 9.01883 17.3188 13.0674C15.2834 11.8063 12.9422 11.1253 10.5479 11.098C8.15366 11.0707 5.79745 11.698 3.73379 12.9123C1.67014 14.1266 -0.0225134 15.8817 -1.16132 17.9879C-2.30012 20.0942 -2.84179 22.4716 -2.72781 24.8633C-2.61383 27.255 -1.84853 29.57 -0.514591 31.5585C0.819352 33.5469 2.67124 35.133 4.84101 36.1456C7.01079 37.1581 9.41599 37.5585 11.7968 37.3036C14.1776 37.0487 16.4435 36.1482 18.3497 34.6992C19.8617 39.6819 22.14 44.7712 24.8444 49.747Z" fill="#3C81E8" fill-opacity="0.9"/>
<path d="M-3.01054 64.9976H23.793C25.7524 64.9976 27.6316 65.776 29.0172 67.1615C30.4027 68.547 31.1811 70.4262 31.1811 72.3857V77.5402H-10.3987V72.3857C-10.3987 70.4262 -9.62029 68.547 -8.23475 67.1615C-6.8492 65.776 -4.97 64.9976 -3.01054 64.9976Z" fill="#3C81E8" fill-opacity="0.9"/>
</svg>
