<svg width="102" height="90" viewBox="0 0 102 90" fill="none" xmlns="http://www.w3.org/2000/svg">
<rect width="80" height="80" rx="4" fill="#436CFF"/>
<path fill-rule="evenodd" clip-rule="evenodd" d="M13.7466 12.2197C12.5053 12.7603 11.7892 14.1955 12.0553 15.6097C12.2199 16.4847 13.1573 17.5183 14.008 17.7632C14.4832 17.9 27.838 17.9438 57.4236 17.9058L100.153 17.851L100.671 17.4652C101.656 16.7321 101.963 16.1341 101.963 14.9509C101.963 13.7676 101.656 13.1696 100.671 12.4366L100.153 12.0508L57.2359 12.0107C21.8418 11.9776 14.2186 12.0143 13.7466 12.2197ZM63.3959 24.0617C59.8883 24.4359 55.7356 25.946 52.7923 27.9177C51.2264 28.967 50.7613 29.3554 48.9812 31.1023C43.7342 36.2517 41.1875 43.8957 42.269 51.2491C43.7509 61.3224 51.2273 69.218 61.3315 71.3798C63.5724 71.8591 68.3245 71.8625 70.5201 71.3859C73.7854 70.6774 76.8528 69.3811 79.4348 67.6188L80.7159 66.7444L89.0875 75.0666C95.7085 81.6488 97.6087 83.4364 98.1749 83.6156C100.255 84.274 102.289 82.482 101.966 80.2758C101.842 79.429 101.637 79.2071 93.3922 70.9676L84.9457 62.5267L85.8212 61.2518C87.5718 58.7025 88.8957 55.582 89.6072 52.3283C90.0777 50.1768 90.0705 45.4193 89.5936 43.2036C87.7407 34.5962 81.759 27.8998 73.4649 25.148C70.4737 24.1556 66.5177 23.7289 63.3959 24.0617ZM13.7466 30.1798C12.5038 30.725 11.7894 32.1581 12.0553 33.5716C12.2197 34.4458 13.1564 35.4797 14.008 35.7271C14.4665 35.8605 17.9145 35.9078 24.393 35.8698C33.8499 35.8145 34.1044 35.8034 34.6097 35.4272C35.5944 34.6939 35.9016 34.0961 35.9016 32.9129C35.9016 31.7296 35.5944 31.1318 34.6097 30.3986C34.1035 30.0215 33.8638 30.0118 24.2052 29.9708C16.2727 29.937 14.2058 29.9783 13.7466 30.1798ZM70.3673 30.4577C73.6413 31.3058 76.3055 32.8292 78.7134 35.2298C81.146 37.655 82.6397 40.2668 83.5212 43.6362C84.1137 45.9007 84.1077 49.9756 83.5089 52.1846C82.5718 55.6402 81.2097 57.9923 78.689 60.507C76.1329 63.057 73.8494 64.369 70.3311 65.3094C68.2689 65.8606 64.0209 65.9133 62.016 65.4125C58.5917 64.5572 55.9426 63.0712 53.4437 60.6043C50.8491 58.0428 49.3168 55.371 48.439 51.8783C47.9362 49.8776 47.9888 45.6434 48.5421 43.5866C49.383 40.4589 50.7514 37.9587 52.8614 35.6942C55.5915 32.7639 59.1629 30.8407 63.2135 30.1194C64.7872 29.8393 68.6931 30.024 70.3673 30.4577ZM13.7466 48.1418C12.5038 48.687 11.7894 50.1201 12.0553 51.5336C12.2197 52.4078 13.1564 53.4417 14.008 53.6891C14.4665 53.8225 17.9145 53.8698 24.393 53.8318C33.8499 53.7765 34.1044 53.7654 34.6097 53.3891C35.5944 52.6559 35.9016 52.0581 35.9016 50.8748C35.9016 49.6916 35.5944 49.0938 34.6097 48.3605C34.1035 47.9835 33.8638 47.9738 24.2052 47.9328C16.2727 47.899 14.2058 47.9403 13.7466 48.1418ZM13.7466 66.1038C12.5038 66.649 11.7894 68.0821 12.0553 69.4956C12.2197 70.3698 13.1564 71.4037 14.008 71.6511C14.4665 71.7845 17.9145 71.8318 24.393 71.7938C33.8499 71.7384 34.1044 71.7274 34.6097 71.3511C35.5944 70.6179 35.9016 70.0201 35.9016 68.8368C35.9016 67.6536 35.5944 67.0558 34.6097 66.3225C34.1035 65.9455 33.8638 65.9358 24.2052 65.8948C16.2727 65.8609 14.2058 65.9023 13.7466 66.1038ZM13.7466 84.0675C12.5051 84.6084 11.7892 86.0435 12.0553 87.4576C12.2199 88.3327 13.1571 89.3663 14.008 89.6114C14.4819 89.7478 25.1328 89.7919 48.4152 89.7539L82.136 89.6989L82.6542 89.3131C83.6389 88.58 83.9463 87.9821 83.9463 86.7988C83.9463 85.6156 83.6389 85.0176 82.6542 84.2845L82.136 83.8987L48.2275 83.8585C20.3233 83.8254 14.2177 83.8624 13.7466 84.0675Z" fill="white"/>
</svg>
