<?xml version="1.0" encoding="utf-8"?>
<!-- Generator: Adobe Illustrator 26.0.0, SVG Export Plug-In . SVG Version: 6.00 Build 0)  -->
<svg version="1.1" id="Layer_1" xmlns="http://www.w3.org/2000/svg" xmlns:xlink="http://www.w3.org/1999/xlink" x="0px" y="0px"
	 viewBox="0 0 2122 2122" style="enable-background:new 0 0 2122 2122;" xml:space="preserve">
<style type="text/css">
	.st0{fill:#FFFFFF;}
</style>
<g>
	<path class="st0" d="M1118.2,1028.6l-45-65.4L776.7,532.3H618.9l366.7,532.8l45,65.4l316,459.2h157.7L1118.2,1028.6z
		 M1118.2,1028.6l-45-65.4L776.7,532.3H618.9l366.7,532.8l45,65.4l316,459.2h157.7L1118.2,1028.6z M1118.2,1028.6l-45-65.4
		L776.7,532.3H618.9l366.7,532.8l45,65.4l316,459.2h157.7L1118.2,1028.6z M1473.9,83.7C1347,30,1207.4,0.3,1061,0.3
		c-439.3,0-816.3,267.1-977.3,647.8C30,775,0.3,914.5,0.3,1061c0,585.8,474.9,1060.7,1060.7,1060.7c439.3,0,816.3-267.1,977.3-647.8
		c53.7-126.9,83.4-266.4,83.4-412.9C2121.7,621.7,1854.5,244.7,1473.9,83.7z M1305.1,1668.8l-23.6-34.2l-304.2-442L568,1668.8H467
		l465.3-541.5L553.7,577.2l-85.3-124h349.9l23.6,34.3l284.7,413.6l298.9-347.9l86.4-100h100.9l-441.2,513.3l398,578.3l85.3,124
		H1305.1z M1073.2,963.2L776.7,532.3H618.9l366.7,532.8l45,65.4l316,459.2h157.7l-386.2-561.1L1073.2,963.2z M1118.2,1028.6
		l-45-65.4L776.7,532.3H618.9l366.7,532.8l45,65.4l316,459.2h157.7L1118.2,1028.6z M1118.2,1028.6l-45-65.4L776.7,532.3H618.9
		l366.7,532.8l45,65.4l316,459.2h157.7L1118.2,1028.6z M1118.2,1028.6l-45-65.4L776.7,532.3H618.9l366.7,532.8l45,65.4l316,459.2
		h157.7L1118.2,1028.6z"/>
</g>
</svg>
