<svg width="103" height="101" viewBox="0 0 103 101" fill="none" xmlns="http://www.w3.org/2000/svg">
<rect y="0.766968" width="80" height="80" rx="4" fill="#436CFF"/>
<mask id="path-2-outside-1_953_22" maskUnits="userSpaceOnUse" x="11" y="8.76697" width="92" height="92" fill="black">
<rect fill="white" x="11" y="8.76697" width="92" height="92"/>
<path fill-rule="evenodd" clip-rule="evenodd" d="M16.227 9.88306C14.6421 10.2718 13.1894 11.4578 12.4361 12.9779L12 13.8581V24.6847V35.5114L12.4195 36.4391C12.9345 37.5783 14.3928 38.9572 15.5602 39.4091C16.3549 39.7169 17.3056 39.7383 32.1441 39.7845C45.6718 39.8267 48.0303 39.7964 48.9164 39.5695C50.7618 39.097 51.895 38.1335 52.7571 36.3036L53.2133 35.3353V24.8608C53.2133 15.1559 53.1895 14.3181 52.8903 13.4599C52.4605 12.228 51.1215 10.7737 49.9145 10.2285L48.9863 9.80913L32.8708 9.78131C24.0073 9.766 16.5176 9.81177 16.227 9.88306ZM64.8376 9.9651C64.4501 10.0889 63.8913 10.3161 63.5955 10.4702C62.9661 10.7983 61.7226 12.1023 61.3471 12.8279C60.7025 14.0738 60.68 14.9547 60.7339 36.6556L60.7867 57.8688L61.2448 58.8451C61.8986 60.2383 62.6721 61.0346 64.0122 61.694L65.1824 62.2699H81.3016C96.4808 62.2699 97.4748 62.251 98.3475 61.947C99.58 61.5175 101.035 60.179 101.58 58.9726L102 58.0448V35.9515V13.8581L101.398 12.7489C100.73 11.5167 100.181 10.9861 98.8486 10.2836L97.9491 9.80913L81.7456 9.77462C69.0012 9.74751 65.3917 9.78818 64.8376 9.9651ZM48.2644 13.6634C49.4833 14.1725 49.4266 13.6277 49.4266 24.8254V34.9223L48.9118 35.4369L48.397 35.9515H32.6593C18.3949 35.9515 16.8834 35.9245 16.5118 35.6644C15.6215 35.0412 15.6106 34.9079 15.6106 24.6729C15.6106 16.3757 15.6463 15.0682 15.8873 14.5609C16.4517 13.3717 15.653 13.4265 32.4802 13.4221C45.0848 13.4187 47.7768 13.4599 48.2644 13.6634ZM97.2485 13.6956C98.4604 14.2706 98.3894 12.8879 98.3894 35.9397C98.3894 58.3452 98.4218 57.5442 97.4882 58.1978C97.1166 58.458 95.6051 58.4849 81.3407 58.4849H65.603L65.0882 57.9704L64.5734 57.4558V36.0921C64.5734 16.6391 64.5991 14.692 64.8601 14.3193C65.4956 13.4127 65.1331 13.4323 81.4548 13.4249C94.9488 13.4187 96.7289 13.4493 97.2485 13.6956ZM16.2106 47.4659C14.5218 47.8756 12.9513 49.2422 12.3357 50.8375C12.012 51.6763 12 52.4916 12 73.7126V95.718L12.6018 96.8272C13.2702 98.0594 13.8187 98.59 15.1514 99.2925L16.0509 99.767H32.5186H48.9863L49.9145 99.3476C51.1215 98.8024 52.4605 97.3481 52.8903 96.1162C53.1968 95.237 53.2133 94.0808 53.2133 73.4486V51.7073L52.7571 50.7391C51.9001 48.9204 50.7717 47.9544 48.9491 47.48C48.0941 47.2573 45.6376 47.2205 32.5256 47.2332C20.9266 47.2444 16.8854 47.302 16.2106 47.4659ZM48.9118 51.6057L49.4266 52.1203V73.484C49.4266 92.9497 49.4011 94.8839 49.1394 95.2573C48.4954 96.1762 48.8308 96.1581 32.5068 96.1581C19.0572 96.1581 17.2705 96.1266 16.7515 95.8805C15.5396 95.3055 15.6106 96.6882 15.6106 73.6364C15.6106 51.2309 15.5782 52.0319 16.5118 51.3783C16.8834 51.1181 18.3949 51.0912 32.6593 51.0912H48.397L48.9118 51.6057ZM65.0893 69.99C63.2894 70.4803 62.0669 71.5236 61.2429 73.2725L60.7867 74.2408L60.7321 84.1872C60.6741 94.7617 60.7263 95.6382 61.4926 96.9605C62.0779 97.9701 63.3 99.0385 64.3196 99.4314C65.153 99.7529 65.8816 99.767 81.5695 99.767H97.9491L98.8486 99.2925C100.181 98.59 100.73 98.0594 101.398 96.8272L102 95.718V84.8914V74.0647L101.58 73.137C101.065 71.9978 99.6073 70.6189 98.4398 70.1668C97.6439 69.8587 96.712 69.8386 81.7456 69.8057C69.5528 69.7788 65.7085 69.8214 65.0893 69.99ZM97.4882 73.9118C98.3785 74.5349 98.3894 74.6682 98.3894 84.9032C98.3894 93.2164 98.354 94.5072 98.1117 95.0177C97.5453 96.2107 98.3121 96.1581 81.4932 96.1581C65.1692 96.1581 65.5046 96.1762 64.8606 95.2573C64.6032 94.8899 64.5734 93.8004 64.5734 84.7507V74.6538L65.0882 74.1392L65.603 73.6246H81.3407C95.6051 73.6246 97.1166 73.6516 97.4882 73.9118Z"/>
</mask>
<path fill-rule="evenodd" clip-rule="evenodd" d="M16.227 9.88306C14.6421 10.2718 13.1894 11.4578 12.4361 12.9779L12 13.8581V24.6847V35.5114L12.4195 36.4391C12.9345 37.5783 14.3928 38.9572 15.5602 39.4091C16.3549 39.7169 17.3056 39.7383 32.1441 39.7845C45.6718 39.8267 48.0303 39.7964 48.9164 39.5695C50.7618 39.097 51.895 38.1335 52.7571 36.3036L53.2133 35.3353V24.8608C53.2133 15.1559 53.1895 14.3181 52.8903 13.4599C52.4605 12.228 51.1215 10.7737 49.9145 10.2285L48.9863 9.80913L32.8708 9.78131C24.0073 9.766 16.5176 9.81177 16.227 9.88306ZM64.8376 9.9651C64.4501 10.0889 63.8913 10.3161 63.5955 10.4702C62.9661 10.7983 61.7226 12.1023 61.3471 12.8279C60.7025 14.0738 60.68 14.9547 60.7339 36.6556L60.7867 57.8688L61.2448 58.8451C61.8986 60.2383 62.6721 61.0346 64.0122 61.694L65.1824 62.2699H81.3016C96.4808 62.2699 97.4748 62.251 98.3475 61.947C99.58 61.5175 101.035 60.179 101.58 58.9726L102 58.0448V35.9515V13.8581L101.398 12.7489C100.73 11.5167 100.181 10.9861 98.8486 10.2836L97.9491 9.80913L81.7456 9.77462C69.0012 9.74751 65.3917 9.78818 64.8376 9.9651ZM48.2644 13.6634C49.4833 14.1725 49.4266 13.6277 49.4266 24.8254V34.9223L48.9118 35.4369L48.397 35.9515H32.6593C18.3949 35.9515 16.8834 35.9245 16.5118 35.6644C15.6215 35.0412 15.6106 34.9079 15.6106 24.6729C15.6106 16.3757 15.6463 15.0682 15.8873 14.5609C16.4517 13.3717 15.653 13.4265 32.4802 13.4221C45.0848 13.4187 47.7768 13.4599 48.2644 13.6634ZM97.2485 13.6956C98.4604 14.2706 98.3894 12.8879 98.3894 35.9397C98.3894 58.3452 98.4218 57.5442 97.4882 58.1978C97.1166 58.458 95.6051 58.4849 81.3407 58.4849H65.603L65.0882 57.9704L64.5734 57.4558V36.0921C64.5734 16.6391 64.5991 14.692 64.8601 14.3193C65.4956 13.4127 65.1331 13.4323 81.4548 13.4249C94.9488 13.4187 96.7289 13.4493 97.2485 13.6956ZM16.2106 47.4659C14.5218 47.8756 12.9513 49.2422 12.3357 50.8375C12.012 51.6763 12 52.4916 12 73.7126V95.718L12.6018 96.8272C13.2702 98.0594 13.8187 98.59 15.1514 99.2925L16.0509 99.767H32.5186H48.9863L49.9145 99.3476C51.1215 98.8024 52.4605 97.3481 52.8903 96.1162C53.1968 95.237 53.2133 94.0808 53.2133 73.4486V51.7073L52.7571 50.7391C51.9001 48.9204 50.7717 47.9544 48.9491 47.48C48.0941 47.2573 45.6376 47.2205 32.5256 47.2332C20.9266 47.2444 16.8854 47.302 16.2106 47.4659ZM48.9118 51.6057L49.4266 52.1203V73.484C49.4266 92.9497 49.4011 94.8839 49.1394 95.2573C48.4954 96.1762 48.8308 96.1581 32.5068 96.1581C19.0572 96.1581 17.2705 96.1266 16.7515 95.8805C15.5396 95.3055 15.6106 96.6882 15.6106 73.6364C15.6106 51.2309 15.5782 52.0319 16.5118 51.3783C16.8834 51.1181 18.3949 51.0912 32.6593 51.0912H48.397L48.9118 51.6057ZM65.0893 69.99C63.2894 70.4803 62.0669 71.5236 61.2429 73.2725L60.7867 74.2408L60.7321 84.1872C60.6741 94.7617 60.7263 95.6382 61.4926 96.9605C62.0779 97.9701 63.3 99.0385 64.3196 99.4314C65.153 99.7529 65.8816 99.767 81.5695 99.767H97.9491L98.8486 99.2925C100.181 98.59 100.73 98.0594 101.398 96.8272L102 95.718V84.8914V74.0647L101.58 73.137C101.065 71.9978 99.6073 70.6189 98.4398 70.1668C97.6439 69.8587 96.712 69.8386 81.7456 69.8057C69.5528 69.7788 65.7085 69.8214 65.0893 69.99ZM97.4882 73.9118C98.3785 74.5349 98.3894 74.6682 98.3894 84.9032C98.3894 93.2164 98.354 94.5072 98.1117 95.0177C97.5453 96.2107 98.3121 96.1581 81.4932 96.1581C65.1692 96.1581 65.5046 96.1762 64.8606 95.2573C64.6032 94.8899 64.5734 93.8004 64.5734 84.7507V74.6538L65.0882 74.1392L65.603 73.6246H81.3407C95.6051 73.6246 97.1166 73.6516 97.4882 73.9118Z" fill="white"/>
<path fill-rule="evenodd" clip-rule="evenodd" d="M16.227 9.88306C14.6421 10.2718 13.1894 11.4578 12.4361 12.9779L12 13.8581V24.6847V35.5114L12.4195 36.4391C12.9345 37.5783 14.3928 38.9572 15.5602 39.4091C16.3549 39.7169 17.3056 39.7383 32.1441 39.7845C45.6718 39.8267 48.0303 39.7964 48.9164 39.5695C50.7618 39.097 51.895 38.1335 52.7571 36.3036L53.2133 35.3353V24.8608C53.2133 15.1559 53.1895 14.3181 52.8903 13.4599C52.4605 12.228 51.1215 10.7737 49.9145 10.2285L48.9863 9.80913L32.8708 9.78131C24.0073 9.766 16.5176 9.81177 16.227 9.88306ZM64.8376 9.9651C64.4501 10.0889 63.8913 10.3161 63.5955 10.4702C62.9661 10.7983 61.7226 12.1023 61.3471 12.8279C60.7025 14.0738 60.68 14.9547 60.7339 36.6556L60.7867 57.8688L61.2448 58.8451C61.8986 60.2383 62.6721 61.0346 64.0122 61.694L65.1824 62.2699H81.3016C96.4808 62.2699 97.4748 62.251 98.3475 61.947C99.58 61.5175 101.035 60.179 101.58 58.9726L102 58.0448V35.9515V13.8581L101.398 12.7489C100.73 11.5167 100.181 10.9861 98.8486 10.2836L97.9491 9.80913L81.7456 9.77462C69.0012 9.74751 65.3917 9.78818 64.8376 9.9651ZM48.2644 13.6634C49.4833 14.1725 49.4266 13.6277 49.4266 24.8254V34.9223L48.9118 35.4369L48.397 35.9515H32.6593C18.3949 35.9515 16.8834 35.9245 16.5118 35.6644C15.6215 35.0412 15.6106 34.9079 15.6106 24.6729C15.6106 16.3757 15.6463 15.0682 15.8873 14.5609C16.4517 13.3717 15.653 13.4265 32.4802 13.4221C45.0848 13.4187 47.7768 13.4599 48.2644 13.6634ZM97.2485 13.6956C98.4604 14.2706 98.3894 12.8879 98.3894 35.9397C98.3894 58.3452 98.4218 57.5442 97.4882 58.1978C97.1166 58.458 95.6051 58.4849 81.3407 58.4849H65.603L65.0882 57.9704L64.5734 57.4558V36.0921C64.5734 16.6391 64.5991 14.692 64.8601 14.3193C65.4956 13.4127 65.1331 13.4323 81.4548 13.4249C94.9488 13.4187 96.7289 13.4493 97.2485 13.6956ZM16.2106 47.4659C14.5218 47.8756 12.9513 49.2422 12.3357 50.8375C12.012 51.6763 12 52.4916 12 73.7126V95.718L12.6018 96.8272C13.2702 98.0594 13.8187 98.59 15.1514 99.2925L16.0509 99.767H32.5186H48.9863L49.9145 99.3476C51.1215 98.8024 52.4605 97.3481 52.8903 96.1162C53.1968 95.237 53.2133 94.0808 53.2133 73.4486V51.7073L52.7571 50.7391C51.9001 48.9204 50.7717 47.9544 48.9491 47.48C48.0941 47.2573 45.6376 47.2205 32.5256 47.2332C20.9266 47.2444 16.8854 47.302 16.2106 47.4659ZM48.9118 51.6057L49.4266 52.1203V73.484C49.4266 92.9497 49.4011 94.8839 49.1394 95.2573C48.4954 96.1762 48.8308 96.1581 32.5068 96.1581C19.0572 96.1581 17.2705 96.1266 16.7515 95.8805C15.5396 95.3055 15.6106 96.6882 15.6106 73.6364C15.6106 51.2309 15.5782 52.0319 16.5118 51.3783C16.8834 51.1181 18.3949 51.0912 32.6593 51.0912H48.397L48.9118 51.6057ZM65.0893 69.99C63.2894 70.4803 62.0669 71.5236 61.2429 73.2725L60.7867 74.2408L60.7321 84.1872C60.6741 94.7617 60.7263 95.6382 61.4926 96.9605C62.0779 97.9701 63.3 99.0385 64.3196 99.4314C65.153 99.7529 65.8816 99.767 81.5695 99.767H97.9491L98.8486 99.2925C100.181 98.59 100.73 98.0594 101.398 96.8272L102 95.718V84.8914V74.0647L101.58 73.137C101.065 71.9978 99.6073 70.6189 98.4398 70.1668C97.6439 69.8587 96.712 69.8386 81.7456 69.8057C69.5528 69.7788 65.7085 69.8214 65.0893 69.99ZM97.4882 73.9118C98.3785 74.5349 98.3894 74.6682 98.3894 84.9032C98.3894 93.2164 98.354 94.5072 98.1117 95.0177C97.5453 96.2107 98.3121 96.1581 81.4932 96.1581C65.1692 96.1581 65.5046 96.1762 64.8606 95.2573C64.6032 94.8899 64.5734 93.8004 64.5734 84.7507V74.6538L65.0882 74.1392L65.603 73.6246H81.3407C95.6051 73.6246 97.1166 73.6516 97.4882 73.9118Z" stroke="white" stroke-width="1.46491" mask="url(#path-2-outside-1_953_22)"/>
</svg>
