<svg width="24" height="20" viewBox="0 0 24 20" fill="none" xmlns="http://www.w3.org/2000/svg">
<path d="M13.5584 18.2999C13.381 18.3001 13.2099 18.2341 13.0788 18.1146C12.9476 17.9951 12.8659 17.8309 12.8497 17.6542C12.8335 17.4775 12.884 17.3012 12.9913 17.1598C13.0985 17.0185 13.2547 16.9224 13.4293 16.8905C15.0833 16.5848 16.5947 15.7536 17.7387 14.5204C18.8827 13.2872 19.5983 11.7178 19.7792 10.0455C19.9601 8.37313 19.5966 6.68704 18.7427 5.23776C17.8889 3.78847 16.5903 2.65333 15.0398 2.00101C13.4893 1.34868 11.7698 1.21398 10.1367 1.61692C8.50353 2.01986 7.04398 2.93894 5.97488 4.2376C4.90578 5.53625 4.28419 7.14517 4.20247 8.82528C4.12075 10.5054 4.58326 12.1671 5.52127 13.5633C5.57327 13.6408 5.60949 13.7278 5.62788 13.8193C5.64627 13.9108 5.64645 14.005 5.62843 14.0965C5.6104 14.1881 5.57452 14.2752 5.52283 14.3529C5.47114 14.4306 5.40466 14.4973 5.32717 14.5493C5.24969 14.6013 5.16272 14.6375 5.07123 14.6559C4.97975 14.6743 4.88553 14.6745 4.79397 14.6565C4.70242 14.6385 4.6153 14.6026 4.53761 14.5509C4.45992 14.4992 4.39317 14.4327 4.34118 14.3552C3.23684 12.7072 2.69341 10.7469 2.79157 8.76547C2.88974 6.78404 3.62427 4.88709 4.88611 3.35626C6.14794 1.82542 7.86981 0.742316 9.79607 0.267746C11.7223 -0.206825 13.7503 -0.047557 15.5788 0.721903C17.4074 1.49136 18.9391 2.82999 19.9464 4.53904C20.9538 6.2481 21.3832 8.23645 21.1709 10.2089C20.9585 12.1814 20.1157 14.0328 18.7677 15.4882C17.4196 16.9437 15.6381 17.9256 13.6876 18.2882C13.645 18.2959 13.6018 18.2998 13.5584 18.2999Z" fill="#FAC234"/>
<path d="M7.43158 16.8531C7.32662 16.8526 7.22307 16.8288 7.12837 16.7835C7.03368 16.7382 6.9502 16.6725 6.88393 16.5911C6.81766 16.5097 6.77024 16.4147 6.7451 16.3127C6.71996 16.2108 6.71771 16.1046 6.73851 16.0017L7.35407 12.9498C6.46263 11.8599 5.98451 10.4904 6.00399 9.08258C6.02347 7.67474 6.53929 6.31897 7.46055 5.25423C8.3818 4.18949 9.64935 3.48413 11.0398 3.26247C12.4302 3.04082 13.8542 3.31711 15.0609 4.04263C16.2675 4.76815 17.1793 5.89634 17.6356 7.22834C18.0918 8.56034 18.0632 10.0106 17.5548 11.3236C17.0464 12.6366 16.0908 13.728 14.8565 14.4054C13.6222 15.0828 12.1884 15.3027 10.8078 15.0264L7.7849 16.7588C7.67744 16.8206 7.55559 16.8532 7.43158 16.8531ZM11.9814 4.6032C11.0942 4.6034 10.2263 4.86238 9.48402 5.34841C8.74175 5.83444 8.15736 6.52642 7.80244 7.33957C7.44752 8.15273 7.33748 9.05175 7.48581 9.9265C7.63413 10.8012 8.03438 11.6137 8.63751 12.2644C8.71419 12.3471 8.77011 12.4467 8.80066 12.5552C8.83121 12.6637 8.83551 12.7779 8.8132 12.8884L8.43792 14.7467L10.3395 13.6577C10.499 13.5664 10.6877 13.5405 10.8659 13.5854C11.4925 13.7432 12.1456 13.7662 12.7817 13.6526C13.4178 13.539 14.0226 13.2915 14.5558 12.9266C15.0891 12.5616 15.5387 12.0875 15.8748 11.5356C16.211 10.9837 16.426 10.3667 16.5056 9.7254C16.5853 9.08414 16.5277 8.43326 16.3368 7.81592C16.1458 7.19858 15.8259 6.62887 15.3981 6.14455C14.9703 5.66022 14.4445 5.27234 13.8554 5.00661C13.2664 4.74088 12.6276 4.60338 11.9814 4.6032Z" fill="#FAC234"/>
<path d="M9.57746 9.92359C10.0152 9.92359 10.37 9.56875 10.37 9.13104C10.37 8.69333 10.0152 8.3385 9.57746 8.3385C9.13975 8.3385 8.78491 8.69333 8.78491 9.13104C8.78491 9.56875 9.13975 9.92359 9.57746 9.92359Z" fill="#FAC234"/>
<path d="M12.0081 9.92359C12.4458 9.92359 12.8007 9.56875 12.8007 9.13104C12.8007 8.69333 12.4458 8.3385 12.0081 8.3385C11.5704 8.3385 11.2156 8.69333 11.2156 9.13104C11.2156 9.56875 11.5704 9.92359 12.0081 9.92359Z" fill="#FAC234"/>
<path d="M14.4395 9.92359C14.8772 9.92359 15.2321 9.56875 15.2321 9.13104C15.2321 8.69333 14.8772 8.3385 14.4395 8.3385C14.0018 8.3385 13.647 8.69333 13.647 9.13104C13.647 9.56875 14.0018 9.92359 14.4395 9.92359Z" fill="#FAC234"/>
<path d="M11.7512 20C11.3373 19.9999 10.9328 19.877 10.5887 19.6469C10.2447 19.4168 9.97666 19.0899 9.81849 18.7074C9.66032 18.325 9.61913 17.9042 9.70014 17.4984C9.78114 17.0925 9.98071 16.7198 10.2736 16.4274C10.5665 16.1349 10.9395 15.936 11.3455 15.8556C11.7515 15.7752 12.1722 15.817 12.5544 15.9758C12.9366 16.1346 13.2631 16.4031 13.4926 16.7475C13.7222 17.0919 13.8444 17.4966 13.8439 17.9105C13.8427 18.4648 13.6218 18.9961 13.2295 19.3878C12.8371 19.7795 12.3055 19.9997 11.7512 20ZM11.7512 17.2374C11.6185 17.2375 11.4889 17.277 11.3787 17.3507C11.2684 17.4244 11.1825 17.5292 11.1318 17.6517C11.081 17.7742 11.0677 17.909 11.0935 18.0391C11.1193 18.1692 11.1831 18.2887 11.2768 18.3826C11.3705 18.4765 11.4899 18.5405 11.6199 18.5665C11.75 18.5926 11.8848 18.5795 12.0074 18.529C12.1301 18.4785 12.235 18.3928 12.3089 18.2827C12.3829 18.1726 12.4225 18.0431 12.4229 17.9105C12.4226 17.7325 12.3516 17.562 12.2257 17.4363C12.0998 17.3106 11.9291 17.24 11.7512 17.24V17.2374Z" fill="#FAC234"/>
<path d="M3.99049 14.2261H2.99577C1.34416 14.2261 0 12.922 0 11.3194V8.1932C0 6.59067 1.34416 5.28656 2.99577 5.28656H3.99049C4.17893 5.28656 4.35965 5.36142 4.4929 5.49466C4.62614 5.62791 4.701 5.80863 4.701 5.99707C4.701 6.18551 4.62614 6.36623 4.4929 6.49948C4.35965 6.63272 4.17893 6.70758 3.99049 6.70758H2.99577C2.12766 6.70758 1.42102 7.37417 1.42102 8.1932V11.3194C1.42102 12.1385 2.12766 12.8051 2.99577 12.8051H3.99049C4.17893 12.8051 4.35965 12.8799 4.4929 13.0132C4.62614 13.1464 4.701 13.3271 4.701 13.5156C4.701 13.704 4.62614 13.8847 4.4929 14.018C4.35965 14.1512 4.17893 14.2261 3.99049 14.2261Z" fill="#FAC234"/>
<path d="M20.9489 14.2261H19.9542C19.7657 14.2261 19.585 14.1512 19.4518 14.018C19.3185 13.8847 19.2437 13.704 19.2437 13.5156C19.2437 13.3271 19.3185 13.1464 19.4518 13.0132C19.585 12.8799 19.7657 12.8051 19.9542 12.8051H20.9489C21.817 12.8051 22.5236 12.1385 22.5236 11.3194V8.1932C22.5236 7.37417 21.817 6.70758 20.9489 6.70758H19.9542C19.7657 6.70758 19.585 6.63272 19.4518 6.49948C19.3185 6.36623 19.2437 6.18551 19.2437 5.99707C19.2437 5.80863 19.3185 5.62791 19.4518 5.49466C19.585 5.36142 19.7657 5.28656 19.9542 5.28656H20.9489C22.6005 5.28656 23.9447 6.59067 23.9447 8.1932V11.3194C23.9414 12.922 22.5973 14.2261 20.9489 14.2261Z" fill="#FAC234"/>
</svg>
