<svg width="84" height="97" viewBox="0 0 84 97" fill="none" xmlns="http://www.w3.org/2000/svg">
<rect width="80" height="80" rx="4" fill="#436CFF"/>
<path fill-rule="evenodd" clip-rule="evenodd" d="M37.5712 7.3288C36.4197 7.95583 36.2243 8.70437 36.2243 12.486V15.9226L37.019 16.7202C37.6612 17.3648 37.9952 17.5177 38.7608 17.5177C39.9558 17.5177 40.778 17.1454 41.3022 16.3673C41.8863 15.4999 42.0424 10.0288 41.5189 8.77122C40.874 7.22206 39.0144 6.54272 37.5712 7.3288ZM63.747 23.267C61.8943 24.3142 62.0128 27.2673 63.9442 28.1873C64.948 28.6654 65.6375 28.6339 66.5625 28.0677C68.8358 26.6766 68.0452 23.2464 65.3944 22.9994C64.7613 22.9402 64.149 23.0397 63.747 23.267ZM34.4598 25.6015C28.6144 26.6675 23.7329 29.2811 19.5513 33.5836C14.2206 39.0687 11.3289 47.3599 12.1328 54.854C13.6552 69.0474 25.0062 79.4465 38.9765 79.4465C46.4289 79.4465 52.87 76.7986 58.0897 71.5895C72.5009 57.207 66.6193 32.8043 47.2088 26.4446C43.6889 25.2914 38.1646 24.9262 34.4598 25.6015ZM39.2804 30.7982L40.1161 30.9368L38.2188 32.8481C30.4351 40.6894 28.234 52.6299 32.6951 62.8151C34.3355 66.5606 37.5299 70.8114 40.1687 72.761C40.6927 73.1481 41.1236 73.5595 41.1267 73.6752C41.1363 74.0341 35.7572 73.6435 33.8688 73.1481C27.1785 71.3929 21.6031 66.5013 19.0886 60.1808C15.6906 51.6391 18.1453 41.7835 25.1705 35.7635C29.0669 32.4243 35.4809 30.1671 39.2804 30.7982ZM48.9126 33.2676C58.61 38.2167 63.1634 50.6484 58.9332 60.6263C57.0941 64.9636 53.3092 69.2053 49.5791 71.1086C48.5681 71.6245 48.1373 71.499 45.9131 70.0418C34.1305 62.3216 32.6228 46.0066 42.8043 36.4013C44.3578 34.9359 47.3731 32.7653 47.8555 32.7653C47.8957 32.7653 48.3713 32.9912 48.9126 33.2676ZM74.9037 49.4096C73.8763 49.8361 73.2677 50.8056 73.2677 52.0151C73.2677 53.0003 73.3769 53.2743 74.031 53.9316L74.7945 54.6985L78.2381 54.773C81.5283 54.8444 81.7183 54.8232 82.4996 54.2964C83.6543 53.5176 84.093 52.2007 83.5945 51.009C82.9485 49.465 82.1644 49.1854 78.5262 49.2016C76.7909 49.2093 75.1608 49.3029 74.9037 49.4096ZM63.9073 75.8225C61.956 76.7892 61.9182 79.7587 63.8444 80.7585C66.0892 81.9237 68.6624 79.5931 67.6955 77.2706C67.2982 76.3163 66.1142 75.458 65.2046 75.465C64.8833 75.4673 64.2995 75.6283 63.9073 75.8225ZM37.019 87.2814L36.2243 88.079V91.5156C36.2243 95.3329 36.4211 96.0624 37.6189 96.6841C39.0864 97.4457 40.874 96.7795 41.5189 95.2304C42.0424 93.9728 41.8863 88.5017 41.3022 87.6342C40.778 86.8561 39.9558 86.4839 38.7608 86.4839C37.9952 86.4839 37.6612 86.6368 37.019 87.2814Z" fill="white"/>
</svg>
