<svg width="21" height="20" viewBox="0 0 21 20" fill="none" xmlns="http://www.w3.org/2000/svg">
<path d="M11.2021 4.90813V9.56362C11.2021 9.78355 11.1147 9.99448 10.9592 10.15C10.8037 10.3055 10.5928 10.3929 10.3728 10.3929C10.1529 10.3929 9.94198 10.3055 9.78647 10.15C9.63095 9.99448 9.54358 9.78355 9.54358 9.56362V4.90813C9.54387 4.68833 9.63136 4.47763 9.78683 4.32227C9.9423 4.1669 10.1531 4.07956 10.3728 4.07942C10.4517 4.07904 10.5303 4.09012 10.606 4.11232C10.7778 4.16311 10.9286 4.26799 11.036 4.41137C11.1434 4.55476 11.2017 4.72897 11.2021 4.90813Z" fill="#FF2121"/>
<path d="M11.202 11.9717C11.2019 12.0252 11.1969 12.0786 11.1869 12.1312C11.1753 12.1851 11.1591 12.2379 11.1384 12.289C11.1175 12.3387 11.0919 12.3864 11.062 12.4312C11.0325 12.4759 10.9987 12.5175 10.9611 12.5556C10.9229 12.5943 10.8807 12.6287 10.835 12.6582C10.7898 12.688 10.742 12.7138 10.6923 12.7352C10.6404 12.7555 10.5868 12.7714 10.5322 12.7826C10.4804 12.7937 10.4274 12.7991 10.3744 12.7987C10.1542 12.798 9.9432 12.7104 9.78716 12.555C9.74962 12.5178 9.71598 12.4769 9.68678 12.4329C9.65651 12.3868 9.63038 12.3381 9.6087 12.2873C9.58856 12.2367 9.57253 12.1844 9.56074 12.1312C9.5403 12.0253 9.5403 11.9164 9.56074 11.8105C9.5826 11.7027 9.62501 11.6001 9.68566 11.5083C9.71554 11.4631 9.74992 11.421 9.78827 11.3828C9.82584 11.3455 9.86672 11.3117 9.91041 11.2818C9.95733 11.252 10.0066 11.2258 10.0576 11.2038C10.1079 11.1835 10.1597 11.1677 10.2127 11.1564C10.2661 11.1456 10.3205 11.1401 10.375 11.1402C10.4277 11.1402 10.4804 11.1452 10.5322 11.1553C10.587 11.167 10.6407 11.1832 10.6928 11.2038C10.743 11.2252 10.7912 11.2512 10.8367 11.2813C10.881 11.3104 10.9223 11.3438 10.96 11.3811C11.0365 11.4595 11.0978 11.5514 11.1406 11.6521C11.1609 11.7026 11.177 11.7546 11.1886 11.8077C11.1983 11.8618 11.2028 11.9167 11.202 11.9717Z" fill="#FF2121"/>
<path d="M15.7918 0H4.95385C3.63996 0.000147894 2.37993 0.522194 1.45092 1.45131C0.521904 2.38043 -8.32364e-09 3.64052 0 4.95441V11.516C0.000147894 12.8298 0.522135 14.0897 1.45115 15.0186C2.38016 15.9475 3.64011 16.4693 4.95385 16.4693H7.48794L9.85807 19.7373C9.91699 19.8187 9.99436 19.8849 10.0838 19.9306C10.1733 19.9763 10.2724 20 10.3728 20H10.3789C10.4804 19.9988 10.5802 19.9735 10.6699 19.9261C10.7596 19.8786 10.8367 19.8105 10.8948 19.7273L13.1673 16.4693H15.7918C17.1054 16.4693 18.3653 15.9476 19.2943 15.0188C20.2233 14.09 20.7453 12.8303 20.7456 11.5166V4.95385C20.7455 3.64005 20.2235 2.38011 19.2945 1.45111C18.3655 0.522117 17.1056 0.000147875 15.7918 0ZM19.5187 11.516C19.5186 12.5044 19.1259 13.4522 18.4269 14.151C17.728 14.8499 16.7801 15.2425 15.7918 15.2425H12.9409C12.7959 15.2426 12.653 15.2777 12.5244 15.3449C12.3959 15.4121 12.2854 15.5093 12.2025 15.6284L11.6159 16.4693L10.3628 18.2662L9.05948 16.4693L8.43934 15.6144C8.35594 15.4992 8.24639 15.4054 8.11967 15.3407C7.99296 15.276 7.85271 15.2424 7.71045 15.2425H4.95385C3.9655 15.2425 3.01761 14.8499 2.31869 14.151C1.61977 13.4522 1.22704 12.5044 1.22689 11.516V4.95385C1.22704 3.96545 1.61975 3.01756 2.31866 2.31866C3.01756 1.61975 3.96545 1.22704 4.95385 1.22689H15.7918C16.7802 1.22704 17.7281 1.61975 18.427 2.31866C19.1259 3.01756 19.5186 3.96545 19.5187 4.95385V11.516Z" fill="#FF2121"/>
</svg>
