<svg width="98" height="130" viewBox="0 0 98 130" fill="none" xmlns="http://www.w3.org/2000/svg">
<path d="M85.5278 40.6085H12.4325C5.70423 40.6085 0.25 46.0627 0.25 52.791V109.643C0.25 116.371 5.70423 121.825 12.4325 121.825H16.4934V125.886C16.4934 128.13 18.3106 129.947 20.5542 129.947H28.6759C30.9196 129.947 32.7368 128.13 32.7368 125.886V121.825H65.2236V125.886C65.2236 128.13 67.0408 129.947 69.2844 129.947H77.4061C79.6497 129.947 81.467 128.13 81.467 125.886V121.825H85.5278C92.2561 121.825 97.7103 116.371 97.7103 109.643V52.791C97.7103 46.0627 92.2561 40.6085 85.5278 40.6085ZM81.467 95.4299C81.467 96.5517 80.5583 97.4603 79.4365 97.4603H18.5238C17.402 97.4603 16.4934 96.5517 16.4934 95.4299V91.3691C16.4934 90.2473 17.402 89.3387 18.5238 89.3387H79.4365C80.5583 89.3387 81.467 90.2473 81.467 91.3691V95.4299ZM81.467 71.0648C81.467 72.1866 80.5583 73.0953 79.4365 73.0953H18.5238C17.402 73.0953 16.4934 72.1866 16.4934 71.0648V67.004C16.4934 65.8822 17.402 64.9736 18.5238 64.9736H79.4365C80.5583 64.9736 81.467 65.8822 81.467 67.004V71.0648ZM36.7976 12.1825H61.1627V32.4868H73.3453V12.1825C73.3453 5.45423 67.891 0 61.1627 0H36.7976C30.0693 0 24.6151 5.45423 24.6151 12.1825V32.4868H36.7976V12.1825Z" fill="#344767" fill-opacity="0.26"/>
</svg>
