<svg width="25" height="25" viewBox="0 0 25 25" fill="none" xmlns="http://www.w3.org/2000/svg">
<path d="M19.1939 5.66406V0H7.98299C7.37866 0 6.79907 0.240071 6.37175 0.6674C5.94442 1.09473 5.70435 1.67431 5.70435 2.27865V11.5397C6.69432 11.4173 7.69909 11.5122 8.64863 11.8178C9.59818 12.1234 10.4697 12.6324 11.2024 13.3092H20.7499C20.9499 13.3092 21.1416 13.3887 21.283 13.5301C21.4244 13.6714 21.5038 13.8632 21.5038 14.0632C21.5038 14.2631 21.4244 14.4549 21.283 14.5962C21.1416 14.7376 20.9499 14.8171 20.7499 14.8171H12.4355C12.9673 15.6953 13.2938 16.6823 13.3905 17.7044H20.7473C20.8482 17.7015 20.9487 17.7188 21.0428 17.7553C21.1369 17.7919 21.2227 17.847 21.2951 17.9173C21.3676 17.9877 21.4251 18.0718 21.4645 18.1648C21.5038 18.2578 21.524 18.3577 21.524 18.4587C21.524 18.5596 21.5038 18.6595 21.4645 18.7525C21.4251 18.8455 21.3676 18.9297 21.2951 19C21.2227 19.0703 21.1369 19.1254 21.0428 19.162C20.9487 19.1985 20.8482 19.2159 20.7473 19.2129H13.3697C13.1986 20.5675 12.629 21.8407 11.7331 22.871C10.8372 23.9014 9.65549 24.6424 8.33781 25H22.5663C23.1707 25 23.7502 24.7599 24.1776 24.3326C24.6049 23.9053 24.845 23.3257 24.845 22.7214V5.66406H19.1939ZM21.2831 10.2012C21.2131 10.2712 21.13 10.3267 21.0385 10.3646C20.947 10.4025 20.8489 10.4219 20.7499 10.4219H9.78833C9.58838 10.4219 9.39662 10.3424 9.25524 10.2011C9.11385 10.0597 9.03442 9.86792 9.03442 9.66797C9.03442 9.46802 9.11385 9.27626 9.25524 9.13488C9.39662 8.99349 9.58838 8.91406 9.78833 8.91406H20.7499C20.8991 8.91402 21.0449 8.95821 21.1689 9.04105C21.2929 9.12389 21.3896 9.24165 21.4466 9.37943C21.5037 9.51722 21.5187 9.66884 21.4895 9.81511C21.4604 9.96138 21.3886 10.0957 21.2831 10.2012ZM19.5194 0.0130209V5.33854H24.845L19.5194 0.0130209Z" fill="white"/>
<path d="M24.8451 5.33854H19.5195V0L24.4707 4.96419L24.8451 5.33854Z" fill="#009600"/>
<path d="M24.8451 5.33854H19.5195V0L24.4707 4.96419L24.8451 5.33854Z" fill="white"/>
<path d="M13.0644 17.7044C12.8963 16.0414 12.0986 14.5057 10.8349 13.4117C9.57113 12.3178 7.93692 11.7485 6.26701 11.8204C4.5971 11.8923 3.0179 12.6001 1.85288 13.7986C0.687868 14.9971 0.0252303 16.5958 0.000705753 18.2671C-0.0238188 19.9384 0.591626 21.5558 1.72097 22.788C2.85031 24.0202 4.40807 24.7739 6.07515 24.8948C7.74224 25.0157 9.39245 24.4946 10.6878 23.4382C11.9831 22.3819 12.8254 20.8702 13.0423 19.2128C13.0787 18.9309 13.0969 18.6469 13.097 18.3626C13.097 18.1404 13.0861 17.921 13.0644 17.7044ZM10.0592 17.0026L5.85024 21.2109C5.789 21.2722 5.71628 21.3208 5.63624 21.3539C5.5562 21.3871 5.47041 21.4042 5.38377 21.4042C5.29713 21.4042 5.21134 21.3871 5.13131 21.3539C5.05127 21.3208 4.97855 21.2722 4.9173 21.2109L3.03579 19.33C2.91749 19.2051 2.85261 19.039 2.85497 18.867C2.85733 18.695 2.92674 18.5307 3.04842 18.4091C3.17011 18.2875 3.33445 18.2182 3.50647 18.2159C3.67848 18.2137 3.84458 18.2787 3.96939 18.3971L5.38345 19.8112L9.12564 16.069C9.24962 15.946 9.41725 15.8772 9.59186 15.8776C9.76647 15.8779 9.93382 15.9474 10.0573 16.0709C10.1807 16.1944 10.2503 16.3617 10.2506 16.5363C10.251 16.7109 10.1822 16.8786 10.0592 17.0026Z" fill="white"/>
</svg>
