<svg width="22" height="22" viewBox="0 0 22 22" fill="none" xmlns="http://www.w3.org/2000/svg">
<path d="M15.5889 14.1281L14.9572 14.9361H15.9828H16.6831C16.8273 14.9361 16.9617 14.9921 17.06 15.0904L21.3417 19.3721C21.3419 19.3723 21.3422 19.3726 21.3424 19.3728C21.5482 19.5816 21.5479 19.919 21.3393 20.1277L20.1234 21.3435L20.1215 21.3454C19.9186 21.5505 19.5836 21.5532 19.374 21.3435L15.0904 17.06C14.9921 16.9617 14.9361 16.8273 14.9361 16.6831V15.9828V14.9572L14.1281 15.5889C12.6965 16.7083 10.8966 17.3733 8.93663 17.3733C4.27614 17.3733 0.5 13.5971 0.5 8.93663C0.5 4.27614 4.27614 0.5 8.93663 0.5C13.5971 0.5 17.3733 4.27614 17.3733 8.93663C17.3733 10.8966 16.7083 12.6965 15.5889 14.1281ZM2.93716 8.93663C2.93716 12.2549 5.62315 14.9361 8.93663 14.9361C12.2549 14.9361 14.9361 12.2501 14.9361 8.93663C14.9361 5.61834 12.2501 2.93716 8.93663 2.93716C5.61834 2.93716 2.93716 5.62315 2.93716 8.93663Z" fill="#344767" stroke="white"/>
</svg>
