<svg width="25" height="40" viewBox="0 0 25 40" fill="none" xmlns="http://www.w3.org/2000/svg">
<path fill-rule="evenodd" clip-rule="evenodd" d="M12.4542 2.27191C9.75367 2.27191 7.16377 3.34468 5.25422 5.25422C3.34468 7.16377 2.27191 9.75367 2.27191 12.4542C2.27191 13.7419 2.87626 15.583 3.92584 17.7396C4.95575 19.8559 6.33999 22.1298 7.74072 24.2344C9.13879 26.335 10.539 28.2457 11.5908 29.6324C11.9157 30.0607 12.2069 30.4386 12.4542 30.756C12.7014 30.4386 12.9927 30.0607 13.3176 29.6324C14.3694 28.2457 15.7696 26.335 17.1676 24.2344C18.5684 22.1298 19.9526 19.8559 20.9825 17.7396C22.0321 15.583 22.6364 13.7419 22.6364 12.4542C22.6364 9.75367 21.5637 7.16377 19.6541 5.25422C17.7446 3.34468 15.1547 2.27191 12.4542 2.27191ZM12.4542 32.5853C11.5738 33.3032 11.5737 33.303 11.5735 33.3028L11.5643 33.2916L11.5388 33.2601C11.5165 33.2325 11.4838 33.1921 11.4415 33.1394C11.3568 33.0339 11.2333 32.8793 11.0765 32.6809C10.763 32.284 10.3163 31.7115 9.78064 31.0053C8.71026 29.5941 7.2809 27.644 5.84941 25.4932C4.42058 23.3464 2.97526 20.9782 1.88301 18.7338C0.810425 16.5299 0 14.2918 0 12.4542C9.84845e-08 9.15112 1.31213 5.98335 3.64774 3.64774C5.98336 1.31213 9.15112 0 12.4542 0C15.7572 0 18.925 1.31213 21.2606 3.64774C23.5962 5.98335 24.9084 9.15112 24.9084 12.4542C24.9084 14.2918 24.0979 16.5299 23.0253 18.7338C21.9331 20.9782 20.4878 23.3464 19.0589 25.4932C17.6275 27.644 16.1981 29.5941 15.1277 31.0053C14.5921 31.7115 14.1454 32.284 13.8319 32.6809C13.6751 32.8793 13.5516 33.0339 13.4669 33.1394C13.4245 33.1921 13.3918 33.2325 13.3696 33.2601C13.3584 33.2738 13.3499 33.2844 13.344 33.2916L13.3348 33.3028C13.3347 33.303 13.3345 33.3032 12.4542 32.5853ZM12.4542 32.5853L13.3345 33.3032C13.1188 33.5678 12.7955 33.7213 12.4542 33.7213C12.1128 33.7213 11.7895 33.5678 11.5738 33.3032L12.4542 32.5853Z" fill="#2152FF"/>
<path fill-rule="evenodd" clip-rule="evenodd" d="M12.4541 7.95165C9.96743 7.95165 7.95159 9.96749 7.95159 12.4542C7.95159 14.9408 9.96743 16.9567 12.4541 16.9567C14.9408 16.9567 16.9566 14.9408 16.9566 12.4542C16.9566 9.96749 14.9408 7.95165 12.4541 7.95165ZM5.67969 12.4542C5.67969 8.71275 8.7127 5.67975 12.4541 5.67975C16.1955 5.67975 19.2285 8.71275 19.2285 12.4542C19.2285 16.1956 16.1955 19.2286 12.4541 19.2286C8.71269 19.2286 5.67969 16.1956 5.67969 12.4542Z" fill="#2152FF"/>
<path fill-rule="evenodd" clip-rule="evenodd" d="M18.1914 28.7539C18.5428 28.2342 19.249 28.0978 19.7687 28.4492L23.6785 31.0928C23.9945 31.3065 24.1822 31.6646 24.178 32.0462C24.1739 32.4277 23.9785 32.7816 23.6579 32.9884L13.0698 39.8186C12.6949 40.0604 12.2132 40.0604 11.8383 39.8186L1.25016 32.9884C0.929549 32.7816 0.734177 32.4277 0.730047 32.0462C0.725918 31.6646 0.913582 31.3065 1.22964 31.0928L5.13938 28.4492C5.65909 28.0978 6.36528 28.2342 6.7167 28.7539C7.06811 29.2736 6.93168 29.9798 6.41197 30.3312L3.9269 32.0116L12.454 37.5122L20.9812 32.0116L18.4961 30.3312C17.9764 29.9798 17.84 29.2736 18.1914 28.7539Z" fill="#2152FF"/>
</svg>
