<svg width="242" height="100" viewBox="0 0 242 100" fill="none" xmlns="http://www.w3.org/2000/svg">
<mask id="mask0_170_180" style="mask-type:alpha" maskUnits="userSpaceOnUse" x="6" y="0" width="236" height="93">
<rect x="6" width="236" height="93" rx="9" fill="#F5F5F5"/>
<rect x="6.5" y="0.5" width="235" height="92" rx="8.5" stroke="#344767" stroke-opacity="0.04"/>
</mask>
<g mask="url(#mask0_170_180)">
<path d="M13 66.4424V66.5539C13 66.9374 12.8494 67.3053 12.5814 67.5765C12.3134 67.8476 11.9499 68 11.5709 68H4.41808C4.04097 67.9971 3.6803 67.8434 3.41467 67.5725C3.14904 67.3016 2.99999 66.9355 3 66.5539V66.4424C3 66.0598 3.15018 65.693 3.4175 65.4225C3.68482 65.152 4.04738 65 4.42542 65H11.5783C11.9554 65.002 12.3164 65.1547 12.5827 65.4249C12.849 65.695 12.999 66.0608 13 66.4424Z" fill="#4F8DE9"/>
<path d="M23.5907 38.5162L23.5154 38.5916C23.254 38.8531 22.8995 39 22.5298 39C22.1602 39 21.8056 38.8531 21.5442 38.5916L18.4081 35.4566C18.1468 35.1949 18 34.8401 18 34.4702C18 34.1002 18.1468 33.7454 18.4081 33.4838L18.4834 33.4084C18.7448 33.1469 19.0994 33 19.469 33C19.8387 33 20.1932 33.1469 20.4546 33.4084L23.5907 36.547C23.7204 36.676 23.8233 36.8294 23.8936 36.9984C23.9638 37.1674 24 37.3486 24 37.5316C24 37.7146 23.9638 37.8959 23.8936 38.0648C23.8233 38.2338 23.7204 38.3872 23.5907 38.5162Z" fill="#4F8DE9"/>
<path d="M53 19.4181V26.5709C53 26.9493 52.7975 27.3122 52.437 27.5801C52.0765 27.848 51.5873 27.999 51.0768 28H50.9281C50.4168 28 49.9263 27.8494 49.5647 27.5814C49.2031 27.3134 49 26.9499 49 26.5709V19.4181C49.0039 19.041 49.2088 18.6803 49.57 18.4147C49.9311 18.149 50.4193 18 50.9281 18H51.0768C51.5852 18 52.0728 18.1492 52.4332 18.4149C52.7936 18.6806 52.9974 19.0413 53 19.4181Z" fill="#4F8DE9"/>
<path d="M75 68.4231V68.5337C75 68.9151 74.8461 69.2808 74.5721 69.5505C74.2982 69.8202 73.9266 69.9716 73.5392 69.9716H55.7911C55.2506 70.6356 54.5588 71.1648 53.7717 71.5163C52.9846 71.8679 52.1244 72.0318 51.2608 71.9949C50.3973 71.958 49.5548 71.7212 48.8016 71.3039C48.0484 70.8865 47.4058 70.3003 46.9258 69.5927C46.4459 68.8851 46.1421 68.0761 46.0391 67.2314C45.9362 66.3867 46.037 65.5299 46.3333 64.7307C46.6297 63.9315 47.1132 63.2122 47.7447 62.6313C48.3763 62.0505 49.138 61.6243 49.9682 61.3874V34.4413C49.9677 34.2522 50.0052 34.0649 50.0784 33.89C50.1516 33.7152 50.2591 33.5562 50.3948 33.4224C50.5305 33.2885 50.6917 33.1823 50.8692 33.1098C51.0466 33.0373 51.2369 33 51.429 33H51.5414C51.7335 33 51.9237 33.0373 52.1012 33.1098C52.2787 33.1823 52.4399 33.2885 52.5756 33.4224C52.7113 33.5562 52.8188 33.7152 52.892 33.89C52.9652 34.0649 53.0027 34.2522 53.0022 34.4413V61.374C54.1534 61.6966 55.1666 62.3794 55.8885 63.3192C56.6104 64.259 57.0018 65.4047 57.0034 66.5829C57.0102 66.7169 57.0102 66.8511 57.0034 66.9851H73.563C73.9463 66.9913 74.3118 67.1455 74.5806 67.4145C74.8494 67.6835 75.0001 68.0457 75 68.4231Z" fill="#4F8DE9"/>
<path d="M83.623 35.2682L81.2688 37.6229C81.0272 37.8644 80.6997 38 80.3582 38C80.0167 38 79.6892 37.8644 79.4477 37.6229L79.3781 37.5533C79.2583 37.4342 79.1632 37.2926 79.0983 37.1366C79.0334 36.9805 79 36.8132 79 36.6442C79 36.4753 79.0334 36.3079 79.0983 36.1519C79.1632 35.9959 79.2583 35.8543 79.3781 35.7351L81.7323 33.3771C81.9739 33.1356 82.3014 33 82.6429 33C82.9844 33 83.3119 33.1356 83.5534 33.3771L83.623 33.4467C83.8644 33.6883 84 34.0158 84 34.3574C84 34.699 83.8644 35.0266 83.623 35.2682Z" fill="#4F8DE9"/>
<path d="M51.5 5C39.3365 5 27.4461 8.60691 17.3325 15.3646C7.21883 22.1223 -0.663775 31.7273 -5.31856 42.965C-9.97335 54.2026 -11.1913 66.5682 -8.81827 78.498C-6.44528 90.4279 -0.58797 101.386 8.01296 109.987C16.6139 118.588 27.5721 124.445 39.502 126.818C51.4318 129.191 63.7974 127.973 75.035 123.319C86.2727 118.664 95.8777 110.781 102.635 100.668C109.393 90.5539 113 78.6635 113 66.5C113 50.1892 106.521 34.5464 94.9871 23.0129C83.4536 11.4794 67.8108 5 51.5 5ZM51.5 116.691C41.5731 116.691 31.8692 113.748 23.6152 108.233C15.3613 102.717 8.92819 94.8786 5.12933 85.7074C1.33048 76.5361 0.336522 66.4443 2.27316 56.7082C4.2098 46.972 8.99006 38.0288 16.0094 31.0094C23.0288 23.99 31.972 19.2098 41.7082 17.2731C51.4443 15.3365 61.5361 16.3304 70.7074 20.1293C79.8786 23.9282 87.7175 30.3613 93.2325 38.6152C98.7476 46.8691 101.691 56.5731 101.691 66.5C101.692 73.0913 100.394 79.6182 97.8716 85.7079C95.3494 91.7976 91.6524 97.3308 86.9916 101.992C82.3308 106.652 76.7976 110.349 70.7079 112.872C64.6182 115.394 58.0914 116.692 51.5 116.691Z" fill="#4F8DE9"/>
<path d="M100 65.9281V66.0768C100 66.5869 99.8498 67.076 99.5825 67.4367C99.3152 67.7974 98.9526 68 98.5746 68H91.4291C91.0507 68 90.6878 67.7975 90.4199 67.437C90.152 67.0765 90.001 66.5873 90 66.0768V65.9281C90 65.4168 90.1506 64.9263 90.4186 64.5647C90.6866 64.2031 91.0501 64 91.4291 64H98.5819C98.959 64.0039 99.3197 64.2088 99.5853 64.57C99.851 64.9311 100 65.4193 100 65.9281Z" fill="#4F8DE9"/>
<path d="M13 66.4424V66.5539C13 66.9374 12.8494 67.3053 12.5814 67.5765C12.3134 67.8476 11.9499 68 11.5709 68H4.41808C4.04097 67.9971 3.6803 67.8434 3.41467 67.5725C3.14904 67.3016 2.99999 66.9355 3 66.5539V66.4424C3 66.0598 3.15018 65.693 3.4175 65.4225C3.68482 65.152 4.04738 65 4.42542 65H11.5783C11.9554 65.002 12.3164 65.1547 12.5827 65.4249C12.849 65.695 12.999 66.0608 13 66.4424Z" fill="white"/>
<path d="M23.5907 38.5162L23.5154 38.5916C23.254 38.8531 22.8995 39 22.5298 39C22.1602 39 21.8056 38.8531 21.5442 38.5916L18.4081 35.4566C18.1468 35.1949 18 34.8401 18 34.4702C18 34.1002 18.1468 33.7454 18.4081 33.4838L18.4834 33.4084C18.7448 33.1469 19.0994 33 19.469 33C19.8387 33 20.1932 33.1469 20.4546 33.4084L23.5907 36.547C23.7204 36.676 23.8233 36.8294 23.8936 36.9984C23.9638 37.1674 24 37.3486 24 37.5316C24 37.7146 23.9638 37.8959 23.8936 38.0648C23.8233 38.2338 23.7204 38.3872 23.5907 38.5162Z" fill="white"/>
<path d="M53 19.4181V26.5709C53 26.9493 52.7975 27.3122 52.437 27.5801C52.0765 27.848 51.5873 27.999 51.0768 28H50.9281C50.4168 28 49.9263 27.8494 49.5647 27.5814C49.2031 27.3134 49 26.9499 49 26.5709V19.4181C49.0039 19.041 49.2088 18.6803 49.57 18.4147C49.9311 18.149 50.4193 18 50.9281 18H51.0768C51.5852 18 52.0728 18.1492 52.4332 18.4149C52.7936 18.6806 52.9974 19.0413 53 19.4181Z" fill="white"/>
<path d="M75 68.4231V68.5337C75 68.9151 74.8461 69.2808 74.5721 69.5505C74.2982 69.8202 73.9266 69.9716 73.5392 69.9716H55.7911C55.2506 70.6356 54.5588 71.1648 53.7717 71.5163C52.9846 71.8679 52.1244 72.0318 51.2608 71.9949C50.3973 71.958 49.5548 71.7212 48.8016 71.3039C48.0484 70.8865 47.4058 70.3003 46.9258 69.5927C46.4459 68.8851 46.1421 68.0761 46.0391 67.2314C45.9362 66.3867 46.037 65.5299 46.3333 64.7307C46.6297 63.9315 47.1132 63.2122 47.7447 62.6313C48.3763 62.0505 49.138 61.6243 49.9682 61.3874V34.4413C49.9677 34.2522 50.0052 34.0649 50.0784 33.89C50.1516 33.7152 50.2591 33.5562 50.3948 33.4224C50.5305 33.2885 50.6917 33.1823 50.8692 33.1098C51.0466 33.0373 51.2369 33 51.429 33H51.5414C51.7335 33 51.9237 33.0373 52.1012 33.1098C52.2787 33.1823 52.4399 33.2885 52.5756 33.4224C52.7113 33.5562 52.8188 33.7152 52.892 33.89C52.9652 34.0649 53.0027 34.2522 53.0022 34.4413V61.374C54.1534 61.6966 55.1666 62.3794 55.8885 63.3192C56.6104 64.259 57.0018 65.4047 57.0034 66.5829C57.0102 66.7169 57.0102 66.8511 57.0034 66.9851H73.563C73.9463 66.9913 74.3118 67.1455 74.5806 67.4145C74.8494 67.6835 75.0001 68.0457 75 68.4231Z" fill="white"/>
<path d="M83.623 35.2682L81.2688 37.6229C81.0272 37.8644 80.6997 38 80.3582 38C80.0167 38 79.6892 37.8644 79.4477 37.6229L79.3781 37.5533C79.2583 37.4342 79.1632 37.2926 79.0983 37.1366C79.0334 36.9805 79 36.8132 79 36.6442C79 36.4753 79.0334 36.3079 79.0983 36.1519C79.1632 35.9959 79.2583 35.8543 79.3781 35.7351L81.7323 33.3771C81.9739 33.1356 82.3014 33 82.6429 33C82.9844 33 83.3119 33.1356 83.5534 33.3771L83.623 33.4467C83.8644 33.6883 84 34.0158 84 34.3574C84 34.699 83.8644 35.0266 83.623 35.2682Z" fill="white"/>
<path d="M100 65.9281V66.0768C100 66.5869 99.8498 67.076 99.5825 67.4367C99.3152 67.7974 98.9526 68 98.5746 68H91.4291C91.0507 68 90.6878 67.7975 90.4199 67.437C90.152 67.0765 90.001 66.5873 90 66.0768V65.9281C90 65.4168 90.1506 64.9263 90.4186 64.5647C90.6866 64.2031 91.0501 64 91.4291 64H98.5819C98.959 64.0039 99.3197 64.2088 99.5853 64.57C99.851 64.9311 100 65.4193 100 65.9281Z" fill="white"/>
<path d="M53 19.4181V26.5709C53 26.9493 52.7975 27.3122 52.437 27.5801C52.0765 27.848 51.5873 27.999 51.0768 28H50.9281C50.4168 28 49.9263 27.8494 49.5647 27.5814C49.2031 27.3134 49 26.9499 49 26.5709V19.4181C49.0039 19.041 49.2088 18.6803 49.57 18.4147C49.9311 18.149 50.4193 18 50.9281 18H51.0768C51.5852 18 52.0728 18.1492 52.4332 18.4149C52.7936 18.6806 52.9974 19.0413 53 19.4181Z" fill="#4F8DE9"/>
<path d="M100 65.9281V66.0768C100 66.5869 99.8498 67.076 99.5825 67.4367C99.3152 67.7974 98.9526 68 98.5746 68H91.4291C91.0507 68 90.6878 67.7975 90.4199 67.437C90.152 67.0765 90.001 66.5873 90 66.0768V65.9281C90 65.4168 90.1506 64.9263 90.4186 64.5647C90.6866 64.2031 91.0501 64 91.4291 64H98.5819C98.959 64.0039 99.3197 64.2088 99.5853 64.57C99.851 64.9311 100 65.4193 100 65.9281Z" fill="#4F8DE9"/>
<path d="M13 66.4424V66.5539C13 66.9374 12.8494 67.3053 12.5814 67.5765C12.3134 67.8476 11.9499 68 11.5709 68H4.41808C4.04097 67.9971 3.6803 67.8434 3.41467 67.5725C3.14904 67.3016 2.99999 66.9355 3 66.5539V66.4424C3 66.0598 3.15018 65.693 3.4175 65.4225C3.68482 65.152 4.04738 65 4.42542 65H11.5783C11.9554 65.002 12.3164 65.1547 12.5827 65.4249C12.849 65.695 12.999 66.0608 13 66.4424Z" fill="#4F8DE9"/>
<path d="M83.623 35.2682L81.2688 37.6229C81.0272 37.8644 80.6997 38 80.3582 38C80.0167 38 79.6892 37.8644 79.4477 37.6229L79.3781 37.5533C79.2583 37.4342 79.1632 37.2926 79.0983 37.1366C79.0334 36.9805 79 36.8132 79 36.6442C79 36.4753 79.0334 36.3079 79.0983 36.1519C79.1632 35.9959 79.2583 35.8543 79.3781 35.7351L81.7323 33.3771C81.9739 33.1356 82.3014 33 82.6429 33C82.9844 33 83.3119 33.1356 83.5534 33.3771L83.623 33.4467C83.8644 33.6883 84 34.0158 84 34.3574C84 34.699 83.8644 35.0266 83.623 35.2682Z" fill="#4F8DE9"/>
<path d="M23.5907 38.5162L23.5154 38.5916C23.254 38.8531 22.8995 39 22.5298 39C22.1602 39 21.8056 38.8531 21.5442 38.5916L18.4081 35.4566C18.1468 35.1949 18 34.8401 18 34.4702C18 34.1002 18.1468 33.7454 18.4081 33.4838L18.4834 33.4084C18.7448 33.1469 19.0994 33 19.469 33C19.8387 33 20.1932 33.1469 20.4546 33.4084L23.5907 36.547C23.7204 36.676 23.8233 36.8294 23.8936 36.9984C23.9638 37.1674 24 37.3486 24 37.5316C24 37.7146 23.9638 37.8959 23.8936 38.0648C23.8233 38.2338 23.7204 38.3872 23.5907 38.5162Z" fill="#4F8DE9"/>
<path d="M52.9999 34.4683V66.5283C53.0023 66.7338 52.9475 66.9374 52.8389 67.1257C52.7304 67.3141 52.5706 67.4828 52.37 67.621C52.0178 67.8661 51.5567 68.0015 51.0787 68H50.9302C50.4183 68 49.9273 67.8457 49.5654 67.5709C49.2034 67.2962 49 66.9236 49 66.5351V34.4683C48.9994 34.2756 49.0489 34.0848 49.1456 33.9067C49.2424 33.7285 49.3845 33.5666 49.5638 33.4303C49.7431 33.2939 49.956 33.1857 50.1905 33.1118C50.425 33.038 50.6764 33 50.9302 33H51.0787C51.5899 33.0018 52.0792 33.1574 52.4394 33.4327C52.7995 33.7079 53.0011 34.0804 52.9999 34.4683Z" fill="#4F8DE9"/>
<path d="M75 68.4445V68.5556C75 68.9387 74.8403 69.3061 74.556 69.5769C74.2717 69.8478 73.8861 70 73.4841 70H50.5159C50.1139 70 49.7283 69.8478 49.444 69.5769C49.1597 69.3061 49 68.9387 49 68.5556V68.4445C48.9999 68.1884 49.0716 67.937 49.2077 67.7162C49.3437 67.4954 49.5392 67.3133 49.7739 67.1886C49.9994 67.0643 50.2554 66.9993 50.5159 67H73.4841C73.8861 67 74.2717 67.1522 74.556 67.4231C74.8403 67.694 75 68.0614 75 68.4445Z" fill="#4F8DE9"/>
<path d="M74 46L51 67" stroke="#4F8DE9" stroke-width="3" stroke-linecap="round" stroke-linejoin="round"/>
<path d="M56.9948 66.4984C57.0017 66.6345 57.0017 66.7709 56.9948 66.907C56.9207 67.9084 56.5735 68.8705 55.9907 69.6887C55.408 70.507 54.612 71.1502 53.6892 71.5487C52.7663 71.9471 51.7519 72.0855 50.7559 71.9489C49.7599 71.8122 48.8204 71.4058 48.0393 70.7736C47.2582 70.1414 46.6653 69.3077 46.325 68.3628C45.9847 67.4179 45.9099 66.398 46.1088 65.4137C46.3078 64.4294 46.7727 63.5182 47.4534 62.7792C48.134 62.0401 49.0042 61.5014 49.9697 61.2213C50.4685 61.0729 50.9865 60.9983 51.507 61C52.9635 61.0063 54.3582 61.5882 55.3865 62.6185C56.4148 63.6487 56.9931 65.0437 56.9948 66.4984Z" fill="#4F8DE9"/>
</g>
</svg>
