<svg width="20" height="17" viewBox="0 0 20 17" fill="none" xmlns="http://www.w3.org/2000/svg">
<path d="M3.5 0C2.84 0 2.28 0.42 2.08 1L0 7V15C0 15.2652 0.105357 15.5196 0.292893 15.7071C0.48043 15.8946 0.734784 16 1 16H2C2.26522 16 2.51957 15.8946 2.70711 15.7071C2.89464 15.5196 3 15.2652 3 15V14H8.3C8.10372 13.3514 8.00266 12.6777 8 12C8.00161 10.7905 8.31658 9.60209 8.91419 8.55056C9.51181 7.49903 10.3717 6.62029 11.41 6H2L3.5 1.5H14.5L15.68 5.03C16.293 5.09391 16.8949 5.23849 17.47 5.46L15.92 1C15.72 0.42 15.16 0 14.5 0H3.5ZM14 7C13.87 7 13.76 7.09 13.74 7.21L13.55 8.53C13.25 8.66 12.96 8.82 12.7 9L11.46 8.5C11.35 8.5 11.22 8.5 11.15 8.63L10.15 10.36C10.09 10.47 10.11 10.6 10.21 10.68L11.27 11.5C11.25 11.67 11.24 11.83 11.24 12C11.24 12.17 11.25 12.33 11.27 12.5L10.21 13.32C10.12 13.4 10.09 13.53 10.15 13.64L11.15 15.37C11.21 15.5 11.34 15.5 11.46 15.5L12.7 15C12.96 15.18 13.24 15.35 13.55 15.47L13.74 16.79C13.76 16.91 13.86 17 14 17H16C16.11 17 16.22 16.91 16.24 16.79L16.43 15.47C16.73 15.34 17 15.18 17.27 15L18.5 15.5C18.63 15.5 18.76 15.5 18.83 15.37L19.83 13.64C19.89 13.53 19.86 13.4 19.77 13.32L18.7 12.5C18.72 12.33 18.74 12.17 18.74 12C18.74 11.83 18.73 11.67 18.7 11.5L19.76 10.68C19.85 10.6 19.88 10.47 19.82 10.36L18.82 8.63C18.76 8.5 18.63 8.5 18.5 8.5L17.27 9C17 8.82 16.73 8.65 16.42 8.53L16.23 7.21C16.22 7.09 16.11 7 16 7H14ZM3.5 8C3.89782 8 4.27936 8.15804 4.56066 8.43934C4.84196 8.72064 5 9.10218 5 9.5C5 9.89782 4.84196 10.2794 4.56066 10.5607C4.27936 10.842 3.89782 11 3.5 11C3.10218 11 2.72064 10.842 2.43934 10.5607C2.15804 10.2794 2 9.89782 2 9.5C2 9.10218 2.15804 8.72064 2.43934 8.43934C2.72064 8.15804 3.10218 8 3.5 8ZM15 10.5C15.83 10.5 16.5 11.17 16.5 12C16.5 12.83 15.83 13.5 15 13.5C14.16 13.5 13.5 12.83 13.5 12C13.5 11.17 14.17 10.5 15 10.5Z" fill="white"/>
</svg>
