<svg width="20" height="20" viewBox="0 0 20 20" fill="none" xmlns="http://www.w3.org/2000/svg">
<path d="M11.05 17.2834L10 18.3334L8.75 17.0834L7.5 18.3334L6.25 17.0834L5 18.3334L3.75 17.0834L2.5 18.3334V1.66669L3.75 2.91669L5 1.66669L6.25 2.91669L7.5 1.66669L8.75 2.91669L10 1.66669L11.25 2.91669L12.5 1.66669L13.75 2.91669L15 1.66669L16.25 2.91669L17.5 1.66669V11.125C16.975 10.9417 16.4167 10.8334 15.8333 10.8334V4.16669H4.16667V15.8334H10.8333C10.8333 16.3084 10.9167 16.85 11.05 17.2834ZM5 12.5V14.1667H11.125C11.3417 13.5417 11.6667 12.9834 12.1167 12.5H5ZM5 10.8334H15V9.16669H5V10.8334ZM5 7.50002H15V5.83335H5V7.50002ZM19.1667 14.3584L18.2 13.1834L15.2083 16.175L13.8833 14.85L12.9167 15.8334L15.2083 18.3334" fill="white"/>
</svg>
