<svg width="40" height="30" viewBox="0 0 40 30" fill="none" xmlns="http://www.w3.org/2000/svg">
<path d="M35.8621 30L3.51865 29.8705L3.19749 29.3406C1.39633 26.3646 0.431412 22.9577 0.404436 19.4791C0.363288 14.3487 2.34643 9.48816 5.98352 5.79285C9.62061 2.09755 14.451 0.0401445 19.5815 0H19.733C24.8073 0 29.6086 1.97812 33.2677 5.58109C36.963 9.22019 39.0205 14.0496 39.0596 19.18C39.0912 22.8125 38.0973 26.3802 36.1923 29.4731L35.8621 30ZM4.77918 27.6676L34.6196 27.787C36.1079 25.1705 36.8786 22.2072 36.8536 19.1971C36.8185 14.6568 34.996 10.3794 31.7202 7.15375C28.4444 3.92814 24.1379 2.17081 19.6005 2.20694C15.0632 2.24308 10.7828 4.06564 7.55718 7.34043C4.33157 10.6152 2.57726 14.9207 2.61239 19.4621C2.63462 22.3357 3.37978 25.1576 4.77918 27.6676Z" fill="#2152FF"/>
<path d="M7.16235 22.5824C6.90724 22.5814 6.66035 22.492 6.46367 22.3296C6.26698 22.1671 6.13263 21.9415 6.08347 21.6912C5.38036 18.0316 6.15118 14.2424 8.22815 11.1484C10.3051 8.05436 13.5201 5.90593 17.1734 5.17071C19.574 4.69801 23.1519 5.11752 25.4964 6.14522C25.7645 6.26287 25.975 6.48223 26.0814 6.75505C26.1878 7.02786 26.1815 7.33178 26.0639 7.59996C25.9462 7.86813 25.7269 8.07858 25.4541 8.18501C25.1813 8.29145 24.8773 8.28515 24.6092 8.1675C22.6913 7.32647 19.5469 6.95313 17.5999 7.33651C14.5147 7.94702 11.7976 9.75643 10.0448 12.3678C8.29203 14.9791 7.64664 18.1791 8.25027 21.2657C8.30659 21.5528 8.24658 21.8507 8.08341 22.0936C7.92025 22.3366 7.66729 22.5048 7.38014 22.5613C7.30848 22.576 7.23548 22.583 7.16235 22.5824Z" fill="#2152FF"/>
<path d="M19.7328 26.2032C21.8019 26.2032 23.4793 24.5259 23.4793 22.4568C23.4793 20.3876 21.8019 18.7103 19.7328 18.7103C17.6637 18.7103 15.9863 20.3876 15.9863 22.4568C15.9863 24.5259 17.6637 26.2032 19.7328 26.2032Z" fill="#2152FF"/>
<path d="M19.8809 23.1714C19.6739 23.1713 19.471 23.113 19.2956 23.0032C19.1201 22.8933 18.979 22.7364 18.8885 22.5502C18.798 22.364 18.7616 22.1561 18.7836 21.9503C18.8056 21.7444 18.885 21.5489 19.0128 21.386L28.3694 9.44801C28.55 9.21751 28.8148 9.06818 29.1055 9.03289C29.3962 8.9976 29.689 9.07924 29.9195 9.25984C30.15 9.44044 30.2994 9.70521 30.3347 9.9959C30.3699 10.2866 30.2883 10.5794 30.1077 10.8099L20.751 22.7529C20.6472 22.884 20.5149 22.9898 20.3641 23.0623C20.2134 23.1348 20.0482 23.1721 19.8809 23.1714Z" fill="#2152FF"/>
</svg>
