<svg width="112" height="150" viewBox="0 0 112 150" fill="none" xmlns="http://www.w3.org/2000/svg">
<g filter="url(#filter0_i_871_30)">
<path fill-rule="evenodd" clip-rule="evenodd" d="M48.6835 0.0734291C34.4753 0.965708 21.2535 7.63169 12.1314 18.5018C2.61553 29.8412 -1.62545 44.8762 0.565657 59.5048C1.40048 65.0782 3.05326 70.2388 5.62444 75.2999C6.61758 77.2547 39.9913 135.172 41.0688 136.81C43.188 140.033 46.5747 142.083 50.4917 142.513C52.2697 142.709 54.0135 142.519 55.8519 141.929C59.114 140.883 61.8387 138.578 63.4104 135.533C63.8856 134.613 72.4064 119.786 72.544 119.64C72.6076 119.573 74.439 123.398 79.7897 134.775C83.7281 143.149 86.9717 150 86.9978 150C87.0239 150 89.1635 146.328 91.7525 141.84L96.4598 133.681L89.2979 118.46C85.3588 110.089 82.1246 103.201 82.1107 103.154C82.0967 103.106 83.235 101.07 84.6401 98.6291L87.1948 94.1914L87.4337 94.7082C88.6344 97.3048 101.519 124.631 101.564 124.678C101.618 124.733 110.95 108.669 111.013 108.414C111.027 108.357 107.806 101.442 103.856 93.047L96.6728 77.7828L97.2077 76.8085C98.9616 73.6142 100.372 70.3288 101.387 67.0725C104.719 56.3805 104.452 44.9958 100.621 34.4314C96.795 23.8815 89.7928 14.8902 80.6364 8.77002C71.9896 2.99036 61.8639 -0.0577259 51.5051 0.000828032C50.4985 0.0064773 49.2287 0.0391518 48.6835 0.0734291ZM54.3648 32.5855C57.4602 33.037 60.0297 34.0111 62.5247 35.6788C63.784 36.5205 64.3702 36.9973 65.4128 38.0278C70.389 42.9463 72.3079 49.92 70.5671 56.7598C70.2319 58.0772 69.8795 59.0176 69.1983 60.4133C65.7703 67.4367 58.3012 71.7779 50.5932 71.2272C47.8146 71.0286 45.6964 70.4629 43.269 69.2709C41.231 68.2701 39.7555 67.2102 38.1174 65.5704C35.0045 62.4542 33.134 58.6381 32.5396 54.1914C32.4004 53.1498 32.4241 50.2442 32.5803 49.206C33.3847 43.8595 36.0326 39.3966 40.2819 36.2255C42.8885 34.2802 46.1443 32.9723 49.3317 32.5899C49.6882 32.5472 50.1 32.4978 50.2468 32.4802C50.7307 32.4224 53.7814 32.5004 54.3648 32.5855ZM96.4833 78.0291C96.4037 78.1655 94.2824 81.8426 91.7693 86.2003C88.3907 92.0589 87.1596 94.1316 87.0449 94.1548C86.7623 94.2121 53.6559 96.9455 53.6247 96.9142C53.5944 96.884 62.8605 80.7795 62.9784 80.6573C63.0207 80.6135 94.7481 77.8984 96.487 77.7897C96.6233 77.7813 96.6232 77.7892 96.4833 78.0291ZM81.9489 103.222C81.8906 103.367 72.6668 119.341 72.6059 119.402C72.5622 119.446 39.0331 122.29 38.9823 122.255C38.9735 122.248 41.0858 118.569 43.6763 114.078L48.3863 105.913L64.8545 104.528C73.912 103.767 81.4723 103.14 81.655 103.135C81.893 103.129 81.9764 103.153 81.9489 103.222Z" fill="#2152FF"/>
</g>
<defs>
<filter id="filter0_i_871_30" x="0" y="0" width="111.013" height="151" filterUnits="userSpaceOnUse" color-interpolation-filters="sRGB">
<feFlood flood-opacity="0" result="BackgroundImageFix"/>
<feBlend mode="normal" in="SourceGraphic" in2="BackgroundImageFix" result="shape"/>
<feColorMatrix in="SourceAlpha" type="matrix" values="0 0 0 0 0 0 0 0 0 0 0 0 0 0 0 0 0 0 127 0" result="hardAlpha"/>
<feOffset dy="1"/>
<feGaussianBlur stdDeviation="2"/>
<feComposite in2="hardAlpha" operator="arithmetic" k2="-1" k3="1"/>
<feColorMatrix type="matrix" values="0 0 0 0 0 0 0 0 0 0 0 0 0 0 0 0 0 0 0.4 0"/>
<feBlend mode="normal" in2="shape" result="effect1_innerShadow_871_30"/>
</filter>
</defs>
</svg>
