<svg width="37" height="50" viewBox="0 0 37 50" fill="none" xmlns="http://www.w3.org/2000/svg">
<g filter="url(#filter0_i_871_41)">
<path fill-rule="evenodd" clip-rule="evenodd" d="M16.0235 0.0244764C11.3471 0.321903 6.99529 2.5439 3.99288 6.16727C0.860864 9.94706 -0.534993 14.9587 0.186178 19.8349C0.460947 21.6927 1.00494 23.4129 1.85121 25.1C2.17808 25.7516 13.1626 45.0572 13.5172 45.6034C14.2147 46.6776 15.3294 47.3609 16.6186 47.5045C17.2039 47.5697 17.7778 47.5063 18.3829 47.3098C19.4566 46.961 20.3534 46.1925 20.8707 45.1778C21.0271 44.871 23.8316 39.9287 23.8769 39.8801C23.8978 39.8577 24.5006 41.1328 26.2617 44.925C27.5579 47.7163 28.6255 50 28.6341 50C28.6427 50 29.3469 48.776 30.1991 47.2801L31.7484 44.5602L29.3912 39.4868C28.0947 36.6964 27.0302 34.4004 27.0256 34.3845C27.021 34.3686 27.3956 33.69 27.8581 32.8764L28.699 31.3971L28.7776 31.5694C29.1728 32.4349 33.4134 41.5437 33.4285 41.5595C33.4462 41.5778 36.5177 36.223 36.5384 36.1379C36.543 36.1191 35.4829 33.8141 34.1826 31.0157L31.8185 25.9276L31.9946 25.6028C32.5718 24.5381 33.036 23.4429 33.37 22.3575C34.4669 18.7935 34.379 14.9986 33.118 11.4771C31.8587 7.9605 29.5541 4.96341 26.5404 2.92334C23.6944 0.996787 20.3617 -0.019242 16.9522 0.000276011C16.6209 0.0021591 16.203 0.0130506 16.0235 0.0244764ZM17.8934 10.8618C18.9122 11.0123 19.758 11.337 20.5791 11.8929C20.9936 12.1735 21.1865 12.3324 21.5297 12.6759C23.1676 14.3154 23.7991 16.64 23.2262 18.9199C23.1159 19.3591 22.9999 19.6725 22.7757 20.1378C21.6474 22.4789 19.189 23.926 16.6521 23.7424C15.7375 23.6762 15.0403 23.4876 14.2414 23.0903C13.5706 22.7567 13.085 22.4034 12.5458 21.8568C11.5213 20.8181 10.9056 19.546 10.71 18.0638C10.6641 17.7166 10.672 16.7481 10.7234 16.402C10.9881 14.6198 11.8596 13.1322 13.2582 12.0752C14.1162 11.4267 15.1878 10.9908 16.2368 10.8633C16.3542 10.8491 16.4897 10.8326 16.538 10.8267C16.6973 10.8075 17.7014 10.8335 17.8934 10.8618ZM31.7561 26.0097C31.7299 26.0552 31.0317 27.2809 30.2046 28.7334C29.0926 30.6863 28.6874 31.3772 28.6496 31.3849C28.5566 31.404 17.6601 32.3152 17.6498 32.3047C17.6398 32.2947 20.6897 26.9265 20.7285 26.8858C20.7424 26.8712 31.185 25.9661 31.7574 25.9299C31.8022 25.9271 31.8022 25.9297 31.7561 26.0097ZM26.9724 34.4073C26.9532 34.4557 23.9173 39.7804 23.8972 39.8007C23.8828 39.8154 12.8472 40.7635 12.8305 40.7515C12.8276 40.7494 13.5228 39.5229 14.3755 38.026L15.9257 35.3043L21.346 34.8428C24.3271 34.589 26.8155 34.38 26.8756 34.3784C26.9539 34.3763 26.9814 34.3845 26.9724 34.4073Z" fill="#DCDCDC"/>
</g>
<defs>
<filter id="filter0_i_871_41" x="0" y="0" width="36.5386" height="51" filterUnits="userSpaceOnUse" color-interpolation-filters="sRGB">
<feFlood flood-opacity="0" result="BackgroundImageFix"/>
<feBlend mode="normal" in="SourceGraphic" in2="BackgroundImageFix" result="shape"/>
<feColorMatrix in="SourceAlpha" type="matrix" values="0 0 0 0 0 0 0 0 0 0 0 0 0 0 0 0 0 0 127 0" result="hardAlpha"/>
<feOffset dy="1"/>
<feGaussianBlur stdDeviation="2"/>
<feComposite in2="hardAlpha" operator="arithmetic" k2="-1" k3="1"/>
<feColorMatrix type="matrix" values="0 0 0 0 0 0 0 0 0 0 0 0 0 0 0 0 0 0 0.4 0"/>
<feBlend mode="normal" in2="shape" result="effect1_innerShadow_871_41"/>
</filter>
</defs>
</svg>
