<svg width="172" height="50" viewBox="0 0 172 50" fill="none" xmlns="http://www.w3.org/2000/svg">
<g filter="url(#filter0_i_873_46)">
<path d="M47.2979 32H44.6172V19.1504H51.9824V21.3828H47.2979V24.6963H51.6572V26.9199H47.2979V32ZM56.9658 32H54.2852V18.3242H56.9658V32ZM63.8389 21.9893C64.7471 21.9893 65.5293 22.165 66.1855 22.5166C66.8418 22.8623 67.3486 23.3662 67.7061 24.0283C68.0635 24.6904 68.2422 25.499 68.2422 26.4541V27.7549H61.9053C61.9346 28.5107 62.1602 29.1055 62.582 29.5391C63.0098 29.9668 63.6016 30.1807 64.3574 30.1807C64.9844 30.1807 65.5586 30.1162 66.0801 29.9873C66.6016 29.8584 67.1377 29.665 67.6885 29.4072V31.4814C67.2021 31.7217 66.6924 31.8975 66.1592 32.0088C65.6318 32.1201 64.9902 32.1758 64.2344 32.1758C63.25 32.1758 62.377 31.9941 61.6152 31.6309C60.8594 31.2676 60.2646 30.7139 59.8311 29.9697C59.4033 29.2256 59.1895 28.2881 59.1895 27.1572C59.1895 26.0088 59.3828 25.0537 59.7695 24.292C60.1621 23.5244 60.707 22.9502 61.4043 22.5693C62.1016 22.1826 62.9131 21.9893 63.8389 21.9893ZM63.8564 23.8965C63.335 23.8965 62.9014 24.0635 62.5557 24.3975C62.2158 24.7314 62.0195 25.2559 61.9668 25.9707H65.7285C65.7227 25.5723 65.6494 25.2178 65.5088 24.9072C65.374 24.5967 65.1689 24.3506 64.8936 24.1689C64.624 23.9873 64.2783 23.8965 63.8564 23.8965ZM74.4736 21.9893C75.3818 21.9893 76.1641 22.165 76.8203 22.5166C77.4766 22.8623 77.9834 23.3662 78.3408 24.0283C78.6982 24.6904 78.877 25.499 78.877 26.4541V27.7549H72.54C72.5693 28.5107 72.7949 29.1055 73.2168 29.5391C73.6445 29.9668 74.2363 30.1807 74.9922 30.1807C75.6191 30.1807 76.1934 30.1162 76.7148 29.9873C77.2363 29.8584 77.7725 29.665 78.3232 29.4072V31.4814C77.8369 31.7217 77.3271 31.8975 76.7939 32.0088C76.2666 32.1201 75.625 32.1758 74.8691 32.1758C73.8848 32.1758 73.0117 31.9941 72.25 31.6309C71.4941 31.2676 70.8994 30.7139 70.4658 29.9697C70.0381 29.2256 69.8242 28.2881 69.8242 27.1572C69.8242 26.0088 70.0176 25.0537 70.4043 24.292C70.7969 23.5244 71.3418 22.9502 72.0391 22.5693C72.7363 22.1826 73.5479 21.9893 74.4736 21.9893ZM74.4912 23.8965C73.9697 23.8965 73.5361 24.0635 73.1904 24.3975C72.8506 24.7314 72.6543 25.2559 72.6016 25.9707H76.3633C76.3574 25.5723 76.2842 25.2178 76.1436 24.9072C76.0088 24.5967 75.8037 24.3506 75.5283 24.1689C75.2588 23.9873 74.9131 23.8965 74.4912 23.8965ZM85.1963 30.04C85.4893 30.04 85.7734 30.0107 86.0488 29.9521C86.3301 29.8936 86.6084 29.8203 86.8838 29.7324V31.7275C86.5967 31.8564 86.2393 31.9619 85.8115 32.0439C85.3896 32.1318 84.9268 32.1758 84.4229 32.1758C83.8369 32.1758 83.3096 32.082 82.8408 31.8945C82.3779 31.7012 82.0117 31.3701 81.7422 30.9014C81.4785 30.4268 81.3467 29.7676 81.3467 28.9238V24.1865H80.0635V23.0527L81.54 22.1562L82.3135 20.082H84.0273V22.1738H86.7783V24.1865H84.0273V28.9238C84.0273 29.2988 84.1328 29.5801 84.3438 29.7676C84.5605 29.9492 84.8447 30.04 85.1963 30.04ZM99.2061 32L96.1123 21.9189H96.0332C96.0449 22.1592 96.0625 22.5225 96.0859 23.0088C96.1152 23.4893 96.1416 24.002 96.165 24.5469C96.1885 25.0918 96.2002 25.584 96.2002 26.0234V32H93.7656V19.1504H97.4746L100.516 28.9766H100.568L103.794 19.1504H107.503V32H104.963V25.918C104.963 25.5137 104.969 25.0479 104.98 24.5205C104.998 23.9932 105.019 23.4922 105.042 23.0176C105.065 22.5371 105.083 22.1768 105.095 21.9365H105.016L101.702 32H99.2061ZM114.561 21.9717C115.879 21.9717 116.89 22.2588 117.593 22.833C118.296 23.4072 118.647 24.2803 118.647 25.4521V32H116.775L116.257 30.6641H116.187C115.905 31.0156 115.618 31.3027 115.325 31.5254C115.032 31.748 114.695 31.9121 114.314 32.0176C113.934 32.123 113.471 32.1758 112.926 32.1758C112.346 32.1758 111.824 32.0645 111.361 31.8418C110.904 31.6191 110.544 31.2793 110.28 30.8223C110.017 30.3594 109.885 29.7734 109.885 29.0645C109.885 28.0215 110.251 27.2539 110.983 26.7617C111.716 26.2637 112.814 25.9883 114.279 25.9355L115.984 25.8828V25.4521C115.984 24.9365 115.85 24.5586 115.58 24.3184C115.311 24.0781 114.936 23.958 114.455 23.958C113.98 23.958 113.515 24.0254 113.058 24.1602C112.601 24.2949 112.144 24.4648 111.687 24.6699L110.799 22.8594C111.32 22.584 111.903 22.3672 112.548 22.209C113.198 22.0508 113.869 21.9717 114.561 21.9717ZM115.984 27.4473L114.947 27.4824C114.08 27.5059 113.477 27.6611 113.137 27.9482C112.803 28.2354 112.636 28.6133 112.636 29.082C112.636 29.4922 112.756 29.7852 112.996 29.9609C113.236 30.1309 113.55 30.2158 113.937 30.2158C114.511 30.2158 114.994 30.0459 115.387 29.7061C115.785 29.3662 115.984 28.8828 115.984 28.2559V27.4473ZM126.997 21.9893C128.046 21.9893 128.89 22.2764 129.528 22.8506C130.167 23.4189 130.486 24.333 130.486 25.5928V32H127.806V26.2607C127.806 25.5576 127.677 25.0273 127.419 24.6699C127.167 24.3125 126.769 24.1338 126.224 24.1338C125.403 24.1338 124.844 24.4121 124.545 24.9688C124.246 25.5254 124.097 26.3281 124.097 27.377V32H121.416V22.1738H123.464L123.824 23.4307H123.974C124.185 23.0908 124.445 22.8154 124.756 22.6045C125.072 22.3936 125.421 22.2383 125.802 22.1387C126.188 22.0391 126.587 21.9893 126.997 21.9893ZM137.271 21.9717C138.59 21.9717 139.601 22.2588 140.304 22.833C141.007 23.4072 141.358 24.2803 141.358 25.4521V32H139.486L138.968 30.6641H138.897C138.616 31.0156 138.329 31.3027 138.036 31.5254C137.743 31.748 137.406 31.9121 137.025 32.0176C136.645 32.123 136.182 32.1758 135.637 32.1758C135.057 32.1758 134.535 32.0645 134.072 31.8418C133.615 31.6191 133.255 31.2793 132.991 30.8223C132.728 30.3594 132.596 29.7734 132.596 29.0645C132.596 28.0215 132.962 27.2539 133.694 26.7617C134.427 26.2637 135.525 25.9883 136.99 25.9355L138.695 25.8828V25.4521C138.695 24.9365 138.561 24.5586 138.291 24.3184C138.021 24.0781 137.646 23.958 137.166 23.958C136.691 23.958 136.226 24.0254 135.769 24.1602C135.312 24.2949 134.854 24.4648 134.397 24.6699L133.51 22.8594C134.031 22.584 134.614 22.3672 135.259 22.209C135.909 22.0508 136.58 21.9717 137.271 21.9717ZM138.695 27.4473L137.658 27.4824C136.791 27.5059 136.188 27.6611 135.848 27.9482C135.514 28.2354 135.347 28.6133 135.347 29.082C135.347 29.4922 135.467 29.7852 135.707 29.9609C135.947 30.1309 136.261 30.2158 136.647 30.2158C137.222 30.2158 137.705 30.0459 138.098 29.7061C138.496 29.3662 138.695 28.8828 138.695 28.2559V27.4473ZM147.001 36.3242C145.63 36.3242 144.581 36.084 143.854 35.6035C143.134 35.1289 142.773 34.4609 142.773 33.5996C142.773 33.0078 142.958 32.5127 143.327 32.1143C143.696 31.7158 144.238 31.4316 144.953 31.2617C144.678 31.1445 144.438 30.9541 144.232 30.6904C144.027 30.4209 143.925 30.1367 143.925 29.8379C143.925 29.4629 144.033 29.1523 144.25 28.9062C144.467 28.6543 144.78 28.4082 145.19 28.168C144.675 27.9453 144.265 27.5879 143.96 27.0957C143.661 26.6035 143.512 26.0234 143.512 25.3555C143.512 24.6406 143.667 24.0342 143.978 23.5361C144.294 23.0322 144.751 22.6484 145.349 22.3848C145.952 22.1211 146.685 21.9893 147.546 21.9893C147.728 21.9893 147.938 22.001 148.179 22.0244C148.419 22.0479 148.639 22.0742 148.838 22.1035C149.043 22.1328 149.181 22.1562 149.251 22.1738H152.679V23.5361L151.141 23.9316C151.281 24.1484 151.387 24.3799 151.457 24.626C151.527 24.8721 151.562 25.1328 151.562 25.4082C151.562 26.4629 151.193 27.2861 150.455 27.8779C149.723 28.4639 148.703 28.7568 147.396 28.7568C147.086 28.7393 146.793 28.7158 146.518 28.6865C146.383 28.792 146.28 28.9033 146.21 29.0205C146.14 29.1377 146.104 29.2607 146.104 29.3896C146.104 29.5186 146.157 29.627 146.263 29.7148C146.374 29.7969 146.538 29.8613 146.755 29.9082C146.978 29.9492 147.253 29.9697 147.581 29.9697H149.251C150.329 29.9697 151.149 30.2012 151.712 30.6641C152.28 31.127 152.564 31.8066 152.564 32.7031C152.564 33.8516 152.084 34.7422 151.123 35.375C150.168 36.0078 148.794 36.3242 147.001 36.3242ZM147.115 34.5752C147.754 34.5752 148.302 34.5137 148.759 34.3906C149.222 34.2734 149.576 34.1035 149.822 33.8809C150.068 33.6641 150.191 33.4033 150.191 33.0986C150.191 32.8525 150.118 32.6562 149.972 32.5098C149.831 32.3691 149.614 32.2695 149.321 32.2109C149.034 32.1523 148.665 32.123 148.214 32.123H146.825C146.497 32.123 146.201 32.1758 145.938 32.2812C145.68 32.3867 145.475 32.5332 145.322 32.7207C145.17 32.9141 145.094 33.1367 145.094 33.3887C145.094 33.7578 145.27 34.0479 145.621 34.2588C145.979 34.4697 146.477 34.5752 147.115 34.5752ZM147.546 27.1221C148.05 27.1221 148.419 26.9668 148.653 26.6562C148.888 26.3457 149.005 25.9238 149.005 25.3906C149.005 24.7988 148.882 24.3564 148.636 24.0635C148.396 23.7646 148.032 23.6152 147.546 23.6152C147.054 23.6152 146.685 23.7646 146.438 24.0635C146.192 24.3564 146.069 24.7988 146.069 25.3906C146.069 25.9238 146.189 26.3457 146.43 26.6562C146.676 26.9668 147.048 27.1221 147.546 27.1221ZM158.356 21.9893C159.265 21.9893 160.047 22.165 160.703 22.5166C161.359 22.8623 161.866 23.3662 162.224 24.0283C162.581 24.6904 162.76 25.499 162.76 26.4541V27.7549H156.423C156.452 28.5107 156.678 29.1055 157.1 29.5391C157.527 29.9668 158.119 30.1807 158.875 30.1807C159.502 30.1807 160.076 30.1162 160.598 29.9873C161.119 29.8584 161.655 29.665 162.206 29.4072V31.4814C161.72 31.7217 161.21 31.8975 160.677 32.0088C160.149 32.1201 159.508 32.1758 158.752 32.1758C157.768 32.1758 156.895 31.9941 156.133 31.6309C155.377 31.2676 154.782 30.7139 154.349 29.9697C153.921 29.2256 153.707 28.2881 153.707 27.1572C153.707 26.0088 153.9 25.0537 154.287 24.292C154.68 23.5244 155.225 22.9502 155.922 22.5693C156.619 22.1826 157.431 21.9893 158.356 21.9893ZM158.374 23.8965C157.853 23.8965 157.419 24.0635 157.073 24.3975C156.733 24.7314 156.537 25.2559 156.484 25.9707H160.246C160.24 25.5723 160.167 25.2178 160.026 24.9072C159.892 24.5967 159.687 24.3506 159.411 24.1689C159.142 23.9873 158.796 23.8965 158.374 23.8965ZM170.424 21.9893C170.559 21.9893 170.714 21.998 170.89 22.0156C171.071 22.0273 171.218 22.0449 171.329 22.0684L171.127 24.582C171.039 24.5527 170.913 24.5322 170.749 24.5205C170.591 24.5029 170.453 24.4941 170.336 24.4941C169.99 24.4941 169.653 24.5381 169.325 24.626C169.003 24.7139 168.713 24.8574 168.455 25.0566C168.197 25.25 167.992 25.5078 167.84 25.8301C167.693 26.1465 167.62 26.5361 167.62 26.999V32H164.939V22.1738H166.97L167.365 23.8262H167.497C167.69 23.4922 167.931 23.1875 168.218 22.9121C168.511 22.6309 168.842 22.4082 169.211 22.2441C169.586 22.0742 169.99 21.9893 170.424 21.9893Z" fill="#DCDCDC"/>
</g>
<g filter="url(#filter1_i_873_46)">
<path fill-rule="evenodd" clip-rule="evenodd" d="M16.0235 0.0244764C11.3471 0.321903 6.99529 2.5439 3.99288 6.16727C0.860864 9.94706 -0.534993 14.9587 0.186178 19.8349C0.460947 21.6927 1.00494 23.4129 1.85121 25.1C2.17808 25.7516 13.1626 45.0572 13.5172 45.6034C14.2147 46.6776 15.3294 47.3609 16.6186 47.5045C17.2039 47.5697 17.7778 47.5063 18.3829 47.3098C19.4566 46.961 20.3534 46.1925 20.8707 45.1778C21.0271 44.871 23.8316 39.9287 23.8769 39.8801C23.8978 39.8577 24.5006 41.1328 26.2617 44.925C27.5579 47.7163 28.6255 50 28.6341 50C28.6427 50 29.3469 48.776 30.1991 47.2801L31.7484 44.5602L29.3912 39.4868C28.0947 36.6964 27.0302 34.4004 27.0256 34.3845C27.021 34.3686 27.3956 33.69 27.8581 32.8764L28.699 31.3971L28.7776 31.5694C29.1728 32.4349 33.4134 41.5437 33.4285 41.5595C33.4462 41.5778 36.5177 36.223 36.5384 36.1379C36.543 36.1191 35.4829 33.8141 34.1826 31.0157L31.8185 25.9276L31.9946 25.6028C32.5718 24.5381 33.036 23.4429 33.37 22.3575C34.4669 18.7935 34.379 14.9986 33.118 11.4771C31.8587 7.9605 29.5541 4.96341 26.5404 2.92334C23.6944 0.996787 20.3617 -0.019242 16.9522 0.000276011C16.6209 0.0021591 16.203 0.0130506 16.0235 0.0244764ZM17.8934 10.8618C18.9122 11.0123 19.758 11.337 20.5791 11.8929C20.9936 12.1735 21.1865 12.3324 21.5297 12.6759C23.1676 14.3154 23.7991 16.64 23.2262 18.9199C23.1159 19.3591 22.9999 19.6725 22.7757 20.1378C21.6474 22.4789 19.189 23.926 16.6521 23.7424C15.7375 23.6762 15.0403 23.4876 14.2414 23.0903C13.5706 22.7567 13.085 22.4034 12.5458 21.8568C11.5213 20.8181 10.9056 19.546 10.71 18.0638C10.6641 17.7166 10.672 16.7481 10.7234 16.402C10.9881 14.6198 11.8596 13.1322 13.2582 12.0752C14.1162 11.4267 15.1878 10.9908 16.2368 10.8633C16.3542 10.8491 16.4897 10.8326 16.538 10.8267C16.6973 10.8075 17.7014 10.8335 17.8934 10.8618ZM31.7561 26.0097C31.7299 26.0552 31.0317 27.2809 30.2046 28.7334C29.0926 30.6863 28.6874 31.3772 28.6496 31.3849C28.5566 31.404 17.6601 32.3152 17.6498 32.3047C17.6398 32.2947 20.6897 26.9265 20.7285 26.8858C20.7424 26.8712 31.185 25.9661 31.7574 25.9299C31.8022 25.9271 31.8022 25.9297 31.7561 26.0097ZM26.9724 34.4073C26.9532 34.4557 23.9173 39.7804 23.8972 39.8007C23.8828 39.8154 12.8472 40.7635 12.8305 40.7515C12.8276 40.7494 13.5228 39.5229 14.3755 38.026L15.9257 35.3043L21.346 34.8428C24.3271 34.589 26.8155 34.38 26.8756 34.3784C26.9539 34.3763 26.9814 34.3845 26.9724 34.4073Z" fill="#344767"/>
</g>
<g filter="url(#filter2_i_873_46)">
<path fill-rule="evenodd" clip-rule="evenodd" d="M16.0235 0.0244764C11.3471 0.321903 6.99529 2.5439 3.99288 6.16727C0.860864 9.94706 -0.534993 14.9587 0.186178 19.8349C0.460947 21.6927 1.00494 23.4129 1.85121 25.1C2.17808 25.7516 13.1626 45.0572 13.5172 45.6034C14.2147 46.6776 15.3294 47.3609 16.6186 47.5045C17.2039 47.5697 17.7778 47.5063 18.3829 47.3098C19.4566 46.961 20.3534 46.1925 20.8707 45.1778C21.0271 44.871 23.8316 39.9287 23.8769 39.8801C23.8978 39.8577 24.5006 41.1328 26.2617 44.925C27.5579 47.7163 28.6255 50 28.6341 50C28.6427 50 29.3469 48.776 30.1991 47.2801L31.7484 44.5602L29.3912 39.4868C28.0947 36.6964 27.0302 34.4004 27.0256 34.3845C27.021 34.3686 27.3956 33.69 27.8581 32.8764L28.699 31.3971L28.7776 31.5694C29.1728 32.4349 33.4134 41.5437 33.4285 41.5595C33.4462 41.5778 36.5177 36.223 36.5384 36.1379C36.543 36.1191 35.4829 33.8141 34.1826 31.0157L31.8185 25.9276L31.9946 25.6028C32.5718 24.5381 33.036 23.4429 33.37 22.3575C34.4669 18.7935 34.379 14.9986 33.118 11.4771C31.8587 7.9605 29.5541 4.96341 26.5404 2.92334C23.6944 0.996787 20.3617 -0.019242 16.9522 0.000276011C16.6209 0.0021591 16.203 0.0130506 16.0235 0.0244764ZM17.8934 10.8618C18.9122 11.0123 19.758 11.337 20.5791 11.8929C20.9936 12.1735 21.1865 12.3324 21.5297 12.6759C23.1676 14.3154 23.7991 16.64 23.2262 18.9199C23.1159 19.3591 22.9999 19.6725 22.7757 20.1378C21.6474 22.4789 19.189 23.926 16.6521 23.7424C15.7375 23.6762 15.0403 23.4876 14.2414 23.0903C13.5706 22.7567 13.085 22.4034 12.5458 21.8568C11.5213 20.8181 10.9056 19.546 10.71 18.0638C10.6641 17.7166 10.672 16.7481 10.7234 16.402C10.9881 14.6198 11.8596 13.1322 13.2582 12.0752C14.1162 11.4267 15.1878 10.9908 16.2368 10.8633C16.3542 10.8491 16.4897 10.8326 16.538 10.8267C16.6973 10.8075 17.7014 10.8335 17.8934 10.8618ZM31.7561 26.0097C31.7299 26.0552 31.0317 27.2809 30.2046 28.7334C29.0926 30.6863 28.6874 31.3772 28.6496 31.3849C28.5566 31.404 17.6601 32.3152 17.6498 32.3047C17.6398 32.2947 20.6897 26.9265 20.7285 26.8858C20.7424 26.8712 31.185 25.9661 31.7574 25.9299C31.8022 25.9271 31.8022 25.9297 31.7561 26.0097ZM26.9724 34.4073C26.9532 34.4557 23.9173 39.7804 23.8972 39.8007C23.8828 39.8154 12.8472 40.7635 12.8305 40.7515C12.8276 40.7494 13.5228 39.5229 14.3755 38.026L15.9257 35.3043L21.346 34.8428C24.3271 34.589 26.8155 34.38 26.8756 34.3784C26.9539 34.3763 26.9814 34.3845 26.9724 34.4073Z" fill="#DCDCDC"/>
</g>
<path d="M31.7954 25.9805L36.5267 36.1528L33.3761 41.4995L28.6946 31.3784L31.7954 25.9805Z" fill="#344767"/>
<path d="M32 44.5001C31.3333 43.3334 29.4003 39.7 27.0005 34.5L24 40L28.5 50L32 44.5001Z" fill="#30415F"/>
<defs>
<filter id="filter0_i_873_46" x="44.6172" y="18.3242" width="126.712" height="19" filterUnits="userSpaceOnUse" color-interpolation-filters="sRGB">
<feFlood flood-opacity="0" result="BackgroundImageFix"/>
<feBlend mode="normal" in="SourceGraphic" in2="BackgroundImageFix" result="shape"/>
<feColorMatrix in="SourceAlpha" type="matrix" values="0 0 0 0 0 0 0 0 0 0 0 0 0 0 0 0 0 0 127 0" result="hardAlpha"/>
<feOffset dy="1"/>
<feGaussianBlur stdDeviation="1"/>
<feComposite in2="hardAlpha" operator="arithmetic" k2="-1" k3="1"/>
<feColorMatrix type="matrix" values="0 0 0 0 0 0 0 0 0 0 0 0 0 0 0 0 0 0 0.2 0"/>
<feBlend mode="normal" in2="shape" result="effect1_innerShadow_873_46"/>
</filter>
<filter id="filter1_i_873_46" x="0" y="0" width="36.5386" height="51" filterUnits="userSpaceOnUse" color-interpolation-filters="sRGB">
<feFlood flood-opacity="0" result="BackgroundImageFix"/>
<feBlend mode="normal" in="SourceGraphic" in2="BackgroundImageFix" result="shape"/>
<feColorMatrix in="SourceAlpha" type="matrix" values="0 0 0 0 0 0 0 0 0 0 0 0 0 0 0 0 0 0 127 0" result="hardAlpha"/>
<feOffset dy="1"/>
<feGaussianBlur stdDeviation="2"/>
<feComposite in2="hardAlpha" operator="arithmetic" k2="-1" k3="1"/>
<feColorMatrix type="matrix" values="0 0 0 0 0 0 0 0 0 0 0 0 0 0 0 0 0 0 0.4 0"/>
<feBlend mode="normal" in2="shape" result="effect1_innerShadow_873_46"/>
</filter>
<filter id="filter2_i_873_46" x="0" y="0" width="36.5386" height="51" filterUnits="userSpaceOnUse" color-interpolation-filters="sRGB">
<feFlood flood-opacity="0" result="BackgroundImageFix"/>
<feBlend mode="normal" in="SourceGraphic" in2="BackgroundImageFix" result="shape"/>
<feColorMatrix in="SourceAlpha" type="matrix" values="0 0 0 0 0 0 0 0 0 0 0 0 0 0 0 0 0 0 127 0" result="hardAlpha"/>
<feOffset dy="1"/>
<feGaussianBlur stdDeviation="2"/>
<feComposite in2="hardAlpha" operator="arithmetic" k2="-1" k3="1"/>
<feColorMatrix type="matrix" values="0 0 0 0 0 0 0 0 0 0 0 0 0 0 0 0 0 0 0.4 0"/>
<feBlend mode="normal" in2="shape" result="effect1_innerShadow_873_46"/>
</filter>
</defs>
</svg>
