<svg id="Layer_1" data-name="Layer 1" xmlns="http://www.w3.org/2000/svg" width="500" height="500" viewBox="0 0 500 500">
  <defs>
    <style>
      .cls-1 {
        fill: #e9ecef;
      }

      .cls-2 {
        fill: #3a416f;
      }
    </style>
  </defs>
  <circle class="cls-1" cx="250" cy="250" r="192"/>
  <g>
    <path class="cls-2" d="M319.73,270.3H172.53a20,20,0,0,1,0-40h147.2a20,20,0,0,1,0,40Z"/>
    <path class="cls-2" d="M267.47,330.3a20,20,0,0,1-14.15-34.14l45.86-45.86-46.46-46.46A20,20,0,1,1,281,175.56l60.6,60.6a20,20,0,0,1,0,28.28l-60,60A19.92,19.92,0,0,1,267.47,330.3Z"/>
  </g>
</svg>
