<svg id="Layer_1" data-name="Layer 1" xmlns="http://www.w3.org/2000/svg" width="500" height="500" viewBox="0 0 500 500">
  <defs>
    <style>
      .cls-1 {
        fill: #e9ecef;
      }

      .cls-2 {
        fill: #3a416f;
      }
    </style>
  </defs>
  <circle class="cls-1" cx="250" cy="250" r="192"/>
  <g>
    <path class="cls-2" d="M260.25,306.92h-80a20,20,0,0,1,0-40h80a47.22,47.22,0,1,0,0-94.44h-80a20,20,0,0,1,0-40h80a87.22,87.22,0,0,1,0,174.44Z"/>
    <path class="cls-2" d="M233.13,367.52A19.92,19.92,0,0,1,219,361.66l-60.6-60.6a20,20,0,0,1,0-28.28l60-60a20,20,0,0,1,28.29,28.28l-45.86,45.86,46.46,46.46a20,20,0,0,1-14.15,34.14Z"/>
  </g>
</svg>
