<?xml version="1.0" encoding="UTF-8"?>
<svg id="Layer_2" data-name="Layer 2" xmlns="http://www.w3.org/2000/svg" viewBox="0 0 189.1 248.97">
  <g id="Layer_1-2" data-name="Layer 1">
    <g>
      <path d="m187.85,116.1c-2.94-18.02-11.2-34.72-23.13-47.49,9.86,14.46,15.03,31.5,15.17,48.2.21,16.72-4.68,33.03-13.37,46.35-2.19,3.32-4.57,6.49-7.18,9.43-2.63,2.93-5.43,5.66-8.39,8.2-6,4.97-12.55,9.1-19.51,12.08-9.12,3.96-18.86,5.97-28.48,6.17l6.22-17.9-70.51,13.51,46.95,54.32,6.71-19.31c18.1-.83,35.68-6.29,50.51-15.69,8.4-5.27,15.86-11.8,22.26-19.06,3.16-3.68,6.06-7.55,8.68-11.57,2.6-4.05,4.86-8.28,6.83-12.6,7.83-17.37,10.25-36.64,7.25-54.64Z"/>
      <path d="m86.12,49.93l-6.22,17.9,70.51-13.51L103.46,0l-6.71,19.31c-18.1.83-35.67,6.29-50.51,15.69-8.39,5.27-15.86,11.8-22.25,19.06-3.16,3.67-6.06,7.54-8.67,11.57-2.6,4.04-4.86,8.28-6.83,12.6C.66,95.6-1.75,114.87,1.25,132.87c2.93,18.02,11.19,34.72,23.13,47.49-9.86-14.45-15.02-31.5-15.16-48.2-.2-16.72,4.68-33.03,13.37-46.35,2.19-3.32,4.57-6.49,7.18-9.43,2.63-2.93,5.43-5.67,8.39-8.2,6-4.97,12.55-9.1,19.5-12.08,9.12-3.96,18.85-5.97,28.47-6.18Z"/>
    </g>
  </g>
</svg>